<svg width="512" height="512" viewBox="0 0 512 512" xml:space="preserve" style="clip-rule:evenodd;fill-rule:evenodd;stroke-linejoin:round;stroke-miterlimit:2" xmlns="http://www.w3.org/2000/svg"><path d="M255.989 0c162.192 0 256.01 127.64 256.01 256.02C512 384.404 418.182 512 255.99 512 93.819 512-.001 384.404-.001 256.02 0 127.64 93.82 0 255.99 0zm0 31.576C113.545 31.576 30.72 143.25 30.72 256.02c0 112.774 82.825 224.405 225.269 224.405 142.465 0 225.29-111.631 225.29-224.405 0-112.769-82.825-224.444-225.29-224.444z"/><path d="M198.003 464.345v6.693H193.1v8.182h4.903v24.318h10.072V479.22h6.758s.633-3.922.939-8.213h-7.659v-5.596c0-.836 1.098-1.961 2.183-1.961h5.488v-8.519h-7.461c-10.569 0-10.32 8.191-10.32 9.414" style="fill-rule:nonzero" transform="matrix(5.31131 0 0 5.55128 -829.856 -2404.37)"/></svg>
