<svg xmlns="http://www.w3.org/2000/svg" width="293.845" height="98.133" viewBox="0 0 293.845 98.133"><path d="M241.705,148.389a52.542,52.542,0,0,0-.246,5.566q0,2.2.11,4.612h-2.131q0-3.241.446-8.457h-.119c-.075.328-.234.859-.48,1.594s-.735,1.977-1.467,3.723a19.439,19.439,0,0,0-1.153,3.139h-1.626a23.52,23.52,0,0,0-.563-3.251c-.381-1.756-.607-2.9-.683-3.417s-.146-1.116-.206-1.79h-.111c-.067.6-.269,2.1-.615,4.485s-.52,3.715-.52,3.972h-1.93q0-.21.965-4.841t1.056-5.336h2.726a24.282,24.282,0,0,0,.551,3.875,23.926,23.926,0,0,1,.551,3.811h.113a21.729,21.729,0,0,1,1.3-3.87,22.588,22.588,0,0,0,1.291-3.816Z" transform="translate(-190.344 -79.813)" fill="#006cb7" /><path d="M250.695,151.013a11.246,11.246,0,0,1-1.488,4q-1.483,2.905-1.7,3.554a6.033,6.033,0,0,1-1.533,2.678,3.61,3.61,0,0,1-2.4.739v-1.509a2.332,2.332,0,0,0,1.63-.63,2.071,2.071,0,0,0,.686-1.589,13.688,13.688,0,0,0-.911-3.708,14.206,14.206,0,0,1-.913-3.454l2.157-.084a14.957,14.957,0,0,0,.425,3.006,15.171,15.171,0,0,1,.424,2.638h.111a20.879,20.879,0,0,1,.816-2.34,9.773,9.773,0,0,0,.788-3.2Z" transform="translate(-190.131 -79.77)" fill="#006cb7" /><path d="M262.73,152.663a2.116,2.116,0,0,0-1.189-.35,1.863,1.863,0,0,0-1.7.9,3.935,3.935,0,0,0-.561,2.136q0,1.962,1.212,1.96c.484,0,.936-.333,1.351-1a5.089,5.089,0,0,0,.74-2.184Zm2.308-5.136c0,.137-.086.7-.255,1.689s-.32,2.162-.45,3.513-.194,2.627-.194,3.82c0,.7.02,1.377.059,2.024l-1.73.095a11.829,11.829,0,0,1-.088-1.523l-.1.006a2.836,2.836,0,0,1-2.607,1.633,1.978,1.978,0,0,1-1.705-.823,3.679,3.679,0,0,1-.6-2.2,5.7,5.7,0,0,1,1.04-3.452,3.223,3.223,0,0,1,2.745-1.425,2.184,2.184,0,0,1,1.562.516h.109q.137-1.646.237-3.8Z" transform="translate(-189.907 -79.827)" fill="#006cb7" /><path d="M272.371,151.016l-.594,1.837a3.5,3.5,0,0,0-1.048-.156c-.9,0-1.408.518-1.511,1.554q-.244,2.364-.368,4.276l-1.88.077a52.374,52.374,0,0,0,.524-5.471c0-.546-.042-1.215-.118-2l1.857-.2c.027.348.044.691.044,1.035h.114a2.209,2.209,0,0,1,1.859-1.127,4.1,4.1,0,0,1,1.122.174" transform="translate(-189.751 -79.773)" fill="#006cb7" /><path d="M278.74,152.878q0-.761-1.117-.759a1.817,1.817,0,0,0-1.205.489,2.336,2.336,0,0,0-.743,1.4q3.066-.064,3.065-1.133m1.671-.156q0,2.328-4.8,2.422a2.68,2.68,0,0,0,.364,1.545,1.478,1.478,0,0,0,1.283.513,5.115,5.115,0,0,0,2.569-.808l-.233,1.551a4.7,4.7,0,0,1-2.831.81,2.661,2.661,0,0,1-2.257-.955,4.082,4.082,0,0,1-.731-2.538A4.43,4.43,0,0,1,275,151.99a3.949,3.949,0,0,1,2.9-1.232,2.926,2.926,0,0,1,1.82.5,1.716,1.716,0,0,1,.692,1.461" transform="translate(-189.64 -79.774)" fill="#006cb7" /><path d="M287.246,152.345a2.778,2.778,0,0,0-2.3.953,4,4,0,0,0-.734,2.531c0,.966.29,1.447.87,1.447q.675,0,1.238-1.022a6.018,6.018,0,0,0,.713-1.958,18.738,18.738,0,0,0,.21-1.951m1.923-1.594a49.158,49.158,0,0,0-.6,5.858,14.317,14.317,0,0,0,.127,1.838l-1.844.222c-.029-.43-.045-.934-.045-1.505h-.112a2.657,2.657,0,0,1-2.473,1.582,1.583,1.583,0,0,1-1.422-.738,3.679,3.679,0,0,1-.48-2.02,5.057,5.057,0,0,1,1.236-3.325,4.924,4.924,0,0,1,3.843-1.554l.328-.238Z" transform="translate(-189.502 -79.774)" fill="#006cb7" /><path d="M302.73,153.179c0,.545-.068,1.428-.2,2.66s-.2,2.125-.2,2.687l-1.911.077c0-.33.081-1.112.242-2.336a22.9,22.9,0,0,0,.244-2.478,2.474,2.474,0,0,0-.187-1.151.684.684,0,0,0-.648-.324,1.59,1.59,0,0,0-1.29.891,5.007,5.007,0,0,0-.712,2.3q-.171,1.759-.208,3.017l-1.921.077c0-.271.084-1.036.247-2.294a24.216,24.216,0,0,0,.249-2.52,2.418,2.418,0,0,0-.192-1.156.691.691,0,0,0-.647-.319,1.591,1.591,0,0,0-1.284.914,5.154,5.154,0,0,0-.716,2.281q-.172,1.751-.248,3.017l-1.879.077a53.267,53.267,0,0,0,.524-5.471,19.9,19.9,0,0,0-.121-2l1.858-.192c.036.4.055.919.055,1.544h.1a2.685,2.685,0,0,1,2.516-1.634,1.75,1.75,0,0,1,1.3.452,1.712,1.712,0,0,1,.476,1.182h.09a2.8,2.8,0,0,1,2.58-1.634,1.678,1.678,0,0,1,1.469.592,2.994,2.994,0,0,1,.419,1.737" transform="translate(-189.353 -79.773)" fill="#006cb7" /><path d="M307.586,156.92a1.635,1.635,0,0,1-.429,1.136,1.375,1.375,0,0,1-1.071.469.912.912,0,0,1-.743-.321,1.224,1.224,0,0,1-.258-.793,1.552,1.552,0,0,1,.43-1.115,1.414,1.414,0,0,1,1.068-.454q1,0,1,1.077" transform="translate(-189.132 -79.692)" fill="#006cb7" /><path d="M326.179,148.389a52.577,52.577,0,0,0-.245,5.566q0,2.2.111,4.612h-2.134q0-3.241.449-8.457h-.12c-.077.328-.235.859-.479,1.594s-.736,1.977-1.468,3.723a19.111,19.111,0,0,0-1.153,3.139h-1.628a23.455,23.455,0,0,0-.562-3.251c-.381-1.756-.607-2.9-.682-3.417s-.149-1.116-.208-1.79h-.113c-.065.6-.269,2.1-.616,4.485s-.515,3.715-.515,3.972h-1.931q0-.21.965-4.841t1.056-5.336h2.727a24.04,24.04,0,0,0,.551,3.875,24.177,24.177,0,0,1,.551,3.811h.112a22.014,22.014,0,0,1,1.3-3.87,22.734,22.734,0,0,0,1.294-3.816Z" transform="translate(-188.973 -79.813)" fill="#006cb7" /><path d="M335.169,151.013a11.245,11.245,0,0,1-1.488,4q-1.485,2.905-1.7,3.554a6.1,6.1,0,0,1-1.538,2.678,3.617,3.617,0,0,1-2.4.739v-1.509a2.325,2.325,0,0,0,1.63-.63,2.071,2.071,0,0,0,.686-1.589,13.688,13.688,0,0,0-.911-3.708,14.257,14.257,0,0,1-.913-3.454l2.161-.084a15.348,15.348,0,0,0,.421,3.006,14.936,14.936,0,0,1,.426,2.638h.112a20.749,20.749,0,0,1,.815-2.34,9.779,9.779,0,0,0,.789-3.2Z" transform="translate(-188.76 -79.77)" fill="#006cb7" /><path d="M347.61,151.022l-.4,1.586a4.374,4.374,0,0,0-1.437-.219,1.775,1.775,0,0,0-1.538.8,3.159,3.159,0,0,0-.552,1.832c0,1.452.53,2.182,1.588,2.182a3.8,3.8,0,0,0,1.993-.688l-.24,1.548a3.564,3.564,0,0,1-2.217.693,2.633,2.633,0,0,1-2.281-1.011,4.142,4.142,0,0,1-.738-2.505,4.381,4.381,0,0,1,1.182-3.083,4.037,4.037,0,0,1,3.1-1.278,7.144,7.144,0,0,1,1.538.148" transform="translate(-188.537 -79.772)" fill="#006cb7" /><path d="M354.864,154.418a2.877,2.877,0,0,0-.4-1.59,1.239,1.239,0,0,0-1.091-.622,1.638,1.638,0,0,0-1.434.928,3.958,3.958,0,0,0-.551,2.048,2.855,2.855,0,0,0,.4,1.592,1.257,1.257,0,0,0,1.1.622,1.614,1.614,0,0,0,1.436-.92,4.019,4.019,0,0,0,.534-2.058m1.894-.174a4.778,4.778,0,0,1-1.163,3.247,3.8,3.8,0,0,1-3,1.342,2.9,2.9,0,0,1-2.185-.977,3.589,3.589,0,0,1-.914-2.572,4.653,4.653,0,0,1,1.17-3.214,3.832,3.832,0,0,1,3-1.313,2.914,2.914,0,0,1,2.185.943,3.513,3.513,0,0,1,.9,2.544" transform="translate(-188.411 -79.774)" fill="#006cb7" /><path d="M362,147.467c0,.264-.071.951-.223,2.052s-.277,2.187-.387,3.256c-.249,2.414-.4,4.339-.475,5.783l-1.939.119c0-.092.079-.762.244-2.014s.307-2.548.444-3.888q.306-3.049.308-5.183Z" transform="translate(-188.258 -79.828)" fill="#006cb7" /><path d="M367.078,147.467c0,.264-.074.951-.224,2.052s-.279,2.187-.387,3.256q-.369,3.62-.475,5.783l-1.939.119c0-.092.079-.762.245-2.014s.309-2.548.444-3.888q.308-3.049.309-5.183Z" transform="translate(-188.175 -79.828)" fill="#006cb7" /><path d="M374.081,152.878q0-.761-1.116-.759a1.824,1.824,0,0,0-1.207.489,2.339,2.339,0,0,0-.741,1.4q3.064-.064,3.064-1.133m1.67-.156q0,2.328-4.8,2.422a2.645,2.645,0,0,0,.37,1.545,1.474,1.474,0,0,0,1.283.513,5.108,5.108,0,0,0,2.567-.808l-.232,1.551a4.707,4.707,0,0,1-2.831.81,2.667,2.667,0,0,1-2.261-.955,4.1,4.1,0,0,1-.729-2.538,4.429,4.429,0,0,1,1.224-3.271,3.963,3.963,0,0,1,2.9-1.232,2.919,2.919,0,0,1,1.819.5,1.717,1.717,0,0,1,.69,1.461" transform="translate(-188.093 -79.774)" fill="#006cb7" /><path d="M382.478,153.267a1.147,1.147,0,0,0-.371-.926,1.244,1.244,0,0,0-.834-.318,1.378,1.378,0,0,0-1.025.438,1.581,1.581,0,0,0-.427,1.158,1.126,1.126,0,0,0,.369.91,1.285,1.285,0,0,0,.842.31,1.388,1.388,0,0,0,1.021-.432,1.558,1.558,0,0,0,.425-1.14m.2,6.317a.673.673,0,0,0-.322-.638,3.58,3.58,0,0,0-1.46-.184,10.91,10.91,0,0,1-1.391-.079,1.622,1.622,0,0,0-.809,1.456c0,.863.475,1.295,1.431,1.295a3.367,3.367,0,0,0,1.823-.455,1.534,1.534,0,0,0,.729-1.394m2.946-9.544-.3,1.452a1.953,1.953,0,0,0-1.417.353l-.006.1a2.223,2.223,0,0,1,.338,1.176,2.491,2.491,0,0,1-.964,2.088,3.718,3.718,0,0,1-2.338.747,4.389,4.389,0,0,1-1.17-.126.928.928,0,0,0-.367.7.5.5,0,0,0,.323.52,11.909,11.909,0,0,0,2.479.13q2.282,0,2.282,1.782a3.125,3.125,0,0,1-1.324,2.632,5.179,5.179,0,0,1-3.183.987,3.88,3.88,0,0,1-2.185-.494,1.689,1.689,0,0,1-.721-1.491,2.346,2.346,0,0,1,1.437-2.126l.006-.118a1.137,1.137,0,0,1-.478-1.03,2.233,2.233,0,0,1,.962-1.673l.011-.109a1.962,1.962,0,0,1-.712-.74,2.126,2.126,0,0,1-.3-1.114,2.4,2.4,0,0,1,1.031-2.116,4.232,4.232,0,0,1,2.46-.707,3.009,3.009,0,0,1,1.807.535h.091c.244-1.029.729-1.541,1.452-1.541a1.623,1.623,0,0,1,.789.18" transform="translate(-187.964 -79.789)" fill="#006cb7" /><path d="M391.743,152.878q0-.761-1.118-.759a1.815,1.815,0,0,0-1.205.489,2.324,2.324,0,0,0-.741,1.4q3.061-.064,3.064-1.133m1.667-.156q0,2.328-4.8,2.422a2.63,2.63,0,0,0,.369,1.545,1.474,1.474,0,0,0,1.279.513,5.09,5.09,0,0,0,2.567-.808l-.23,1.551a4.7,4.7,0,0,1-2.829.81,2.667,2.667,0,0,1-2.261-.955,4.1,4.1,0,0,1-.732-2.538A4.446,4.446,0,0,1,388,151.99a3.967,3.967,0,0,1,2.9-1.232,2.933,2.933,0,0,1,1.819.5,1.715,1.715,0,0,1,.687,1.461" transform="translate(-187.807 -79.774)" fill="#006cb7" /><path d="M397.885,156.92a1.653,1.653,0,0,1-.427,1.136,1.394,1.394,0,0,1-1.073.469.916.916,0,0,1-.746-.321,1.229,1.229,0,0,1-.257-.793,1.552,1.552,0,0,1,.43-1.115,1.414,1.414,0,0,1,1.065-.454q1.009,0,1.008,1.077" transform="translate(-187.667 -79.692)" fill="#006cb7" /><path d="M242.877,120.324l-.135,3.253q-4.632-.241-8.39-.238.194,2.533.193,5.625,2.869,0,6.506-.147v3.074q-3.687-.133-6.506-.133,0,4.2.133,7.9h-4.1q.191-4.486.192-10.111,0-5.4-.192-9.221Z" transform="translate(-190.341 -80.268)" fill="#ed1c24" /><path d="M253.559,131.268a84.76,84.76,0,0,1-2.542-8.285h-.237q0,.578-2.625,8.285Zm6.86,8.389h-4.752a31.443,31.443,0,0,0-1.352-5.556h-6.86a28.743,28.743,0,0,0-1.4,5.556h-4.468q0-.579,3.464-9.5t3.469-9.831h5.612q0,.841,3.14,9.686t3.141,9.647" transform="translate(-190.163 -80.268)" fill="#ed1c24" /><path d="M274.35,136.42l-.116,3.237H261.891q.177-4.029.179-10.111,0-5.584-.179-9.221h4.172q-.172,3.373-.174,9.221,0,4.466-.2,7.1,4.1,0,8.658-.224" transform="translate(-189.833 -80.268)" fill="#ed1c24" /><path d="M289.048,134.393q0,5.8-8.345,5.8a19.527,19.527,0,0,1-5.27-.681l.725-3.314a13.924,13.924,0,0,0,4.546.83,9.183,9.183,0,0,0,3.415-.458,1.58,1.58,0,0,0,1.04-1.546,2.339,2.339,0,0,0-.98-1.9,16.424,16.424,0,0,0-3.431-1.779,10.782,10.782,0,0,1-3.491-2.2,5.129,5.129,0,0,1-1.439-3.7,4.739,4.739,0,0,1,1.892-3.994,8.855,8.855,0,0,1,5.445-1.442,20.883,20.883,0,0,1,4.886.49l-.553,3.3a12.6,12.6,0,0,0-4.333-.729q-3.508,0-3.506,1.87a1.951,1.951,0,0,0,.815,1.62,16.5,16.5,0,0,0,3.1,1.5,11.823,11.823,0,0,1,3.806,2.257,5.506,5.506,0,0,1,1.676,4.072" transform="translate(-189.613 -80.273)" fill="#ed1c24" /><path d="M304.27,136.391l-.12,3.265H291.517q.188-4.48.191-10.11,0-5.405-.191-9.223h12.057l-.165,3.255q-4.457-.241-8.077-.238.146,2.062.145,4.871,3.107,0,6.639-.165v3.1q-3.474-.146-6.639-.146c0,2.005.043,3.888.122,5.638q4.068,0,8.67-.25" transform="translate(-189.352 -80.268)" fill="#ed1c24" /><path d="M324.67,134q0-2.948-5.185-2.954c-.683,0-1.274.027-1.768.077q0,3.1.133,5.716a7.169,7.169,0,0,0,1.519.119,9.186,9.186,0,0,0,4.021-.661,2.372,2.372,0,0,0,1.279-2.3m-1.087-8.314q0-2.654-3.325-2.655a14.837,14.837,0,0,0-2.716.222q.16,1.5.162,5.152c.378.019.775.027,1.189.027,3.128,0,4.691-.911,4.691-2.746m5.092,8.154q0,5.91-9.664,5.908-1.677,0-5.226-.089.191-4.48.191-10.11,0-5.4-.191-9.221h2.407c.453,0,1.217-.014,2.289-.049s1.914-.041,2.517-.041q6.579,0,6.582,4.278a4.276,4.276,0,0,1-3.372,4.365v.222a6.313,6.313,0,0,1,3.132,1.4,4.121,4.121,0,0,1,1.335,3.338" transform="translate(-188.991 -80.27)" fill="#ed1c24" /><path d="M340.979,131.268a83.216,83.216,0,0,1-2.541-8.285H338.2q0,.578-2.628,8.285Zm6.859,8.389h-4.753a31.5,31.5,0,0,0-1.351-5.556h-6.859a28.7,28.7,0,0,0-1.4,5.556H329.01q0-.579,3.465-9.5t3.469-9.831h5.612q0,.841,3.142,9.686t3.139,9.647" transform="translate(-188.744 -80.268)" fill="#ed1c24" /><path d="M362.3,120.324a10.844,10.844,0,0,1-1.694,3.279q-2.6,4.088-3.163,5.083a10.719,10.719,0,0,0-1.691,4.465c0,2.18.059,4.344.179,6.5h-4.218q.165-3.251.164-6.549a11.7,11.7,0,0,0-1.56-4.588q-.726-1.427-2.909-5.092a12.317,12.317,0,0,1-1.558-3.1h4.66a24.524,24.524,0,0,0,1.867,4.507q1.861,3.971,1.863,5.129h.236q0-1.069,1.819-4.871t1.818-4.765Z" transform="translate(-188.471 -80.268)" fill="#ed1c24" /><path d="M384.648,136.143l-.253,3.411a17.672,17.672,0,0,1-4.157.508q-5.094,0-7.76-2.815a9.582,9.582,0,0,1-2.665-6.839,10.422,10.422,0,0,1,2.83-7.263,10.008,10.008,0,0,1,7.758-3.084,13.876,13.876,0,0,1,3.431.415l-.519,3.431a10.927,10.927,0,0,0-3.356-.565,5.309,5.309,0,0,0-4.487,1.907,7.385,7.385,0,0,0-1.468,4.64,7.214,7.214,0,0,0,1.746,4.843,6.073,6.073,0,0,0,4.89,2.049,14.323,14.323,0,0,0,4.01-.638" transform="translate(-188.082 -80.272)" fill="#ed1c24" /><path d="M400.12,130.072a7.66,7.66,0,0,0-1.588-5.032,4.895,4.895,0,0,0-3.923-1.932,4.529,4.529,0,0,0-3.681,1.945,7.762,7.762,0,0,0-1.513,4.914,7.64,7.64,0,0,0,1.594,5.026,4.892,4.892,0,0,0,3.911,1.939,4.531,4.531,0,0,0,3.685-1.953,7.772,7.772,0,0,0,1.514-4.907m4.1-.431a10.662,10.662,0,0,1-2.793,7.56,9.057,9.057,0,0,1-6.905,3,8.726,8.726,0,0,1-6.563-2.754,9.706,9.706,0,0,1-2.641-7,10.661,10.661,0,0,1,2.791-7.558,9.054,9.054,0,0,1,6.9-3,8.74,8.74,0,0,1,6.564,2.747,9.7,9.7,0,0,1,2.644,7.009" transform="translate(-187.83 -80.275)" fill="#ed1c24" /><path d="M419.065,136.42l-.121,3.237H406.605q.177-4.029.178-10.111,0-5.584-.178-9.221h4.172q-.178,3.373-.178,9.221,0,4.466-.192,7.1,4.1,0,8.658-.224" transform="translate(-187.485 -80.268)" fill="#ed1c24" /><path d="M433.054,136.42l-.12,3.237H420.6q.178-4.029.178-10.111,0-5.584-.178-9.221h4.172q-.178,3.373-.18,9.221,0,4.466-.192,7.1,4.1,0,8.657-.224" transform="translate(-187.258 -80.268)" fill="#ed1c24" /><path d="M447.342,136.391l-.119,3.265H434.586q.2-4.48.194-10.11,0-5.405-.194-9.223h12.058l-.164,3.255q-4.456-.241-8.075-.238.146,2.062.146,4.871,3.1,0,6.637-.165v3.1q-3.477-.146-6.637-.146c0,2.005.04,3.888.12,5.638q4.068,0,8.67-.25" transform="translate(-187.031 -80.268)" fill="#ed1c24" /><path d="M464.71,139.155a24.578,24.578,0,0,1-5.91.907q-5.113,0-7.746-2.8a9.55,9.55,0,0,1-2.634-6.79,10.231,10.231,0,0,1,10.838-10.409,18.712,18.712,0,0,1,4.217.428l-.49,3.509a16.607,16.607,0,0,0-4.186-.612,5.641,5.641,0,0,0-4.679,1.923,7.269,7.269,0,0,0-1.547,4.7,7.574,7.574,0,0,0,1.733,4.945,5.84,5.84,0,0,0,4.774,2.109,12.462,12.462,0,0,0,1.96-.178,24.034,24.034,0,0,1-.221-3.237,23.8,23.8,0,0,0-.315-3.61h4.205q-.124,2.29-.121,4.6,0,1.678.121,4.513" transform="translate(-186.806 -80.272)" fill="#ed1c24" /><path d="M480.34,136.391l-.121,3.265H467.583q.192-4.48.192-10.11,0-5.405-.192-9.223H479.64l-.161,3.255q-4.456-.241-8.079-.238.146,2.062.145,4.871,3.105,0,6.639-.165v3.1Q474.71,131,471.545,131c0,2.005.042,3.888.12,5.638q4.068,0,8.674-.25" transform="translate(-186.495 -80.268)" fill="#ed1c24" /><path d="M242.478,110.326c-12.4-18.551-24.941-29.97-34.5-29.4,0-.005,0-.009-.006-.011-.065.006-.127.017-.192.024a10.4,10.4,0,0,0-2.686.56c-10.694,3.526-10.483,20.605-10.483,20.605h0c-.016,1.171.018,2.389.107,3.7a107.22,107.22,0,0,0,4.841,27.208c-1.453.959-2.955,1.867-4.56,2.771-1.341.8-.061,3.869,2.891,2.348a29.5,29.5,0,0,0,2.852-1.691c.052.142.331.859.382,1-1.731,1.07-3.572,2.122-5.529,3.136-1.383.726-.278,4.02,2.745,2.608a31.892,31.892,0,0,0,4.134-2.375c.088.215.415.982.513,1.2a66.557,66.557,0,0,1-6.134,3.324c-1.4.686-.959,4.417,2.085,3.084a31.336,31.336,0,0,0,5.513-3.182,100.614,100.614,0,0,0,22.415,29.8c-7.818-12.614-12.912-23.688-16.176-34.175,8.277-7.832,14.47-16.473,15.039-24.793-3.687,8.914-7.432,14.571-16,21.539-.114-.432-.3-1.126-.426-1.533,8.3-7.688,14.546-16.13,14.876-24.673-3.432,8.99-7.173,14.467-15.671,21.448-.089-.359-.237-1.121-.307-1.475,8.181-7.844,14.331-16.557,14.605-25.278-2.948,9.283-6.722,14.764-15.279,22.005a78.762,78.762,0,0,1-1.394-12.67c-.585-23.856,13.9-30.591,36.346-5.1" transform="translate(-190.927 -80.908)" fill="#006cb7" /><path d="M240.367,111.965c-.077-.161-.157-.322-.24-.485-.065-.127-.136-.253-.2-.377-.035-.069-.069-.132-.11-.2-.068-.125-.139-.246-.209-.373-.039-.06-.077-.121-.116-.185q-.378-.622-.806-1.231c-.037-.054-.074-.112-.115-.165-.086-.117-.171-.237-.258-.358l-.138-.18c-.087-.119-.175-.234-.264-.349-.039-.051-.081-.1-.12-.147-.176-.227-.356-.446-.541-.665-.044-.052-.083-.1-.129-.154-.091-.106-.182-.214-.274-.318-.056-.064-.112-.132-.171-.194-.089-.1-.181-.2-.273-.306l-.171-.19c-.19-.2-.383-.409-.577-.606-.03-.036-.065-.071-.1-.107l-.281-.29c-.061-.061-.124-.123-.184-.181-.092-.095-.184-.185-.279-.279-.058-.054-.114-.11-.172-.167l-.3-.284h0a51.1,51.1,0,0,0-5.876-4.767h0c-.03-.021-.693-.439-.693-.439a39.72,39.72,0,0,0-4.988-2.546c-4.237-1.624-7.82-1.585-10.649-.1,6.477-1.946,16.156,2.57,28.116,15.5.106.134.166.213.166.213a.482.482,0,0,0-.042-.082m-35.212,38.812c-.569-1.049-1.1-2.1-1.611-3.153-.549.335-1.072.624-1.564.916.472.984.968,1.945,1.487,2.919A104.651,104.651,0,0,0,225.789,179c-1.114-1.719-2.218-3.541-3.294-5.383a101.3,101.3,0,0,1-17.341-22.842m-4.069-67.448h0Zm-10.1,21.327c.009,1.2.064,2.457.184,3.8a122.191,122.191,0,0,0,4.335,23.786q.239.744.546,1.683c.529-.329,1.086-.678,1.506-.944a.034.034,0,0,0-.005-.02c-.048-.151-.1-.3-.139-.45a.134.134,0,0,1-.015-.037c-.04-.137-.083-.273-.126-.416a.4.4,0,0,0-.019-.063c-.04-.128-.076-.255-.115-.383-.011-.026-.015-.057-.027-.084l-.107-.36c-.007-.034-.017-.069-.026-.1-.036-.113-.071-.229-.1-.341-.013-.039-.023-.073-.033-.112-.033-.112-.062-.221-.1-.333-.009-.039-.02-.079-.033-.116-.028-.108-.06-.217-.091-.324-.012-.043-.019-.083-.03-.126-.033-.1-.062-.21-.091-.318-.009-.04-.02-.08-.032-.123-.027-.107-.057-.213-.087-.315a.976.976,0,0,0-.03-.128c-.028-.106-.055-.209-.083-.312-.011-.044-.021-.087-.035-.128-.028-.106-.052-.207-.079-.31-.009-.045-.02-.084-.033-.126-.026-.11-.05-.21-.078-.314-.012-.042-.022-.086-.032-.124-.023-.106-.052-.21-.077-.312a1.262,1.262,0,0,1-.028-.124c-.027-.107-.053-.208-.078-.314-.011-.04-.02-.082-.029-.121-.023-.1-.047-.21-.074-.312-.008-.044-.017-.082-.027-.12-.025-.106-.048-.208-.073-.316-.009-.04-.017-.078-.028-.117-.021-.107-.048-.21-.072-.317-.007-.035-.017-.077-.026-.115-.02-.1-.045-.21-.068-.317-.007-.036-.017-.079-.026-.113-.019-.107-.045-.213-.068-.317-.009-.037-.014-.077-.023-.114-.022-.107-.047-.214-.068-.321-.007-.036-.018-.071-.022-.1-.025-.109-.044-.221-.07-.326-.005-.036-.013-.067-.02-.1-.019-.108-.043-.218-.065-.328-.006-.029-.015-.065-.02-.1-.021-.11-.043-.22-.067-.333a.448.448,0,0,0-.017-.089c-.02-.115-.043-.229-.064-.341a.728.728,0,0,1-.015-.084c-.023-.116-.045-.232-.068-.347-.006-.025-.009-.052-.013-.075-.021-.119-.045-.237-.064-.358a.513.513,0,0,1-.014-.066c-.02-.122-.045-.241-.064-.362a.54.54,0,0,0-.012-.061c-.022-.122-.043-.248-.063-.371a.149.149,0,0,1-.009-.051c-.022-.127-.042-.254-.065-.38,0-.013,0-.025-.008-.044-.023-.128-.044-.259-.063-.39,0-.009-.006-.018-.006-.028-.023-.134-.045-.27-.065-.4l0-.016c-.02-.141-.045-.28-.066-.42-.65-4.173-1.032-8.263-1.312-12.384-.09-1.306-.123-2.526-.109-3.7h0a36.554,36.554,0,0,1,.666-6.545c.016-.07.031-.142.045-.211l0,0c.012-.07.024-.144.042-.213h0c.015-.074.028-.145.042-.216h0c.015-.073.032-.144.048-.215v-.006c.016-.07.035-.14.051-.215v0c.016-.074.032-.144.05-.22h0c.017-.074.036-.148.051-.219v0c.215-.888.475-1.8.791-2.719h0c.027-.072.052-.148.077-.228v0c.027-.072.057-.147.084-.225v0c.028-.072.057-.147.081-.225l.006,0c.026-.072.054-.148.083-.224v0c.031-.073.062-.148.09-.224h0c.03-.076.06-.151.092-.226v0c.034-.072.063-.146.1-.224h0l.095-.223v0a14.9,14.9,0,0,1,5.5-6.829h0c.071-.043.145-.09.216-.131v0c-9.452,3.994-10.063,18.95-10.1,21.327" transform="translate(-190.984 -80.868)" fill="#ed1c24" /></svg> 

