<svg xmlns="http://www.w3.org/2000/svg" width="180" height="45" viewBox="0 0 180 45"><defs><linearGradient id="iosk4x4s5a" x1="31.433%" x2="54.621%" y1="-6.096%" y2="92.156%"><stop offset="0%" stop-color="#006884" /><stop offset="100%" stop-color="#8AD1D0" /></linearGradient><linearGradient id="zrqjy33jrb" x1="-7.528%" x2="91.537%" y1="30.916%" y2="70.204%"><stop offset="0%" stop-color="#24BBB6" /><stop offset="100%" stop-color="#DBE692" /></linearGradient><linearGradient id="58bxd3jf9c" x1="49.94%" x2="49.94%" y1="105.755%" y2="-3.127%"><stop offset="0%" stop-color="#FCC072" /><stop offset="100%" stop-color="#F58A5B" /></linearGradient><linearGradient id="ycvt0vyasd" x1="11.149%" x2="90.437%" y1="88.149%" y2="28.688%"><stop offset="0%" stop-color="#712B8F" /><stop offset="100%" stop-color="#EA1D27" /></linearGradient></defs><g fill="none" fill-rule="evenodd"><path fill="url(#iosk4x4s5a)" d="M.49 20.072V3.19c0-.965.82-1.77 1.637-1.77.818 0 1.146.162 1.637.483l31.581 17.045c.655.321.982.804.982 1.286s-.327.965-.982 1.286L3.764 38.564c-.328.16-.819.482-1.637.482-.818 0-1.636-.804-1.636-1.769V20.072z" /><path fill="url(#zrqjy33jrb)" d="M20.945 20.233L1.8 1.42h.327c.818 0 1.146.16 1.637.482L27 14.444l-6.055 5.789z" /><path fill="url(#58bxd3jf9c)" d="M26.836 25.86l-5.89-5.788L27 14.122l8.345 4.503c.655.322.982.804.982 1.286 0 .483-.327.965-.982 1.287l-8.509 4.663z" /><path fill="url(#ycvt0vyasd)" d="M1.964 38.724l18.981-18.652 5.891 5.789L3.764 38.242c-.491.322-.819.482-1.8.482.163 0 .163 0 0 0z" /><path fill="#6F6F6F" d="M100.8 43.066c-.818-.643-1.473-1.769-1.8-2.412l2.618-1.126c.164.322.491.804.818 1.287.655.643 1.637 1.286 2.619 1.286.981 0 2.127-.482 2.781-1.286.491-.804.819-1.608.819-2.734v-.965c-1.964 2.412-6.055 2.09-8.346-.482-2.454-2.573-2.454-6.914 0-9.487 2.455-2.412 6.055-2.733 8.182-.482v-1.126h2.782V37.6c0 3.055-1.146 4.824-2.618 5.95-.982.803-2.455 1.125-3.764 1.125-1.473-.161-2.946-.643-4.091-1.608zm68.564.643l2.781-6.432-4.909-11.095h2.782l3.437 7.88 3.436-7.88h2.782l-7.528 17.527h-2.781zm-13.255-6.11c-.818-.804-1.145-1.93-1.145-3.055 0-.965.327-1.93.981-2.573 1.146-1.126 2.782-1.608 4.582-1.608 1.146 0 2.128.16 2.946.643 0-1.93-1.637-2.733-2.946-2.733-1.145 0-2.29.643-2.782 1.768l-2.454-.964c.49-1.126 1.8-3.216 5.073-3.216 1.636 0 3.272.482 4.254 1.608.982 1.125 1.31 2.412 1.31 4.18v6.754h-2.783v-1.126c-.327.483-.981.804-1.472 1.126-.655.321-1.473.482-2.291.482-.982-.16-2.455-.482-3.273-1.286zM68.891 31.81c0-3.216 2.454-6.753 6.873-6.753 4.254 0 6.872 3.537 6.872 6.753s-2.454 6.754-6.872 6.754c-4.419 0-6.873-3.538-6.873-6.754zm14.727 0c0-3.216 2.455-6.753 6.873-6.753 4.254 0 6.873 3.537 6.873 6.753s-2.455 6.754-6.873 6.754c-4.255 0-6.873-3.538-6.873-6.754zM50.4 35.348c-4.09-4.02-3.927-10.613.164-14.794 2.127-2.09 4.745-3.055 7.527-3.055 2.618 0 5.236.965 7.2 2.895l-1.964 2.09c-2.945-2.894-7.69-2.733-10.472.16-2.946 3.056-2.946 7.719 0 10.774 2.945 3.055 7.854 3.216 10.8.16.981-.964 1.309-2.25 1.472-3.537h-6.872v-2.894h9.654c.164.643.164 1.447.164 2.251 0 2.412-.982 4.824-2.618 6.432-1.8 1.769-4.419 2.734-7.037 2.734-2.945-.161-5.89-1.126-8.018-3.216zm69.218 1.125c-2.454-2.572-2.454-6.914 0-9.647 2.455-2.573 6.546-2.573 8.837 0 .818.803 1.309 1.93 1.8 3.055l-9 3.698c.49 1.126 1.636 2.09 3.272 2.09 1.473 0 2.455-.482 3.437-1.93l2.454 1.609c-.327.321-.654.643-.818.964-2.782 2.734-7.527 2.734-9.982.161zm17.018 1.93V20.554h5.891c3.437 0 6.218 2.412 6.218 5.307 0 2.894-2.454 5.306-5.563 5.306h-3.6v7.075h-2.946v.16zm13.746 0V20.554h2.782v17.849h-2.782zM113.4 38.08V18.143h2.945V38.08H113.4zm49.91-4.984c-.655-.483-1.637-.644-2.62-.644-1.963 0-3.108.965-3.108 2.09 0 1.126 1.145 1.77 2.29 1.77 1.637 0 3.437-1.287 3.437-3.216zM79.526 31.81c0-1.93-1.309-4.02-3.763-4.02-2.455 0-3.764 2.09-3.764 4.02 0 1.93 1.31 4.02 3.764 4.02 2.29 0 3.763-2.09 3.763-4.02zm14.728 0c0-1.93-1.31-4.02-3.764-4.02-2.455 0-3.764 2.09-3.764 4.02 0 1.93 1.31 4.02 3.764 4.02 2.454 0 3.764-2.09 3.764-4.02zm14.563 1.126c0-.161 0-.322.164-.483v-.643-.643-.16c0-.162-.164-.483-.164-.644-.49-1.608-1.963-2.734-3.436-2.734-1.964 0-3.6 1.93-3.6 4.02 0 2.252 1.636 4.02 3.763 4.02 1.31.161 2.619-.964 3.273-2.733zm11.946-1.447l6.054-2.573c-.654-1.126-1.636-1.447-2.454-1.447-2.455.16-3.928 2.733-3.6 4.02zm25.036-5.467c0-1.608-1.31-2.734-3.11-2.734h-3.272v5.628h3.437c1.636 0 2.945-1.287 2.945-2.894z" /><path fill="#FFF" d="M171.491 40.493L171.491 40.493 171.327 40.493 171.327 40.493 171.327 40.332 171.327 40.332 171.491 40.332 171.491 40.332 171.327 40.332 171.327 40.332 171.327 40.493 171.327 40.493zM171.49 40.493c0-.16 0-.16 0 0 0-.16 0-.16 0 0zM171.491 40.493L171.491 40.493 171.491 40.332 171.491 40.332 171.491 40.332 171.491 40.332 171.491 40.332 171.491 40.332 171.491 40.332 171.491 40.332 171.491 40.493zM171.491 40.332L171.491 40.332 171.491 40.332 171.491 40.332 171.491 40.493 171.491 40.493 171.491 40.332zM171.491 40.493L171.491 40.493 171.491 40.332 171.491 40.332 171.491 40.332 171.491 40.332 171.491 40.332 171.491 40.332 171.491 40.332 171.491 40.332 171.491 40.493zM171.49 40.493c0-.16 0-.16 0 0zm0 0c0-.16 0-.16 0 0zM171.655 40.493c0-.16 0-.16 0 0 0-.16 0-.16 0 0 0-.16 0-.16 0 0zm0 0c0-.16 0-.16 0 0zM171.655 40.332L171.655 40.332 171.655 40.332 171.655 40.332 171.655 40.332 171.655 40.332 171.655 40.332 171.655 40.332 171.655 40.493 171.655 40.493zM171.655 40.493L171.655 40.493 171.655 40.332 171.655 40.332 171.655 40.493zM171.655 40.493c0-.16 0-.16 0 0 0-.16 0-.16 0 0zm0-.16c0 .16 0 .16 0 0 0 .16 0 .16 0 0zM171.655 40.493c0-.16 0-.16 0 0 0-.16 0-.16 0 0 0-.16 0-.16 0 0 0-.16 0-.16 0 0zM171.818 40.493c0-.16 0-.16 0 0-.163-.16-.163-.16 0 0-.163 0-.163 0 0 0zm0-.16c0 .16 0 .16 0 0 0 .16-.163.16 0 0-.163 0 0 0 0 0zM171.818 40.493L171.818 40.332 171.818 40.332 171.818 40.332 171.818 40.332 171.818 40.332 171.818 40.493 171.818 40.493 171.818 40.332 171.818 40.332 171.818 40.493 171.818 40.493 171.818 40.332 171.818 40.332zM171.818 40.493c0-.16 0-.16 0 0 0-.16 0-.16 0 0 0-.16 0-.16 0 0 0-.16 0-.16 0 0 0-.16 0-.16 0 0 0-.16 0-.16 0 0 0-.16 0-.16 0 0 0-.16 0-.16 0 0zM171.982 40.332L171.818 40.332 171.818 40.332 171.982 40.332 171.982 40.493 171.982 40.493 171.982 40.332zM171.982 40.493L171.982 40.493 171.982 40.332 171.982 40.332 171.982 40.332 171.982 40.332 171.982 40.332 171.982 40.332 171.982 40.332 171.982 40.332 171.982 40.493zM171.982 40.493c0-.16 0-.16 0 0 0-.16 0-.16 0 0z" /><path fill="#6F6F6F" fill-rule="nonzero" d="M48.11 4.797c0-2.895 2.126-4.664 4.745-4.664 1.8 0 2.945.804 3.763 1.93l-1.309.804c-.49-.643-1.309-1.126-2.454-1.126-1.8 0-3.11 1.287-3.11 3.216 0 1.93 1.31 3.216 3.11 3.216.981 0 1.8-.482 2.127-.804V5.922h-2.618V4.475h4.418v3.377c-.818.964-2.127 1.608-3.764 1.608-2.782 0-4.909-1.93-4.909-4.663zM58.745 9.299L58.745.294 64.964.294 64.964 1.741 60.218 1.741 60.218 3.993 64.8 3.993 64.8 5.44 60.218 5.44 60.218 8.012 64.964 8.012 64.964 9.46zM69.545 9.299L69.545 1.741 66.764 1.741 66.764.294 73.964.294 73.964 1.741 71.182 1.741 71.182 9.299zM79.527 9.299V.294h1.637V9.3h-1.637zM85.582 9.299L85.582 1.741 82.8 1.741 82.8.294 90 .294 90 1.741 87.218 1.741 87.218 9.299zM95.236 4.797c0-2.734 1.964-4.664 4.746-4.664 2.782 0 4.745 1.93 4.745 4.664 0 2.733-1.963 4.663-4.745 4.663s-4.746-2.09-4.746-4.663zm7.691 0c0-1.93-1.145-3.216-3.109-3.216-1.8 0-3.109 1.447-3.109 3.216 0 1.929 1.146 3.215 3.11 3.215 1.963 0 3.108-1.447 3.108-3.215zM112.909 9.299L108.164 2.867 108.164 9.299 106.527 9.299 106.527.294 108.164.294 112.909 6.565 112.909.294 114.545.294 114.545 9.299z" /></g></svg>

