<svg xmlns="http://www.w3.org/2000/svg" id="Layer_1" viewBox="0 0 341.23 147.36"><path d="M138.98,66.21l-2.32-2.79c-.2.21-.54.5-1.03.9l-.03.03c-.68.58-1.51,1.07-2.5,1.48-.99.41-1.93.62-2.8.62-1.38,0-2.55-.46-3.51-1.38-.96-.92-1.44-2.04-1.44-3.37,0-.96.24-1.82.71-2.59.47-.77,1.24-1.55,2.3-2.35l.04-.04c.63-.48,1.17-.84,1.63-1.1-1.5-1.65-2.25-3.23-2.25-4.74,0-1.39.46-2.53,1.38-3.39.92-.87,2.12-1.3,3.59-1.3s2.63.42,3.56,1.27c.93.85,1.4,1.93,1.4,3.25,0,1.79-1.16,3.52-3.49,5.21l-.2.16,2.81,3.28c.82-.92,1.53-2.01,2.14-3.29h2.85c-.69,1.82-1.77,3.6-3.24,5.36l4.04,4.79h-3.63ZM134.25,61.98l.64-.6-3.24-3.83-1.25.91c-1.48,1.02-2.23,2.06-2.23,3.12,0,.58.24,1.07.73,1.48.48.41,1.07.61,1.75.61.53,0,1.13-.16,1.8-.47.67-.31,1.27-.72,1.79-1.22M132.4,54.1l1.09-.79c1.01-.73,1.52-1.58,1.52-2.55,0-.6-.21-1.09-.63-1.5-.42-.4-.96-.6-1.6-.6s-1.15.19-1.55.56c-.41.37-.61.83-.61,1.39s.16,1.12.48,1.75c.32.63.76,1.21,1.31,1.74" /><path d="M150.86,54.89l4.88-4.91v2.78h4.15v2.4h-4.15v6.6c0,1.54.62,2.31,1.87,2.31.93,0,1.92-.32,2.95-.97v2.49c-1,.58-2.09.86-3.26.86s-2.18-.36-2.96-1.07c-.25-.21-.45-.46-.61-.72-.16-.27-.3-.62-.41-1.05-.11-.43-.16-1.26-.16-2.48v-5.97h-2.28v-.26Z" /><path d="M164.15,52.75v3.09l.14-.23c1.25-2.08,2.51-3.11,3.76-3.11.98,0,2,.51,3.07,1.52l-1.37,2.34c-.9-.88-1.74-1.32-2.51-1.32-.84,0-1.56.41-2.17,1.23-.61.82-.92,1.79-.92,2.91v7.03h-2.61v-13.45h2.61Z" /><path d="M180.12,58.12v5.72c0,.46.15.69.46.69s.8-.24,1.47-.72v1.62c-.59.39-1.06.66-1.42.8-.36.14-.73.21-1.12.21-1.11,0-1.77-.45-1.97-1.35-1.1.88-2.28,1.32-3.52,1.32-.91,0-1.67-.31-2.28-.93-.61-.62-.91-1.4-.91-2.33,0-.85.3-1.61.89-2.27.59-.67,1.44-1.2,2.53-1.59l3.32-1.17v-.72c0-1.62-.79-2.43-2.37-2.43-1.42,0-2.79.75-4.13,2.25v-2.91c1.01-1.22,2.46-1.83,4.35-1.83,1.42,0,2.55.38,3.41,1.14.29.24.54.57.77.97.23.4.37.81.44,1.21.06.4.09,1.17.09,2.3M177.57,63.54v-3.99l-1.74.69c-.88.36-1.51.72-1.87,1.09-.37.37-.55.82-.55,1.37s.17,1.01.52,1.36c.35.35.8.53,1.35.53.83,0,1.59-.35,2.3-1.04" /><path d="M184.63,47.09c.43,0,.79.15,1.1.45.3.3.46.67.46,1.11s-.15.8-.46,1.11c-.3.31-.67.47-1.1.47-.4,0-.75-.16-1.06-.48-.3-.32-.46-.68-.46-1.1s.15-.77.46-1.09c.3-.32.66-.48,1.06-.48M183.35,52.75h2.59v13.45h-2.59v-13.45Z" /><path d="M191.23,52.75v1.71c1.16-1.32,2.48-1.97,3.95-1.97.82,0,1.58.22,2.28.65.7.43,1.24,1.03,1.6,1.78.37.76.55,1.95.55,3.59v7.69h-2.59v-7.66c0-1.37-.2-2.36-.61-2.95-.41-.59-1.09-.88-2.05-.88-1.23,0-2.27.63-3.12,1.89v9.61h-2.65v-13.45h2.65Z" /><path d="M203.52,47.09c.43,0,.79.15,1.1.45.3.3.46.67.46,1.11s-.15.8-.46,1.11c-.3.31-.67.47-1.1.47-.4,0-.75-.16-1.05-.48-.3-.32-.46-.68-.46-1.1s.15-.77.46-1.09c.3-.32.66-.48,1.05-.48M202.24,52.75h2.59v13.45h-2.59v-13.45Z" /><path d="M210.12,52.75v1.71c1.16-1.32,2.48-1.97,3.95-1.97.82,0,1.58.22,2.28.65.7.43,1.24,1.03,1.6,1.78.37.76.55,1.95.55,3.59v7.69h-2.59v-7.66c0-1.37-.2-2.36-.61-2.95-.41-.59-1.09-.88-2.05-.88-1.23,0-2.27.63-3.12,1.89v9.61h-2.65v-13.45h2.65Z" /><path d="M220.41,57.4c0-1.43.51-2.57,1.53-3.4,1.02-.83,2.42-1.25,4.18-1.25h5.4v2.08h-2.65c.51.54.87,1.02,1.07,1.46.2.44.3.94.3,1.51,0,.7-.19,1.39-.58,2.07-.39.68-.89,1.2-1.5,1.56-.61.36-1.62.65-3.01.86-.98.15-1.47.49-1.47,1.04,0,.31.18.57.55.77.37.2,1.03.41,1.99.62,1.61.36,2.64.64,3.1.85.46.21.88.5,1.25.88.63.64.94,1.45.94,2.43,0,1.28-.55,2.3-1.66,3.06-1.11.76-2.59,1.14-4.44,1.14s-3.37-.38-4.48-1.15c-1.12-.77-1.68-1.79-1.68-3.08,0-1.82,1.1-3,3.29-3.52-.87-.58-1.31-1.15-1.31-1.71,0-.43.19-.82.56-1.17.38-.35.88-.61,1.52-.77-1.93-.88-2.89-2.3-2.89-4.26M224.67,66.83c-.87,0-1.59.19-2.15.57-.56.38-.83.87-.83,1.46,0,1.38,1.22,2.08,3.65,2.08,1.15,0,2.04-.17,2.67-.52.63-.35.95-.84.95-1.47s-.4-1.13-1.2-1.53c-.8-.39-1.83-.59-3.09-.59M225.28,55.06c-.7,0-1.3.24-1.8.73-.49.49-.74,1.07-.74,1.76s.24,1.26.73,1.72c.49.45,1.1.68,1.84.68s1.34-.23,1.83-.69c.49-.46.73-1.04.73-1.73s-.25-1.29-.74-1.75c-.49-.47-1.11-.7-1.85-.7" /><path d="M75.95,89.51c.13-.04.19-.06.33-.13.42-.21.81-.55.7-.74-.11-.18-.94-.13-1.08.82-.01.03.02.05.05.05M72.28,89.28c-.06-.02-.11-.03-.17-.05-.54-.14-1.16-.16-1.24.1-.06.21.36.49.9.63.15.04.3.07.43.09.02,0,.04-.01.04-.03.01-.12.05-.57.07-.69,0-.03-.01-.04-.02-.04" fill="#fff" /><path d="M59.3,89.51c-.13-.04-.19-.06-.33-.13-.43-.21-.81-.55-.7-.74.1-.18.93-.13,1.08.82.01.03-.02.05-.05.05M62.97,89.28c.06-.02.11-.03.17-.05.54-.14,1.16-.16,1.24.1.06.21-.36.49-.9.63-.15.04-.3.07-.43.09-.02,0-.03-.01-.04-.03-.01-.12-.05-.57-.07-.69,0-.03.02-.04.03-.04" fill="#fff" /><polygon points="56.99 39 62.8 36.85 63.67 34.54 45.93 34.7 56.99 39" fill="#faa819" /><polygon points="59.73 37.6 63.67 34.54 45.93 34.7 59.73 37.6" fill="#f47e20" /><polygon points="61.52 37.13 68.84 36.54 70.9 35.62 59.21 23.38 61.52 37.13" fill="#faa819" /><polygon points="65.73 36.71 70.9 35.62 59.21 23.38 65.73 36.71" fill="#f47e20" /><polygon points="59.71 37.89 67.67 36.07 68.64 35.35 50.9 27.09 59.71 37.89" fill="#faa819" /><polygon points="63.95 36.84 68.73 35.34 50.9 27.09 63.95 36.84" fill="#f47e20" /><polygon points="78.21 39 72.4 36.85 71.53 34.54 89.33 34.7 78.21 39" fill="#f47e20" /><polygon points="75.47 37.6 71.53 34.54 89.33 34.7 75.47 37.6" fill="#faa819" /><polygon points="73.68 37.13 66.36 36.54 64.31 35.62 75.99 23.38 73.68 37.13" fill="#f47e20" /><polygon points="69.54 36.59 64.31 35.62 75.99 23.38 69.54 36.59" fill="#faa819" /><polygon points="75.67 37.88 67.53 36.07 66.61 35.35 84.3 27.09 75.67 37.88" fill="#f47e20" /><polygon points="71.3 36.8 66.47 35.34 84.3 27.09 71.3 36.8" fill="#faa819" /><polygon points="72.24 36.36 70.53 36.03 68.78 35.85 67.25 35.84 65.52 35.95 62.96 36.48 67.62 21.25 72.24 36.36" fill="#f47e20" /><polygon points="67.59 35.84 65.23 36 62.96 36.47 67.62 21.25 67.59 35.84" fill="#faa819" /><polygon points="74.63 68.4 71.16 74.9 68.49 77.68 70.21 75.26 69.38 72.22 74.63 68.4" fill="#005e32" fill-rule="evenodd" /><polygon points="59.57 64.32 67.35 64.32 63.53 61.17 59.57 64.32" fill="#005e32" /><polygon points="59.57 64.32 67.35 64.32 63.53 61.17 59.57 64.32" fill="none" stroke="#005e32" stroke-miterlimit="3.86" stroke-width=".03" /><polygon points="67.32 64.32 75.1 64.32 71.23 61.17 67.32 64.32" fill="#005e32" /><polygon points="67.32 64.32 75.1 64.32 71.23 61.17 67.32 64.32" fill="none" stroke="#005e32" stroke-miterlimit="3.86" stroke-width=".03" /><polygon points="63.52 61.17 71.28 61.18 67.4 58.11 63.52 61.17" fill="#ec1c24" /><polygon points="55.53 67.51 63.39 67.51 59.51 64.37 55.53 67.51" fill="#005e32" /><polygon points="55.53 67.51 63.39 67.51 59.51 64.36 55.53 67.51" fill="none" stroke="#005e32" stroke-miterlimit="3.86" stroke-width=".03" /><polygon points="63.4 67.51 71.28 67.52 67.39 64.28 63.4 67.51" fill="#070204" /><polygon points="63.4 67.51 71.28 67.52 67.39 64.28 63.4 67.51" fill="none" stroke="#070204" stroke-miterlimit="3.86" stroke-width=".03" /><polygon points="71.28 67.52 79.07 67.52 75.06 64.28 71.28 67.52" fill="#005e32" /><polygon points="71.28 67.52 79.07 67.52 75.06 64.28 71.28 67.52" fill="none" stroke="#005e32" stroke-miterlimit="3.86" stroke-width=".03" /><path d="M67.25,45.4s1.46.34,2.06.35c.6.01,1.65-.19,2.47-.19,1.79,0,2.95.48,2.95.48,0,0-1.12-.07-2.49.06-1.38.14-1.52.19-1.51.33.01.13.47.05.97.01.51-.03.85-.07,1.96-.03,1.1.04,2.31.44,2.31.44,0,0-1.14-.17-3.12.15-1.98.32-2.07.43-2.07.43,0,0,1.88.02,3,.15,2.15.25,3.41,1.1,3.41,1.1,0,0-1.71-.48-3.8-.45-2.09.03-3.05-.06-3.4-.17-.09-.06-.26-.06-.1.09.1.09.54.15.91.19.38.04,1.07.08,2.12.3,1.05.22,2.62.75,3.12,1.01.5.27,1.92,1.18,1.92,1.18,0,0-1.66-.77-3.66-1.06-2-.29-2.93-.53-3.52-.59-1.21-.14-2.19-.64-2.19-.64,0,0,.59-.56.56-1.29-.03-.73-.32-1.19-.75-1.44-.43-.25-1.14-.43-1.14-.43" fill="#60190a" fill-rule="evenodd" /><path d="M84.05,84.74c.29-.13.33.08.4.34.07.26.76,2.14.76,2.14,0,0,.85.9,1.18,1.26.33.35,1.16,1.23,1.1,1.54-.07.32-.28.59-.59.59s-.74-.44-1.1-.96c-.35-.52-.56-1.01-.71-1.42-.15-.41-1.18-3.19-1.18-3.19-.04-.17.13-.3.13-.3" fill="#99712c" /><path d="M87.82,90.88c-.2.26-.42.52-.09.97.33.45.48.65.92.65s1.23-.83,1.47-2.07c.24-1.24.18-1.25.22-1.76.04-.51.16-2.33.16-2.33,0,0-.05-.27-.24-.27s-.24.16-.24.27-.09,1.88-.09,1.88c0,0,.09.13-.15.43-.24.29-1.95,2.23-1.95,2.23" fill="#99712c" /><path d="M87.6,94.79c-.24.23-.49.44-.23.94.26.49.37.72.81.79.43.07,1.34-.62,1.77-1.81.43-1.18.37-1.2.49-1.7.12-.5.51-2.28.51-2.28,0,0,0-.28-.2-.31-.19-.03-.26.12-.28.23-.02.1-.38,1.85-.38,1.85,0,0,.07.14-.22.39-.28.25-2.26,1.89-2.26,1.89" fill="#99712c" /><path d="M84.51,88.24c.29-.12.33.09.38.36.05.27.66,2.17.66,2.17,0,0,.8.95,1.12,1.32.31.37,1.1,1.29,1.02,1.6-.08.32-.31.57-.62.56-.31-.02-.72-.48-1.04-1.02-.33-.54-.5-1.04-.63-1.45-.13-.41-1.02-3.25-1.02-3.25-.02-.16.15-.29.15-.29" fill="#99712c" /><path d="M84.75,91.57c.3-.08.31.13.33.4.02.27.39,2.24.39,2.24,0,0,.69,1.05.95,1.45.27.41.94,1.42.82,1.72s-.38.53-.68.48c-.31-.05-.66-.57-.92-1.15-.26-.57-.38-1.1-.45-1.52-.07-.43-.63-3.35-.63-3.35-.02-.2.18-.27.18-.27" fill="#99712c" /><path d="M87.27,98.46c-.25.22-.51.42-.28.93.23.5.34.73.77.83.43.09,1.37-.55,1.86-1.7.49-1.16.42-1.18.57-1.67.15-.49.62-2.25.62-2.25,0,0,.01-.28-.18-.32-.19-.04-.27.11-.29.21-.02.1-.47,1.83-.47,1.83,0,0,.06.14-.23.38-.3.23-2.36,1.77-2.36,1.77" fill="#99712c" /><path d="M84.62,95.52c.31-.06.3.15.3.43,0,.27.24,2.26.24,2.26,0,0,.62,1.09.85,1.52.24.43.84,1.48.7,1.77-.14.29-.41.5-.71.43-.3-.08-.62-.62-.84-1.21-.22-.59-.3-1.12-.35-1.55-.04-.43-.39-3.39-.39-3.39-.02-.17.2-.25.2-.25" fill="#99712c" /><path d="M85.5,103.68c-.02.59.56.72.86.68.3-.05.85-.33,1.42-.99.58-.66,2.15-4.07,2.15-4.07,0,0,.26-.35,0-.47-.26-.11-.26,0-.33.12-.07.1-.74,1.75-.9,1.98-.15.23-1.56,1.3-2.12,1.7-.57.41-1.07,1.06-1.07,1.06" fill="#99712c" /><path d="M83.85,106.57c-.02.36.24.97.68.87.44-.09,1.17-.29,1.89-1.06.72-.76,1.22-1.59,1.53-1.97.31-.39.79-.99.79-.99,0,0,.11-.25-.04-.34-.15-.09-.32-.07-.48.16-.15.22-.94,1.36-1.12,1.57-.18.2-1.55.69-2.01.91-.46.23-1.14.58-1.24.84" fill="#99712c" /><path d="M81.55,109.92c-.09.38-.08,1.01.87.83.95-.18,1.71-.86,2.13-1.21.42-.36,1.15-1.23,1.47-1.62.32-.38.68-.73.81-.86.13-.13.11-.19,0-.29-.11-.09-.24-.08-.42.09-.18.17-.9,1.14-1.32,1.46-.41.32-1.85.64-2.4.86-.55.22-1,.49-1.14.74" fill="#99712c" /><path d="M81.77,108.04c.1.29.24.42.63.4.4-.01.65-.11.77-.38.12-.28-.21-1.51-.32-2.16-.11-.65-.23-.95-.13-1.3.1-.34.28-.69.3-.91.01-.22-.17-.34-.34-.15-.09.1-.57,1.81-.65,2.17-.08.36-.33,1.38-.32,1.63,0,.24.05.7.05.7" fill="#99712c" /><path d="M83.98,105.4c.16.25.33.34.71.23.38-.11.61-.26.66-.57.05-.3-.55-1.41-.82-2.01-.26-.6-.45-.86-.43-1.22.01-.36.11-.74.08-.96-.04-.22-.26-.27-.34-.13-.07.12-.15,1.96-.14,2.33.01.37,0,1.42.07,1.65.07.24.21.67.21.67" fill="#99712c" /><path d="M78.64,112.92c-.13.37-.22.99.74.93.96-.06,1.8-.64,2.26-.94.46-.3,1.28-1.08,1.65-1.42.36-.34.75-.64.9-.75.14-.11.13-.18.03-.28-.1-.11-.23-.12-.43.03-.19.15-1.03,1.02-1.48,1.28-.45.26-1.92.4-2.49.55-.57.15-1.2.59-1.2.59" fill="#99712c" /><path d="M79.03,111.31c.04.3.15.45.55.52.39.06.66.02.83-.23.17-.25.08-1.52.09-2.18.01-.65-.05-.98.11-1.29.16-.32.41-.63.46-.84.06-.21-.12-.31-.25-.28-.13.02-.95,1.74-1.09,2.07-.14.34-.58,1.28-.62,1.53-.04.25-.09.7-.09.7" fill="#99712c" /><path d="M76.59,113.99c.04.3.08.59.47.66.39.07.72-.1.9-.35.18-.24.1-1.52.13-2.17.03-.65-.03-.98.13-1.29.16-.32.42-.63.48-.84.06-.21-.11-.31-.24-.29-.13.02-.98,1.72-1.13,2.06-.15.33-.6,1.28-.64,1.52-.04.25-.1.69-.1.69" fill="#99712c" /><path d="M69.57,118.32s2.35.11,6.31-1.83c2.87-1.44,3.04-1.68,3.04-1.68,0,0,.09-.18.04-.32-.04-.14-.2-.16-.37-.05-.18.12-.75.56-1.21.7-.46.13-.81.1-1.03-.15-.39-.46-.35-1.67-.35-1.67,0,0-1.14,1.42-2.76,2.59-1.63,1.17-3.68,2.4-3.68,2.4" fill="#99712c" /><path d="M86.69,81.9c.16.01.19.12.21.21.02.09,1.02,6.69,1.02,6.69,0,0-1.22-.72-1.33-1.51-.11-.78.38-1.79.38-2.05s-.44-3.16-.44-3.16c0,0,0-.17.16-.19" fill="#99712c" /><path d="M87.49,82.04c.16-.02.24.15.26.29.02.14.38,2.61.38,2.61,0,0,1.16,1.82,1.22,2.19.06.37-.05.83-.37,1.18-.32.35-.6.49-.6.49l-1.03-6.56s.05-.16.14-.2" fill="#99712c" /><path d="M51.17,84.74c-.29-.13-.33.08-.39.34-.07.26-.77,2.14-.77,2.14,0,0-.85.9-1.18,1.26-.33.35-1.16,1.23-1.1,1.54.07.32.28.59.59.59s.74-.44,1.1-.96c.35-.52.56-1.01.71-1.42.15-.41,1.19-3.19,1.19-3.19.04-.17-.13-.3-.13-.3" fill="#99712c" /><path d="M47.4,90.88c.2.26.42.52.09.97-.33.45-.48.65-.92.65s-1.23-.83-1.47-2.07c-.24-1.24-.18-1.25-.22-1.76-.04-.51-.15-2.33-.15-2.33,0,0,.04-.27.24-.27s.24.16.24.27.09,1.88.09,1.88c0,0-.09.13.15.43.24.29,1.95,2.23,1.95,2.23" fill="#99712c" /><path d="M47.61,94.79c.24.23.49.44.24.94-.26.49-.37.72-.81.79-.43.07-1.34-.62-1.77-1.81-.43-1.18-.37-1.2-.49-1.7-.12-.5-.51-2.28-.51-2.28,0,0,0-.28.2-.31.2-.03.27.12.28.23.02.1.37,1.85.37,1.85,0,0-.07.14.22.39.29.25,2.27,1.89,2.27,1.89" fill="#99712c" /><path d="M50.71,88.24c-.29-.12-.33.09-.38.36-.06.27-.66,2.17-.66,2.17,0,0-.81.95-1.12,1.32-.31.37-1.1,1.29-1.02,1.6.08.32.31.57.61.56.31-.02.72-.48,1.05-1.02.33-.54.51-1.04.63-1.45.13-.41,1.02-3.25,1.02-3.25.03-.16-.15-.29-.15-.29" fill="#99712c" /><path d="M50.47,91.57c-.31-.08-.31.13-.34.4-.02.27-.39,2.24-.39,2.24,0,0-.69,1.05-.95,1.45-.27.41-.94,1.42-.82,1.72.12.3.37.53.68.48.3-.05.66-.57.92-1.15.26-.57.38-1.1.45-1.52.08-.43.63-3.35.63-3.35.03-.2-.18-.27-.18-.27" fill="#99712c" /><path d="M47.94,98.46c.25.22.52.42.28.93-.23.51-.33.73-.77.83-.43.09-1.37-.55-1.86-1.71-.49-1.16-.43-1.18-.57-1.67-.15-.49-.63-2.25-.63-2.25,0,0-.01-.28.18-.32.2-.05.27.11.29.21.02.1.47,1.83.47,1.83,0,0-.06.14.24.38.29.24,2.36,1.77,2.36,1.77" fill="#99712c" /><path d="M50.6,95.52c-.31-.06-.3.15-.3.43,0,.27-.24,2.26-.24,2.26,0,0-.61,1.09-.85,1.52-.24.43-.84,1.48-.7,1.77.14.29.41.5.71.43.3-.08.62-.62.83-1.21.22-.59.3-1.12.35-1.55.05-.43.4-3.39.4-3.39.01-.17-.2-.25-.2-.25" fill="#99712c" /><path d="M49.72,103.68c.02.59-.56.72-.86.68-.3-.05-.85-.33-1.42-.99-.57-.66-2.15-4.07-2.15-4.07,0,0-.27-.35,0-.47.26-.11.26,0,.33.12.07.1.74,1.75.9,1.98.15.23,1.56,1.3,2.13,1.7.57.41,1.08,1.06,1.08,1.06" fill="#99712c" /><path d="M51.36,106.57c.02.36-.24.97-.68.87-.44-.09-1.17-.29-1.89-1.06-.72-.76-1.22-1.59-1.53-1.97-.31-.39-.79-.99-.79-.99,0,0-.11-.25.04-.34.15-.09.32-.07.48.16.15.22.94,1.36,1.12,1.57.18.2,1.55.69,2.01.91.46.23,1.14.58,1.23.84" fill="#99712c" /><path d="M53.67,109.92c.09.38.08,1.01-.87.83-.95-.18-1.71-.86-2.13-1.21-.42-.36-1.15-1.23-1.47-1.62-.32-.38-.68-.73-.81-.86-.13-.13-.11-.19,0-.29.11-.09.24-.08.42.09.18.17.91,1.14,1.32,1.46.41.32,1.86.64,2.41.86.55.22,1.01.49,1.14.74" fill="#99712c" /><path d="M53.45,108.04c-.1.29-.23.42-.63.4-.4-.01-.65-.11-.77-.38-.12-.28.21-1.51.32-2.16.11-.65.23-.95.13-1.3-.1-.34-.29-.69-.3-.91-.01-.22.16-.34.34-.15.09.1.57,1.81.65,2.17.07.36.33,1.38.32,1.63,0,.24-.05.7-.05.7" fill="#99712c" /><path d="M51.24,105.4c-.16.25-.33.34-.71.23-.38-.11-.61-.26-.66-.57-.05-.3.56-1.41.82-2.01.26-.6.45-.86.43-1.22-.01-.36-.11-.74-.07-.96.04-.22.26-.27.34-.13.07.12.15,1.96.14,2.33-.01.37,0,1.42-.07,1.65-.07.24-.21.67-.21.67" fill="#99712c" /><path d="M56.58,112.92c.13.37.22.99-.74.93-.96-.06-1.8-.64-2.26-.94-.46-.3-1.28-1.08-1.65-1.42-.37-.34-.76-.64-.91-.75-.15-.11-.13-.18-.04-.28.1-.11.23-.12.43.03.2.15,1.04,1.02,1.48,1.28.45.26,1.92.4,2.49.55.57.15,1.2.59,1.2.59" fill="#99712c" /><path d="M56.19,111.31c-.04.3-.15.45-.55.52-.39.06-.66.02-.83-.23-.17-.25-.08-1.52-.09-2.18-.01-.65.05-.98-.11-1.29-.16-.32-.41-.63-.46-.84-.06-.21.12-.31.25-.28.13.02.95,1.74,1.1,2.07.14.34.58,1.28.61,1.53.04.25.08.7.08.7" fill="#99712c" /><path d="M58.64,113.99c-.04.3-.09.59-.48.66-.39.07-.72-.1-.9-.35-.17-.24-.1-1.52-.13-2.17-.02-.65.03-.98-.13-1.29-.17-.32-.42-.63-.48-.84-.06-.21.11-.31.24-.29.13.02.98,1.72,1.13,2.06.15.33.6,1.28.64,1.52.04.25.1.69.1.69" fill="#99712c" /><path d="M65.66,118.32s-2.35.11-6.32-1.83c-2.87-1.44-3.05-1.68-3.05-1.68,0,0-.09-.18-.04-.32.04-.14.2-.16.37-.05.18.12.75.56,1.21.7.46.13.81.1,1.03-.15.39-.46.35-1.67.35-1.67,0,0,1.14,1.42,2.76,2.59,1.63,1.17,3.69,2.4,3.69,2.4" fill="#99712c" /><path d="M48.53,81.9c-.16.01-.19.12-.21.21-.02.09-1.02,6.69-1.02,6.69,0,0,1.22-.72,1.33-1.51.11-.78-.38-1.79-.38-2.05s.44-3.16.44-3.16c0,0,0-.17-.16-.19" fill="#99712c" /><path d="M47.72,82.04c-.16-.02-.24.15-.26.29-.02.14-.38,2.61-.38,2.61,0,0-1.16,1.82-1.22,2.19-.06.37.05.83.37,1.18.32.35.6.49.6.49l1.03-6.56s-.05-.16-.13-.2" fill="#99712c" /><path d="M63.24,60.22l4.16-3.33,2.2,1.79s.63-1.01.8-2.15c.18-1.15.21-2.15.21-2.15,0,0-1.07-.03-1.82-.39-1.36-.68-2.17-2.33-2.17-2.33,0,0,.14.97-.24,2.51-.38,1.54-1.05,2.58-1.64,3.26-.59.68-1.5,2.8-1.5,2.8" fill="#9b5424" fill-rule="evenodd" /><path d="M63.24,60.22l4.16-3.33,2.2,1.79s.63-1.01.8-2.15c.18-1.15.21-2.15.21-2.15,0,0-1.07-.03-1.82-.39-1.36-.68-2.17-2.33-2.17-2.33,0,0,.14.97-.24,2.51-.38,1.54-1.05,2.58-1.64,3.26-.59.68-1.5,2.8-1.5,2.8Z" fill="none" stroke="#99712c" stroke-miterlimit="3.86" stroke-width=".03" /><path d="M67.75,49.9s.17,1.61.94,2.51c.77.89,1.89,1.57,1.89,1.57,0,0-.07-1.72-.49-2.4-.42-.68-2.34-1.68-2.34-1.68" fill="#9b5424" /><path d="M67.75,49.9s.17,1.61.94,2.51c.77.89,1.89,1.57,1.89,1.57,0,0-.07-1.72-.49-2.4-.42-.68-2.34-1.68-2.34-1.68Z" fill="none" stroke="#99712c" stroke-miterlimit="3.86" stroke-width=".03" /><path d="M71.35,53.87s.02,1.89-.29,2.97c-.31,1.08-.88,2.36-.88,2.36l2.13,1.73s2.13-.24,3.44-.52c1.32-.27,2.33-.54,2.87-1.1.72-.74.22-1.64.22-1.64,0,0,1.78-.82,2.61-1.42,1.22-.9.61-1.78.61-1.78,0,0,1.37-.34,2.23-.81,1.56-.86.88-1.62.88-1.62,0,0,1.94-.16,3.51-.83,1.1-.47.94-1.06.87-1.51-.06-.45-.37-1.73-1.23-2.88-.85-1.15-1.38-1.8-1.86-1.85-.49-.04-1.34,1.75-1.54,2.11-.19.36-2.76,4.5-5.92,7.31-3.16,2.81-5.37,3.72-6,3.64-.57-.07-.79-1.51-.9-1.87-.11-.36-.77-2.32-.77-2.32" fill="#dec064" fill-rule="evenodd" /><path d="M60,49.27s.23-.41.49-.72c.18-.21.33-.2.65-.18.31.02,3.16.39,3.72.53.56.15.94.27,1.15.5.21.23.44.7.57,1.02.14.32.67,1.66,1.52,2.44,1.36,1.23,2.27,1.31,2.27,1.31,0,0-.63-.16-1.38-.84-.75-.68-1.19-1.58-1.36-2.41-.17-.82-.25-1.09-.29-1.45-.01-.14-.03-.21,0-.25.03-.04.09-.06.14-.05.05,0,.26.18.36.27.11.08,1.74,1,1.89,1.12.16.12,1.26,1.03,1.84,2.3.59,1.27.66,1.78.85,2.5.2.78.41.86.41.86,0,0,.16-.82-.01-1.86-.16-1.04-.56-2.05-1.03-2.72-.47-.66-.96-1.16-.96-1.16,0,0,.79.34,2.38.79,1.59.45,2.11.59,2.99.91.87.32,2.23.92,2.23.92,0,0-.52-.67-1.87-1.38-1.4-.74-2.46-1.29-3.51-1.63-1.05-.34-2.24-.73-2.76-.81-1.05-.16-1.7-.73-1.7-.73,0,0,.48-.4.55-1.12.07-.71-.22-1.31-.71-1.6-.49-.29-.85-.39-1.34-.48-.49-.09-1.74-.21-2.11-.24-.38-.03-.79.04-1.12.28-.33.23-.57.61-.64.83,0,0-1.52.35-2.04.63-.52.28-.94.51-1.18,1.3-.24.8,0,1.13,0,1.13" fill="#c0872c" fill-rule="evenodd" /><polygon points="67.5 68.43 65.58 75.41 67.57 78.07 69.25 75.48 67.5 68.43" fill="#005e32" /><polygon points="60.22 68.4 63.68 74.9 66.35 77.68 64.63 75.26 65.46 72.22 60.22 68.4" fill="#005e32" fill-rule="evenodd" /><polygon points="64.31 76.77 63.17 75.69 61.56 72.75 53.25 69.13 60.58 74.98 64.31 76.77" fill="#005e32" fill-rule="evenodd" /><polygon points="53.96 68.43 60.81 71.39 59.21 68.43 53.96 68.43" fill="#c0872c" fill-rule="evenodd" /><polygon points="61.7 68.43 65.72 71.33 66.52 68.43 61.7 68.43" fill="#c0872c" /><polygon points="70.56 76.77 71.71 75.69 73.32 72.75 81.63 69.13 74.29 74.98 70.56 76.77" fill="#005e32" fill-rule="evenodd" /><polygon points="80.91 68.43 74.06 71.39 75.66 68.43 80.91 68.43" fill="#c0872c" fill-rule="evenodd" /><polygon points="73.17 68.43 69.15 71.33 68.35 68.43 73.17 68.43" fill="#c0872c" /><polygon points="71.27 61.16 63.49 61.16 67.37 64.36 71.27 61.16" fill="#faa819" /><polygon points="67.41 64.33 59.5 64.33 63.38 67.52 67.41 64.33" fill="#faa819" /><polygon points="75.13 64.33 67.34 64.33 71.29 67.55 75.13 64.33" fill="#faa819" /><path d="M75.57,103.57c0-.05,0-.1-.01-.15,0,0,0-.01-.01-.02,0,0-.03,0-.03,0l-1.04.16s-.02,0-.03.02c-.02.01-.02.03-.02.03l-.06.16s0,.02,0,.03c0,0,.03,0,.03,0l1.14-.19s.01,0,.02-.01c0-.01,0-.02,0-.03" fill="#fff" /><path d="M72.68,97.3s.05.04.07.04c.02,0,.04-.01.04-.01l1.7-1.22s.02-.01.02-.03c0-.01,0-.02-.01-.03-.04-.04-.07-.08-.09-.12,0,0-.01-.02-.03-.02-.02,0-.07.04-.07.04l-1.67,1.17s-.03.01-.03.06c0,.03.04.07.08.12" fill="#fff" /><path d="M71.01,103.82c-.02.06-.03.09-.05.15,0,0-.01.03,0,.04,0,.01.03,0,.03,0l1.32-.28s.03,0,.04-.02c.02-.02,0-.05,0-.07-.02-.05-.02-.06-.02-.1,0,0,0-.02-.02-.03-.02,0-.05,0-.05,0l-1.17.26s-.02,0-.04.02c-.02,0-.02.03-.02.03" fill="#fff" /><path d="M59.72,103.57c0-.05,0-.1.01-.15,0,0,0-.01.01-.02.01,0,.03,0,.03,0l1.04.16s.02,0,.04.02c.01.01.02.03.02.03l.05.16s0,.02,0,.03c0,0-.03,0-.03,0l-1.14-.19s-.01,0-.02-.01c0-.01,0-.02,0-.03" fill="#fff" /><path d="M62.61,97.3s-.05.04-.07.04c-.02,0-.04-.01-.04-.01l-1.7-1.22s-.02-.01-.02-.03c0-.01,0-.02.01-.03.03-.04.06-.08.09-.12,0,0,.01-.02.03-.02.02,0,.07.04.07.04l1.67,1.17s.03.01.03.06c0,.03-.04.07-.08.12" fill="#fff" /><path d="M64.28,103.82c.02.06.03.09.05.15,0,0,.01.03,0,.04,0,.01-.03,0-.03,0l-1.32-.28s-.03,0-.04-.02c-.02-.02,0-.05,0-.07.02-.05.02-.06.02-.1,0,0,0-.02.03-.03.02,0,.05,0,.05,0l1.17.26s.02,0,.04.02c.02,0,.02.03.02.03" fill="#fff" /><path d="M68.23,89.23s.04.07.05.1c0,0,.01.02.03.02.02,0,.03,0,.03,0l.68-.45s.02,0,.02-.03c0-.02-.02-.04-.02-.05-.03-.03-.06-.06-.09-.09,0,0-.02-.02-.04-.02s-.04.01-.04.01l-.61.45s-.01.01-.02.03c0,.01,0,.02,0,.03" fill="#fff" /><path d="M68.08,88.96s.02.05.04.08c0,0,.01.02.03.02s.03-.01.03-.01l.57-.45s.02-.02.02-.03c0-.01,0-.03-.01-.03-.03-.04-.07-.08-.09-.12,0,0-.01-.02-.03-.02-.02,0-.04.02-.04.02l-.51.48s-.02.01-.02.03c0,.01,0,.02,0,.03" fill="#fff" /><path d="M67.05,89.23s-.03.07-.05.1c0,0-.01.02-.03.02-.02,0-.03,0-.03,0l-.68-.45s-.02,0-.02-.03c0-.02.02-.04.02-.05.03-.03.06-.06.09-.09,0,0,.02-.02.04-.02s.04.01.04.01l.61.45s.01.01.02.03c0,.01,0,.02,0,.03" fill="#fff" /><path d="M67.2,88.96s-.02.05-.04.08c0,0-.01.02-.03.02s-.03-.01-.03-.01l-.57-.45s-.02-.02-.02-.03c0-.01,0-.03.01-.03.03-.04.06-.08.09-.12,0,0,.01-.02.03-.02.02,0,.04.02.04.02l.51.48s.02.01.02.03c0,.01,0,.02,0,.03" fill="#fff" /><path d="M79.5,77.39l-9.65,1.74,10.58,1.87s.44.08.36.53c-.09.46-.52.35-.52.35l-12.76-2.32-12.58,2.27s-.46.12-.55-.33c-.09-.44.37-.53.37-.53l10.43-1.84-8.56-1.56.17-.74,10.73,1.89,12.86-2.26c.16-.04.3-.07.43-.09,1.55-.45,1.6-.86,2.22-1.96.2-.26.37-.53,1.07-.52,1.22.02,2.58.53,2.78,1.73.21,1.21-.76,2.08-2.04,2.61-.65.27-.9.06-1.17-.11-.97-.82-1.12-1.22-2.8-.98-.11.03-.26.04-.39.06l-.98.17Z" fill="#070204" /><path d="M67.42,80.3s13.32,2.47,13.3,2.48c1.36,3.12,2.11,6.58,2.11,10.1,0,9.87-5.89,19.31-14.8,23.97l-.41.21-.41-.21c-8.91-4.66-14.8-14.1-14.8-23.97,0-3.55.76-7.04,2.14-10.19.03.05,12.86-2.39,12.86-2.39" fill="#60190a" /><path d="M53.83,92.87c0-3.19.61-6.24,1.74-9.07,0,.05,11.89-2.23,11.89-2.26.05-.02,12.34,2.32,12.25,2.33,1.11,2.81,1.72,5.85,1.72,9.01,0,8.13-4,15.4-10.3,20.26,0,0-.92.81-1.75,1.35-.83.54-1.75.96-1.75.96,0,0-.93-.47-2.01-1.17-1.08-.7-1.5-1.14-1.5-1.14-6.29-4.85-10.3-12.13-10.3-20.26" fill="#dec064" /><path d="M53.83,92.87c0-3.19.61-6.24,1.74-9.07,0,.05,11.89-2.23,11.89-2.26.05-.02,12.34,2.32,12.25,2.33,1.11,2.81,1.72,5.85,1.72,9.01,0,8.13-4,15.4-10.3,20.26,0,0-.92.81-1.75,1.35-.83.54-1.75.96-1.75.96,0,0-.93-.47-2.01-1.17-1.08-.7-1.5-1.14-1.5-1.14-6.29-4.85-10.3-12.13-10.3-20.26Z" fill="none" stroke="#dec16a" stroke-miterlimit="3.86" stroke-width=".03" /><path d="M46.65,108.61c-5.61-9.32-6.92-22.23-3.12-33.15.97-2.77,2.03-5.17,3.4-7.54.2-.39.88-1.35.39-1.54-.21-.1-1.06.73-1.34,1.08-2.92,3.6-5.11,7.59-6.77,12.36-3.46,9.91-3.09,20.26.31,29.17.73,1.74,7.16.21,7.11-.38" fill="#dec064" /><path d="M46.65,108.61c-5.61-9.32-6.92-22.23-3.12-33.15.97-2.77,2.03-5.17,3.4-7.54.2-.39.88-1.35.39-1.54-.21-.1-1.06.73-1.34,1.08-2.92,3.59-5.11,7.59-6.77,12.36-3.46,9.91-3.09,20.26.31,29.17.73,1.74,7.16.21,7.11-.38Z" fill="none" stroke="#fff" stroke-linecap="round" stroke-linejoin="round" stroke-width=".03" /><path d="M44.03,108.87c-7-10.99-9.51-22.15-6.43-35.03.75-3.14,1.73-6.15,2.99-8.97.14-.29.77-1.55.37-1.71-.38-.32-1.09.87-1.38,1.28-2.81,4.34-4.93,9.28-6.15,14.68-2.53,11.14-.9,20.42,3.98,29.54.35.88,7.99,2.01,6.62.21" fill="#cbad66" /><path d="M44.03,108.87c-7-10.99-9.51-22.15-6.43-35.03.75-3.14,1.73-6.15,2.99-8.97.14-.29.77-1.55.37-1.71-.38-.32-1.09.87-1.38,1.29-2.81,4.34-4.93,9.28-6.15,14.68-2.53,11.14-.9,20.42,3.98,29.54.35.88,7.99,2,6.62.21Z" fill="none" stroke="#fff" stroke-linecap="round" stroke-linejoin="round" stroke-width=".03" /><path d="M55.2,77.53s-1.81-.18-2.15.3c-.33.48-7.7-2.57-7.7-2.57,0,0,7.33,1.26,9.54,1.83,2.24.58.31.43.31.43" fill="#070204" fill-rule="evenodd" /><path d="M55.45,76.39s-1.84-.44-1.98-1c-.15-.57-8.12-.12-8.12-.12,0,0,7.41,1.25,9.69,1.44,2.3.19.41-.32.41-.32" fill="#070204" /><path d="M87.91,45.33c.28.28,2.37,2.61,2.24,5.4,2.57.49,7.07-.01,7.77-.15,3.26-.65,6.7-1.72,7.72-2.3.83-.47.92-.97,1.35-2.23.62-1.8-2.24-.32-5.31.93-1.99.81-3.3,1.34-4.07,1.59.02-.16.04-.33.05-.49,2.07-.96,8.37-3.65,9.46-4.49,1.22-.93.76-2.86.26-2.99-.22-.05-5.51,3.08-9.68,5.54-.01-.15-.03-.3-.05-.46,2.02-1.22,4.25-2.61,5.89-3.72,4.69-3.16,4.33-2.5,3.96-4.66-.29-1.71-1.66-.05-1.66-.05l-1.53,1.33s-4.32,3.54-6.91,5.6c-.03-.14-.06-.28-.1-.43,2.53-2.17,6.62-5.81,7.44-6.7,1.14-1.21,2.75-1.91,1.61-4.07-.51-.95-.72-1.53-1.12-1.38-.36.61-.85,1.05-1.15,1.45-2.29,3.07-5.08,6.27-7.4,8.78-.07-.16-.13-.32-.2-.48,1.44-1.6,2.85-3.22,3.74-4.43,4.32-5.84,4.84-6.33,4.24-7.64-.3-.65-1.52-2.35-1.82-2.2.02.84-1.06,2.91-2.66,5.35-2.25,3.44-3.61,5.5-4.56,6.93-.13-.2-.27-.41-.42-.61,2.8-4.59,6.38-10.66,6.41-12.03.02-1.05-.2-1.81-1.74-2.91-.55-.39-1.63-.83-2.08-.66,1.09,1.74-.27,5.59-.52,6.22-1.06,2.73-2.34,5.39-3.53,7.66-.15-.16-.31-.32-.48-.47,1.38-2.98,2.72-6.26,3.18-8.3.75-3.38-.1-6-2.81-7.26-1.17,8.81-3.56,16.7-6.8,22.99.04.03.07.07.1.1.22.23.59.52,1.16,1.22" fill="#c0872c" /><path d="M47.35,45.33c-.29.28-2.37,2.61-2.24,5.4-2.57.49-7.07-.01-7.77-.15-3.26-.65-6.71-1.72-7.72-2.3-.83-.47-.92-.97-1.35-2.23-.62-1.8,2.24-.32,5.31.93,2,.81,3.3,1.34,4.06,1.59-.02-.16-.03-.33-.05-.49-2.07-.96-8.36-3.65-9.46-4.49-1.22-.93-.76-2.86-.26-2.99.22-.05,5.51,3.08,9.68,5.54.01-.15.03-.3.05-.46-2.02-1.22-4.25-2.61-5.89-3.72-4.68-3.16-4.33-2.5-3.96-4.66.29-1.71,1.66-.05,1.66-.05l1.53,1.33s4.32,3.54,6.91,5.6c.03-.14.07-.28.1-.43-2.53-2.17-6.62-5.81-7.44-6.7-1.14-1.21-2.75-1.91-1.61-4.07.51-.95.72-1.53,1.12-1.38.36.61.85,1.05,1.15,1.45,2.29,3.07,5.08,6.27,7.4,8.78.06-.16.13-.32.2-.48-1.44-1.6-2.84-3.22-3.74-4.43-4.32-5.84-4.84-6.33-4.24-7.64.3-.65,1.52-2.35,1.82-2.2-.02.84,1.05,2.91,2.66,5.35,2.25,3.44,3.61,5.5,4.56,6.93.13-.2.27-.41.42-.61-2.8-4.59-6.38-10.66-6.41-12.03-.02-1.05.2-1.81,1.74-2.91.55-.39,1.63-.83,2.07-.66-1.08,1.74.28,5.59.52,6.22,1.06,2.73,2.34,5.39,3.52,7.66.15-.16.31-.32.48-.47-1.38-2.98-2.72-6.26-3.18-8.3-.75-3.38.1-6,2.81-7.26,1.17,8.81,3.56,16.7,6.8,22.99-.04.03-.07.07-.1.1-.22.23-.59.52-1.16,1.22" fill="#c0872c" /><path d="M47.07,109.89c4.64,7.01,12.13,11.55,20.57,11.55s15.87-4.52,20.52-11.5c.02-.05.05-.08.08-.12l.17.08c1.29.55,2.96.86,4.74.86,1.4,0,2.74-.19,3.87-.54-5.55,11.73-16.63,19.74-29.38,19.74s-23.85-8.03-29.39-19.79c1.13.35,2.46.54,3.86.54,1.78,0,3.46-.31,4.75-.86l.13-.06s.06.07.1.1" fill="#005e32" /><path d="M61.95,61.26c-2.25-.3-3.35-.57-3.92-.72-3.17-.81-2.27-2.57-2.27-2.57-4.03-1.6-3.21-3.14-3.21-3.14-3.64-1.03-3.15-2.33-3.15-2.33-1.78-.12-2.87-.57-3.52-1.15-.18-.11-.25-.05-.33-.06-.06,0-2.98.91-11.6-.59-1.71-.31-3.75-.72-4.24-.83.16.56.25.85.55,1.34.1.16.2.41.52.86.27.44,1.25.81,1.91.98,1.64.42,4.73.14,6.34,0,.08.16.17.31.26.47-2.13.36-4.46.52-7.11.61.43.65.93,1.29,1.69,1.79,1.67.67,4.44-.24,6.39-.87.1.14.2.28.31.41-1.51.59-5.14,1.41-5.92,1.54.43.56.99,1.36,1.98,1.42,1.11.25,4.34-1,5.24-1.45.11.12.21.22.32.33-1.02.68-4.73,1.88-5.14,1.98.41.46,1.23,1.26,2.34,1.26,1.82-.29,3.55-1.33,4.38-1.79.12.1.25.2.38.31-1.1.69-2.5,1.52-4.34,2.22.37.34.9.88,1.72,1.08,1.69.48,3.32-.75,4.82-1.73.14.09.28.18.42.26-.66.58-1.83,1.38-3.77,2.37.29.35,1.44.74,2,.9,1.93.15,3.38-1.15,4.37-1.85l.39.19c-1.07.88-1.78,1.28-3.47,2.37.44.27,1.03.68,1.96.74,1.6.17,3.13-1.06,4.27-1.96.15.06.3.11.46.17-.42.35-2.17,1.69-3.37,2.39.03-.01.96.79,2.51.72,2.81.12,5.55-2.28,5.55-2.28l4.26-3.41Z" fill="#9b5424" /><path d="M77.57,64.67s2.73,2.39,5.54,2.28c1.56.07,2.48-.73,2.52-.72-1.19-.71-2.95-2.04-3.36-2.39.15-.05.3-.11.45-.17,1.14.91,2.67,2.13,4.27,1.96.93-.06,1.52-.47,1.96-.74-1.69-1.09-2.4-1.49-3.47-2.37l.39-.19c.99.7,2.44,2,4.37,1.85.57-.15,1.71-.55,2.01-.9-1.94-.99-3.12-1.78-3.77-2.37.14-.09.28-.17.42-.26,1.5.98,3.14,2.21,4.83,1.73.82-.19,1.36-.73,1.72-1.08-1.84-.7-3.24-1.53-4.34-2.22.13-.1.25-.2.38-.31.83.46,2.56,1.5,4.39,1.79,1.11,0,1.93-.8,2.34-1.26-.41-.1-4.12-1.3-5.13-1.98.11-.11.22-.22.32-.33.9.45,4.13,1.7,5.23,1.45.99-.06,1.55-.86,1.98-1.42-.79-.12-4.41-.95-5.92-1.54.1-.14.21-.27.3-.41,1.95.63,4.72,1.55,6.39.87.75-.5,1.26-1.14,1.69-1.79-2.64-.09-4.97-.25-7.1-.61.09-.16.17-.32.25-.47,1.61.14,4.7.42,6.34,0,.66-.17,1.64-.53,1.91-.98.33-.45.43-.71.52-.86.3-.49.39-.77.55-1.34-.49.1-2.53.52-4.24.83-8.62,1.5-11.54.59-11.6.59-.08,0-.15-.05-.33.06-.65.57-1.74,1.03-3.51,1.15,0,0,.49,1.3-3.15,2.33,0,0,.81,1.54-3.22,3.14,0,0,.91,1.76-2.26,2.57-.57.15-2.17.5-4.35.79l4.69,3.34Z" fill="#9b5424" /><path d="M62.33,60.86c-1.05-.13-2.36-.34-3.67-.61-3.4-.7-2.25-2.56-2.25-2.56-4.49-1.83-3.24-3.21-3.24-3.21-4.31-1.18-3.09-2.42-3.09-2.42-2.7-.1-4.5-1.22-4.46-1.76.01-1.03.36-2.55,1.86-4.26,1.16-1.33,1.42-1.44,2.03-.35,3.17,5.6,7.04,9.74,11.34,11.9.26.09.64.23,1.17.45.52.18,1,.15,1.43.02l-1.11,2.81Z" fill="#dec064" /><path d="M44.71,116.94l.37.41.38-.35-.37-.42-.38.36ZM45.39,116.41l.27.31,2.19-1.92-.37-.42-2.09,2.03Z" fill="#fff" fill-rule="evenodd" /><polygon points="46.25 118.67 46.63 119.03 47.9 117.63 47.9 117.64 47.23 119.61 47.65 120.02 48.32 117.88 50.15 117.17 49.77 116.81 48.02 117.52 48.01 117.51 49.17 116.23 48.79 115.87 46.25 118.67" fill="#fff" fill-rule="evenodd" /><polygon points="48.8 120.98 49.92 121.84 50.18 121.49 49.48 120.95 50.23 119.91 50.9 120.43 51.16 120.07 50.49 119.56 51.19 118.6 51.91 119.15 52.17 118.79 51.04 117.92 48.8 120.98" fill="#fff" /><polygon points="52.94 123.83 54.18 124.51 54.39 124.11 53.6 123.68 54.19 122.54 54.93 122.94 55.14 122.55 54.4 122.15 54.95 121.09 55.73 121.52 55.93 121.12 54.69 120.45 52.94 123.83" fill="#fff" /><path d="M56.74,122.15l.56.23.23-.58-.56-.23-.23.58ZM55.57,125.14l.57.24.23-.58-.57-.23-.23.58Z" fill="#fff" fill-rule="evenodd" /><polygon points="59.05 126.45 59.47 126.57 61.53 123.1 61.11 122.99 59.05 126.45" fill="#fff" /><polygon points="61.94 127.13 62.45 127.2 63.18 125.89 63.49 127.35 64.03 127.43 63.53 125.4 64.53 123.64 64.02 123.56 63.35 124.82 63.05 123.43 62.51 123.35 63 125.27 61.94 127.13" fill="#fff" /><path d="M66.66,124.34h.01l.29,1.85h-.66s.36-1.85.36-1.85ZM65.52,127.58h.52s.19-.96.19-.96l.8.02.16.98h.52s-.69-3.83-.69-3.83h-.6s-.89,3.8-.89,3.8Z" fill="#fff" fill-rule="evenodd" /><path d="M69.48,124.12l.25-.02c.32-.03.35.02.4.58.05.57,0,.66-.41.7h-.13s-.11-1.26-.11-1.26ZM69.25,127.54l.51-.05-.14-1.66.18-.02c.34-.03.41.06.44.42l.07.86c.01.16.03.25.09.34l.48-.04c-.04-.15-.06-.35-.07-.48l-.07-.83c-.03-.36-.16-.53-.52-.54h0c.41-.18.46-.41.41-.92-.07-.83-.16-1.03-.92-.96l-.8.07.33,3.81Z" fill="#fff" fill-rule="evenodd" /><path d="M72.44,123.72l.24-.06c.31-.06.35-.02.47.54.12.56.08.65-.32.73l-.13.03-.26-1.24ZM72.62,127.14l.51-.11-.34-1.63.17-.03c.33-.07.42,0,.49.36l.18.85c.03.15.06.24.13.32l.48-.1c-.06-.15-.1-.34-.13-.47l-.17-.81c-.07-.36-.23-.51-.58-.47v-.02c.39-.22.41-.45.3-.95-.17-.82-.29-1-1.02-.85l-.78.17.77,3.74Z" fill="#fff" fill-rule="evenodd" /><path d="M75.77,122.91h0s.86,1.65.86,1.65l-.62.21-.25-1.86ZM75.72,126.37l.49-.17-.13-.98.77-.25.46.87.49-.16-1.88-3.4-.57.19.37,3.9Z" fill="#fff" fill-rule="evenodd" /><polygon points="81.03 124.19 81.41 123.98 80.55 120.02 80.17 120.24 81.03 124.19" fill="#fff" /><polygon points="83.48 122.73 83.84 122.48 82.58 118.64 82.22 118.89 83.48 122.73" fill="#fff" /><polygon points="85.88 120.91 86.27 120.57 85.08 119.1 85.09 119.1 86.91 120.03 87.35 119.64 85.37 118.7 84.91 116.75 84.51 117.09 84.98 118.97 84.97 118.97 83.88 117.64 83.48 117.98 85.88 120.91" fill="#fff" fill-rule="evenodd" /><polygon points="88.45 118.53 89.41 117.47 89.09 117.16 88.49 117.84 87.57 116.95 88.14 116.33 87.82 116.02 87.25 116.65 86.4 115.83 87 115.17 86.68 114.86 85.73 115.92 88.45 118.53" fill="#fff" /><path d="M88.6,108.61c5.61-9.32,6.92-22.23,3.11-33.15-.97-2.77-2.03-5.17-3.41-7.54-.19-.39-.88-1.35-.39-1.54.22-.1,1.06.73,1.34,1.08,2.92,3.6,5.11,7.59,6.77,12.36,3.46,9.91,3.09,20.26-.31,29.17-.73,1.74-7.16.21-7.11-.38" fill="#dec064" /><path d="M88.6,108.61c5.61-9.32,6.92-22.23,3.11-33.15-.97-2.77-2.03-5.17-3.41-7.54-.19-.39-.88-1.35-.39-1.54.22-.1,1.06.73,1.34,1.08,2.92,3.59,5.11,7.59,6.77,12.36,3.46,9.91,3.09,20.26-.31,29.17-.73,1.74-7.16.21-7.11-.38Z" fill="none" stroke="#fff" stroke-linecap="round" stroke-linejoin="round" stroke-width=".03" /><path d="M91.22,108.87c7-10.99,9.51-22.15,6.43-35.03-.75-3.14-1.73-6.15-2.98-8.97-.14-.29-.77-1.55-.37-1.71.39-.32,1.09.87,1.38,1.28,2.81,4.34,4.93,9.28,6.15,14.68,2.52,11.14.9,20.42-3.98,29.54-.35.88-7.99,2.01-6.62.21" fill="#cbad66" /><path d="M91.22,108.87c7-10.99,9.51-22.15,6.43-35.03-.75-3.14-1.73-6.15-2.98-8.97-.14-.29-.77-1.55-.37-1.71.39-.32,1.09.87,1.38,1.29,2.81,4.34,4.93,9.28,6.15,14.68,2.52,11.14.9,20.42-3.98,29.54-.35.88-7.99,2-6.62.21Z" fill="none" stroke="#fff" stroke-linecap="round" stroke-linejoin="round" stroke-width=".03" /><path d="M72.77,108.07c-.14.42-.52.51-.52.51-.9.3-1.34.56-1.34.56-.34.18-.14.41-.14.41.13.15.9.02.9.02.87-.09,1.06-.23,1.06-.23.36-.22,1.49-1.76,1.49-1.76,1.42-1.78,1.44-3.38,1.37-3.71,0-.01,0-.02,0-.04,0,0,0-.02-.02-.02-.02-.01-.04,0-.04,0l-1.22.2s-.02,0-.03.01c-.01,0-.02.02-.02.03-.28.75-.66,1.8-.66,1.8l-.83,2.24Z" fill="#60190a" /><path d="M69.83,107.59h-.02c-.07,0-.13.06-.13.14,0,.04.03.08.05.1.02.01.02.04.02.06-.05.11-.1.2-.15.25-.26.26-.63.35-1.14.75,0,0-.16.11-.06.28.1.17.49-.02.49-.02,0,0,.67-.34,1.08-.37,0,0,.37-.03.51-.31,0,0,.07-.18.21-.43,0,0,.02-.02.04-.02.07.02.14-.02.16-.09.01-.05,0-.1-.04-.13,0,0-.01-.02,0-.03.02-.02.03-.04.05-.07,0,0,.02,0,.03,0,.01,0,.02.01.03.01.07.02.14-.02.16-.1.01-.05,0-.1-.04-.13-.02-.01,0-.03,0-.03l.04-.06s.01-.02.03,0c0,0,.02,0,.03,0,.07.02.14-.03.16-.1.01-.04,0-.09-.03-.12,0,0-.02-.02,0-.05.55-.81,1.49-2.36,1.18-3.15,0,0-.01-.03-.03-.07-.03-.04-.09-.02-.09-.02l-1.44.3s-.06,0-.07.06c-.2.6-.43,1.36-.66,2.27,0,0-.03.12-.08.31,0,0-.01.03-.05.03-.07,0-.13.06-.13.14,0,.04.02.08.05.1.05.02.03.06.03.06v.03s-.02.03-.06.03h0c-.07,0-.13.07-.13.14,0,.05.03.09.06.11.03.01.03.04.02.05,0,.02,0,.03-.01.04,0,.01-.03.04-.05.03" fill="#60190a" /><path d="M76.28,87.91c-.08-.06-.25-.39-1.46-.52,0,0-.32.02-.24-.67,0,0,0-.26.32-.45,0,0,.42-.18.51-.51,0,0,.02-.06.04-.16.02-.14.04-.54-.38-.77-.1-.04-.1,0-.16-.04-.04-.02-.05-.06-.08-.07,0,0-.06-.02-.1,0,0,0-.04.03-.09.01,0,0-.06-.01-.07-.07,0-.05-.08-.09-.15-.05,0,0-.04.04-.09.03,0,0-.06,0-.06-.06,0,0-.02-.08-.11-.08,0,0-.06,0-.09.05,0,0-.02.05-.07.06h-.01s-.04-.01-.05-.06c0,0-.03-.08-.13-.08,0,0-.1,0-.13.1,0,0,0,.06-.04.08,0,0-.05.02-.07-.03,0,0-.04-.1-.16-.1,0,0-.15,0-.16.15,0,0-.02.15.05.47.02.26-.04.31-.04.31-.32.38-.36.64-.36.74h0s0,.02,0,.03c0,.08.05.47.3.6,0,0,.12.06.26,0l.13-.07s.14-.06.15.03c.01.12.02.35-.04.48,0,0-.03.07-.2.05,0,0-1-.15-1.73.89,0,0-.19.24-.27.39-.02.04-.02.07.03.07.1,0,.3.02.43.04.15.02.31.06.38.08.04,0,.04.05.04.05l-.02.12s0,.05-.04.03c-.1-.04-.42-.13-.91-.13,0,0-.87,0-.9.52,0,0-.02.23.28.47,0,0,.03.03.1.08-.03.05-.07.13-.1.21,0,0,0,0,0,0-.05.12-.08.23-.09.29-.03.12-.1.17-.15.17-.05,0-.08-.09-.08-.09-.19-.46-.98-1.24-1.2-1.45-.01,0-.03-.03-.06-.03-.02,0-.06.02-.06.02l-.69.43s-.04.03-.05.05c-.01.03,0,.05.01.06.75,1.43,1.08,1.61,1.08,1.61,0,0,.47.52,1.03.5.33-.01.8-.52,1.14-.93.13-.15.28-.33.37-.46.05,0,.1.01.16.02.02,0,.03.01.03.03-.03.25-.28,2.48-.09,4.46,0,0,.08,1.76.35,2.19.02.05.08,0,.08,0l1.69-1.21s.02-.01.02-.03c.05-.2.47-1.93.68-3.1,0,0,.38-1.82.76-2.76,0,0,0-.03.03-.04.02-.01.05-.02.06-.02.12-.03.37-.08.64-.21,0,0,.27-.12.52-.35,0,0,.35-.29.35-.6,0,0,0-.39-.65-.35-.01,0-.03,0-.05-.02-.05-.08-.24-.36-.3-.41" fill="#60190a" /><path d="M67.6,88.6s.12.05.26.15c0,0,.08.09.18,0,.15-.15.34-.34.43-.45.12-.14.09-.31-.07-.49,0,0-.28-.29-.49-.26,0,0-.1.04-.16.07,0,0-.04.02-.17.01,0,0-.19-.02-.4.19,0,0-.24.27-.08.51,0,0,.07.13.26.2.12.04.25.06.25.06" fill="#60190a" /><path d="M75.94,89.98s-.05.03-.05.06c.03.26.16.56.16.56.15.46.87,1.35.87,1.35.27.36.19.87.19.87-.02.42.05,1.21.05,1.21.06.67.28,1.2.35,1.35.02.05.09.05.09.05l.63-.08s.04,0,.06-.02c.02-.02.02-.05.02-.06.04-.37.05-1.41.05-1.41-.03-.65-.49-1.72-.49-1.72-.14-.3-.15-.64-.15-.64,0-.2-.12-1.04-.12-1.04-.1-.6-.32-.95-.41-1.07-.02-.03-.05-.03-.08,0-.16.14-.35.27-.57.37-.21.1-.41.18-.6.22" fill="#60190a" /><path d="M77.74,95.71s-.05.04-.05.04h-.05c-.06.01-.08.06-.09.19,0,.13.03.8.34.99,0,0,.17.14.37.13,0,0,.26,0,.47-.29,0,0,.16-.15,0-.41,0,0-.06-.11-.19-.19-.23-.15-.18-.37-.18-.37,0,0,.01-.09-.17-.11-.04,0-.06-.02-.06-.05-.02-.09-.08-.15-.19-.15-.12,0-.22.1-.22.2h0Z" fill="#60190a" /><path d="M74.56,96.21l-1.67,1.19c-.06.06-.08.07-.04.24.03.15-.04.65-.22,1.02-.18.37-.49.94-.84,2.01-.26.78-.4,1.3-.43,1.81,0,0-.02.08.02.2,0,0,.04.03,0,.13,0,0-.11.25-.29.74,0,0-.01.04,0,.05,0,.01.04,0,.04,0l1.12-.24s.02,0,.03-.02c.01-.01.02-.03.03-.03.02-.09.07-.18.14-.26,0,0,.51-.57.67-.83,0,0,.45-.52.82-1.74,0,0,.59-1.57,1.23-1.77.65-.2,1.09-.6.78-1.38,0,0-.23-.76-.9-1.06,0,0-.35-.17-.5-.06" fill="#60190a" /><path d="M75.54,103.19c-.02-.29.15-.78.15-.78,0,0,.15-.48.15-1.11,0-.61-.46-2.05-.59-2.42,0,0,0-.02-.02-.02-.01,0-.03,0-.04,0-.57.24-1.09,1.63-1.18,1.9-.02.05,0,.07,0,.09.13.65.46,1.59.46,1.59.15.53.06.85.06.85,0,0,0,.03-.02.06,0,.01.03.04.03.04l.96-.15s.01,0,.02-.01c.01-.01,0-.03,0-.03" fill="#60190a" /><path d="M62.48,108.07c.14.42.52.51.52.51.89.3,1.34.56,1.34.56.34.18.14.41.14.41-.12.15-.9.02-.9.02-.87-.09-1.07-.23-1.07-.23-.36-.22-1.49-1.76-1.49-1.76-1.42-1.78-1.44-3.38-1.37-3.71,0-.01,0-.02.01-.04,0,0,0-.02.02-.02.02-.01.03,0,.03,0l1.22.2s.02,0,.03.01c.01,0,.02.02.02.03.27.75.66,1.8.66,1.8l.83,2.24Z" fill="#60190a" /><path d="M65.42,107.59h.02c.07,0,.13.06.13.14,0,.04-.03.08-.06.1-.02.01-.02.04-.02.06.05.11.1.2.15.25.26.26.63.35,1.14.75,0,0,.16.11.06.28-.1.17-.49-.02-.49-.02,0,0-.67-.34-1.08-.37,0,0-.37-.03-.52-.31,0,0-.07-.18-.21-.43,0,0-.02-.02-.04-.02-.07.02-.14-.02-.16-.09-.01-.05,0-.1.03-.13,0,0,.02-.02,0-.03-.02-.02-.03-.04-.05-.07,0,0-.02,0-.03,0-.01,0-.02.01-.03.01-.07.02-.14-.02-.16-.1-.01-.05,0-.1.04-.13.02-.01,0-.03,0-.03l-.04-.06s-.01-.02-.03,0c0,0-.02,0-.02,0-.07.02-.15-.03-.17-.1-.01-.04,0-.09.04-.12,0,0,.02-.02,0-.05-.55-.81-1.49-2.36-1.18-3.15,0,0,0-.03.03-.07.03-.04.09-.02.09-.02l1.43.3s.05,0,.07.06c.2.6.43,1.36.66,2.27,0,0,.03.12.08.31,0,0,.01.03.05.03.08,0,.13.06.13.14,0,.04-.02.08-.05.1-.05.02-.03.06-.03.06v.03s.02.03.06.03h.01c.07,0,.13.07.13.14,0,.05-.03.09-.06.11-.02.01-.02.04-.02.05,0,.02,0,.03.01.04,0,.01.03.04.05.03" fill="#60190a" /><path d="M58.98,87.91c.08-.06.25-.39,1.46-.52,0,0,.32.02.24-.67,0,0,0-.26-.32-.45,0,0-.42-.18-.51-.51,0,0-.02-.06-.04-.16-.02-.14-.04-.54.38-.77.1-.04.1,0,.16-.04.04-.02.05-.06.08-.07,0,0,.06-.02.1,0,0,0,.04.03.09.01,0,0,.05-.01.06-.07,0-.05.08-.09.15-.05,0,0,.04.04.09.03,0,0,.05,0,.06-.06,0,0,.02-.08.11-.08,0,0,.06,0,.09.05,0,0,.02.05.07.06h.02s.04-.01.05-.06c0,0,.03-.08.13-.08,0,0,.1,0,.13.1,0,0,0,.06.04.08,0,0,.05.02.07-.03,0,0,.04-.1.16-.1,0,0,.15,0,.16.15,0,0,.02.15-.04.47-.02.26.04.31.04.31.33.38.37.64.36.74h0s0,.02,0,.03c0,.08-.06.47-.3.6,0,0-.12.06-.26,0l-.13-.07s-.14-.06-.15.03c-.01.12-.03.35.04.48,0,0,.03.07.19.05,0,0,1.01-.15,1.73.89,0,0,.19.24.27.39.02.04.02.07-.03.07-.1,0-.3.02-.44.04-.15.02-.31.06-.38.08-.04,0-.03.05-.03.05l.02.12s0,.05.04.03c.1-.04.42-.13.91-.13,0,0,.87,0,.9.52,0,0,.02.23-.29.47,0,0-.03.03-.1.08.04.05.07.13.1.21,0,0,0,0,0,0,.05.12.08.23.09.29.03.12.1.17.15.17.05,0,.08-.09.08-.09.18-.46.98-1.24,1.2-1.45.01,0,.02-.03.05-.03.03,0,.06.02.06.02l.69.43s.04.03.05.05c.01.03,0,.05,0,.06-.76,1.43-1.08,1.61-1.08,1.61,0,0-.47.52-1.03.5-.33-.01-.8-.52-1.14-.93-.13-.15-.28-.33-.37-.46-.05,0-.1.01-.16.02-.02,0-.03.01-.03.03.03.25.28,2.48.09,4.46,0,0-.08,1.76-.35,2.19-.02.05-.08,0-.08,0l-1.69-1.21s-.02-.01-.02-.03c-.05-.2-.48-1.93-.68-3.1,0,0-.38-1.82-.76-2.76,0,0,0-.03-.03-.04-.02-.01-.05-.02-.06-.02-.12-.03-.37-.08-.64-.21,0,0-.27-.12-.52-.35,0,0-.35-.29-.35-.6,0,0,0-.39.65-.35.01,0,.03,0,.05-.02.05-.08.24-.36.3-.41" fill="#60190a" /><path d="M67.66,88.6s-.12.05-.26.15c0,0-.08.09-.17,0-.16-.15-.34-.34-.43-.45-.13-.14-.09-.31.07-.49,0,0,.28-.29.48-.26,0,0,.1.04.16.07,0,0,.04.02.17.01,0,0,.19-.02.4.19,0,0,.24.27.08.51,0,0-.07.13-.26.2-.12.04-.24.06-.24.06" fill="#60190a" /><path d="M59.32,89.98s.05.03.05.06c-.03.26-.15.56-.15.56-.15.46-.87,1.35-.87,1.35-.27.36-.19.87-.19.87.02.42-.05,1.21-.05,1.21-.06.67-.28,1.2-.35,1.35-.02.05-.09.05-.09.05l-.63-.08s-.04,0-.05-.02c-.02-.02-.02-.05-.03-.06-.04-.37-.05-1.41-.05-1.41.03-.65.49-1.72.49-1.72.13-.3.15-.64.15-.64,0-.2.12-1.04.12-1.04.1-.6.32-.95.41-1.07.02-.03.05-.03.08,0,.16.14.35.27.57.37.2.1.41.18.6.22" fill="#60190a" /><path d="M57.51,95.71s.05.04.05.04h.05c.05.01.08.06.08.19,0,.13-.03.8-.34.99,0,0-.17.14-.37.13,0,0-.26,0-.47-.29,0,0-.16-.15-.01-.41,0,0,.06-.11.19-.19.23-.15.18-.37.18-.37,0,0-.02-.09.17-.11.04,0,.06-.02.06-.05.02-.09.08-.15.19-.15.12,0,.22.1.22.2h0Z" fill="#60190a" /><path d="M60.69,96.21l1.67,1.19c.06.06.08.07.04.24-.03.15.04.65.22,1.02.18.37.49.94.84,2.01.26.78.4,1.3.43,1.81,0,0,.02.08-.02.2,0,0-.04.03,0,.13,0,0,.11.25.29.74,0,0,.02.04,0,.05-.01.01-.05,0-.05,0l-1.12-.24s-.02,0-.03-.02c-.02-.01-.02-.03-.02-.03-.02-.09-.07-.18-.14-.26,0,0-.51-.57-.67-.83,0,0-.45-.52-.82-1.74,0,0-.59-1.57-1.23-1.77-.65-.2-1.09-.6-.78-1.38,0,0,.23-.76.9-1.06,0,0,.35-.17.5-.06" fill="#60190a" /><path d="M59.72,103.19c.02-.29-.15-.78-.15-.78,0,0-.16-.48-.15-1.11,0-.61.46-2.05.59-2.42,0,0,0-.02.02-.02.01,0,.03,0,.04,0,.57.24,1.09,1.63,1.18,1.9.02.05,0,.07,0,.09-.13.65-.47,1.59-.47,1.59-.15.53-.06.85-.06.85,0,0,.01.03.02.06,0,.01-.04.04-.04.04l-.96-.15s-.01,0-.02-.01c0-.01,0-.03,0-.03" fill="#60190a" /><path d="M70.99,103.84s-.03.08-.05.14c0,0-.01.03,0,.04,0,.01.02,0,.02,0l1.32-.28s.03,0,.04-.02c.02-.02,0-.05,0-.06-.02-.04-.02-.05-.02-.09,0-.01,0-.03-.03-.04-.02-.01-.05,0-.05,0l-1.17.26s-.02,0-.04.01c-.01.01-.02.03-.02.04" fill="#fff" /><path d="M75.55,103.59c0-.05,0-.1,0-.14,0,0,0-.02-.01-.03-.01,0-.03,0-.03,0l-1.04.16s-.02,0-.04.01c-.01.01-.02.03-.02.03l-.06.16s0,.02,0,.03c0,.01.03,0,.03,0l1.14-.18s.01,0,.02-.01c0-.01,0-.03,0-.03" fill="#fff" /><path d="M68.22,89.25s.03.06.05.09c0,0,.01.02.03.02.01,0,.03-.01.03-.01l.68-.44s.02,0,.02-.04c0-.02-.02-.04-.02-.05-.03-.03-.06-.06-.09-.09,0,0-.02-.02-.04-.02-.02,0-.04.01-.04.01l-.61.45s-.02.01-.02.02c0,.01,0,.03,0,.03" fill="#fff" /><path d="M68.07,88.97s.02.04.04.08c0,0,0,.01.02.02.02,0,.03-.01.03-.01l.57-.45s.02-.01.02-.03c0-.01,0-.03-.01-.03-.03-.04-.06-.08-.09-.12,0,0,0-.02-.03-.02-.02,0-.04.02-.04.02l-.51.49s-.02,0-.02.03c0,.01,0,.02,0,.03" fill="#fff" /><path d="M72.66,97.31s.05.04.07.04c.02,0,.04-.01.04-.01l1.7-1.22s.02-.01.02-.02c0-.01,0-.03,0-.03-.04-.04-.07-.08-.09-.12,0,0-.01-.02-.03-.02-.02,0-.07.05-.07.05l-1.67,1.16s-.03.01-.03.06c0,.03.04.06.08.12" fill="#fff" /><path d="M64.26,103.84s.03.08.05.14c0,0,.01.03,0,.04,0,.01-.03,0-.03,0l-1.32-.28s-.03,0-.04-.02c-.02-.02,0-.05,0-.06.02-.04.02-.05.02-.09,0-.01,0-.03.03-.04.02-.01.05,0,.05,0l1.17.26s.02,0,.04.01c.01.01.02.03.02.04" fill="#fff" /><path d="M59.7,103.59c0-.05,0-.1.01-.14,0,0,0-.02,0-.03.01,0,.03,0,.03,0l1.04.16s.02,0,.03.01c.01.01.02.03.02.03l.06.16s0,.02,0,.03c0,.01-.03,0-.03,0l-1.14-.18s-.02,0-.02-.01c0-.01,0-.03,0-.03" fill="#fff" /><path d="M67.04,89.25s-.04.06-.06.09c0,0-.01.02-.03.02-.02,0-.04-.01-.04-.01l-.68-.44s-.02,0-.02-.04c0-.02.02-.04.02-.05.03-.03.06-.06.09-.09,0,0,.02-.02.04-.02s.04.01.04.01l.61.45s.01.01.02.02c0,.01,0,.03,0,.03" fill="#fff" /><path d="M67.19,88.97s-.02.04-.04.08c0,0,0,.01-.03.02-.02,0-.03-.01-.03-.01l-.56-.45s-.02-.01-.03-.03c0-.01,0-.03.01-.03.03-.04.06-.08.09-.12,0,0,.01-.02.03-.02.02,0,.04.02.04.02l.51.49s.02,0,.02.03c0,.01,0,.02,0,.03" fill="#fff" /><path d="M62.59,97.31s-.05.04-.07.04c-.02,0-.04-.01-.04-.01l-1.7-1.22s-.02-.01-.02-.02c0-.01,0-.03.01-.03.03-.04.06-.08.09-.12,0,0,.01-.02.03-.02.02,0,.07.05.07.05l1.67,1.16s.03.01.03.06c0,.03-.04.06-.08.12" fill="#fff" /><path d="M72.3,89.26c-.06-.02-.11-.04-.17-.05-.54-.14-1.16-.16-1.24.1-.06.21.36.48.9.63.15.04.3.07.44.08.02,0,.04,0,.04-.03.01-.12.05-.57.07-.69,0-.03-.01-.04-.02-.04" fill="#fff" /><path d="M75.97,89.49c.13-.03.19-.05.33-.12.42-.21.81-.56.7-.74-.11-.17-.94-.13-1.09.82-.01.02.02.05.05.04" fill="#fff" /><path d="M62.99,89.26c.06-.02.11-.04.17-.05.54-.14,1.16-.16,1.24.1.06.21-.36.48-.9.63-.15.04-.3.07-.43.08-.02,0-.04,0-.04-.03-.01-.12-.05-.57-.07-.69,0-.03.02-.04.02-.04" fill="#fff" /><path d="M59.32,89.49c-.14-.03-.19-.05-.34-.12-.42-.21-.81-.56-.7-.74.11-.17.94-.13,1.08.82.01.02-.02.05-.05.04" fill="#fff" /><path d="M55.22,40.27c3.66-2.95,7.69-4.68,12.48-4.68s8.81,1.73,12.47,4.68c-3.86-2.09-8.1-2.89-12.74-2.89s-8.34.8-12.2,2.89" fill="#f47e20" /><path d="M63.67,47.68c-.65.06-1.36,0-1.36,0,0,0,.48-.56.64-.75.46-.52,1.12-.82,1.86-.92,1.38-.2,1.75.29,1.75.29,0,0-.75.77-.91,1.68,0,0-1.25-.36-1.98-.3" fill="#60190a" /><path d="M64.14,46.83c0-.28.35-.52.77-.52s.77.23.77.52-.35.52-.77.52-.77-.23-.77-.52" fill="#fff" /><path d="M65.21,46.82c0-.17-.13-.31-.3-.31s-.3.14-.3.31.14.31.3.31.3-.14.3-.31" fill="#070204" /><polygon points="125.34 106.01 125.34 96.73 126.53 96.73 126.53 100.54 131.23 100.54 131.23 96.73 132.43 96.73 132.43 106.01 131.23 106.01 131.23 101.63 126.53 101.63 126.53 106.01 125.34 106.01" /><path d="M134.29,96.73h1.11v1.31h-1.11v-1.31ZM134.29,99.29h1.11v6.72h-1.11v-6.72Z" /><path d="M136.88,106.56l1.08.16c.05.34.17.59.38.75.27.21.65.32,1.13.32.51,0,.91-.1,1.19-.32.28-.21.47-.51.57-.89.06-.23.08-.72.08-1.46-.49.59-1.09.88-1.81.88-.9,0-1.6-.33-2.09-1-.49-.67-.74-1.47-.74-2.4,0-.64.11-1.23.34-1.78.23-.54.55-.96.98-1.26.43-.29.93-.44,1.51-.44.77,0,1.41.32,1.91.96v-.81h1.02v5.81c0,1.05-.1,1.79-.31,2.22-.21.44-.54.78-.99,1.04-.45.25-1,.38-1.66.38-.78,0-1.41-.18-1.89-.54-.48-.36-.71-.9-.7-1.63M137.8,102.53c0,.88.17,1.53.51,1.93.34.41.77.61,1.28.61s.94-.2,1.28-.6c.35-.4.52-1.03.52-1.9s-.18-1.44-.53-1.86c-.36-.42-.78-.63-1.29-.63s-.91.21-1.26.62c-.35.41-.52,1.02-.52,1.83" /><path d="M144.11,106.01v-9.28h1.11v3.33c.52-.62,1.17-.92,1.96-.92.49,0,.91.1,1.26.29.36.2.61.47.77.81.15.35.23.85.23,1.51v4.26h-1.11v-4.26c0-.57-.12-.98-.36-1.24-.24-.26-.58-.39-1.02-.39-.33,0-.64.09-.93.26-.29.18-.5.41-.62.71-.12.3-.18.71-.18,1.24v3.68h-1.11Z" /><path d="M155.62,103.84l1.15.15c-.18.69-.52,1.22-1.01,1.6-.49.38-1.11.57-1.87.57-.96,0-1.72-.3-2.28-.91-.56-.61-.84-1.45-.84-2.55s.28-2.01.85-2.63c.57-.62,1.3-.94,2.21-.94s1.59.31,2.15.92c.56.61.83,1.47.83,2.58,0,.07,0,.17,0,.3h-4.89c.04.74.24,1.3.61,1.7.37.39.82.59,1.37.59.41,0,.75-.11,1.04-.33.29-.22.52-.57.68-1.05M151.98,102h3.66c-.05-.57-.19-.99-.42-1.27-.35-.44-.81-.66-1.38-.66-.51,0-.94.18-1.29.53-.35.35-.54.82-.58,1.4" /><path d="M158.15,106.01v-6.72h1v1.02c.26-.48.49-.79.71-.94.22-.15.45-.23.71-.23.37,0,.75.12,1.14.37l-.38,1.06c-.27-.16-.54-.25-.81-.25-.24,0-.46.08-.65.22-.19.15-.33.36-.41.62-.12.41-.18.85-.18,1.33v3.52h-1.11Z" /><polygon points="166.05 106.01 166.05 96.73 172.58 96.73 172.58 97.82 167.24 97.82 167.24 100.67 172.24 100.67 172.24 101.75 167.24 101.75 167.24 104.91 172.79 104.91 172.79 106.01 166.05 106.01" /><path d="M178.55,106.01v-.85c-.42.67-1.03,1-1.83,1-.52,0-1-.15-1.44-.44-.44-.3-.78-.71-1.02-1.24-.24-.53-.36-1.14-.36-1.83s.11-1.28.33-1.83c.22-.55.55-.97.98-1.26.44-.29.92-.44,1.46-.44.39,0,.75.09,1.05.26.31.17.56.39.75.67v-3.33h1.1v9.28h-1.03ZM175.04,102.65c0,.86.18,1.5.53,1.93.35.43.77.64,1.25.64s.9-.2,1.24-.61c.34-.41.51-1.03.51-1.86,0-.92-.17-1.59-.52-2.02-.35-.43-.77-.65-1.28-.65s-.91.21-1.24.62c-.33.41-.5,1.07-.5,1.96" /><path d="M185.62,106.01v-.99c-.51.76-1.2,1.14-2.08,1.14-.39,0-.75-.08-1.08-.23-.34-.15-.58-.34-.75-.57-.16-.23-.28-.51-.34-.84-.05-.22-.07-.58-.07-1.06v-4.16h1.11v3.73c0,.59.02,1,.07,1.2.07.3.22.53.44.71.23.17.51.26.84.26s.65-.09.94-.26c.29-.17.5-.41.62-.71.12-.3.18-.74.18-1.31v-3.6h1.11v6.72h-.99Z" /><path d="M192.63,103.54l1.09.15c-.12.77-.42,1.38-.92,1.81-.49.44-1.09.66-1.81.66-.9,0-1.62-.3-2.16-.9-.55-.6-.82-1.46-.82-2.58,0-.73.12-1.36.35-1.9.23-.54.59-.95,1.07-1.22.48-.27,1-.41,1.56-.41.71,0,1.29.18,1.75.55.45.37.74.89.87,1.57l-1.08.17c-.1-.45-.28-.79-.55-1.02-.26-.23-.58-.34-.95-.34-.56,0-1.01.21-1.36.62-.35.41-.52,1.06-.52,1.95s.17,1.56.51,1.97c.34.41.78.61,1.32.61.44,0,.8-.14,1.09-.41.29-.27.48-.7.56-1.27" /><path d="M198.94,105.18c-.41.36-.81.61-1.19.76-.38.15-.79.22-1.22.22-.72,0-1.27-.18-1.66-.54-.39-.36-.58-.82-.58-1.38,0-.33.07-.63.22-.9.15-.27.34-.49.57-.65.24-.16.5-.29.8-.37.22-.06.55-.12.99-.17.9-.11,1.56-.24,1.98-.39,0-.16,0-.25,0-.3,0-.46-.1-.79-.31-.98-.28-.26-.71-.39-1.26-.39-.52,0-.91.09-1.16.28-.25.19-.43.52-.55,1l-1.09-.15c.1-.48.26-.86.49-1.15.23-.29.55-.52.98-.68.43-.16.92-.24,1.49-.24s1.01.07,1.36.2c.35.14.61.31.77.51.16.2.28.46.35.78.04.19.06.54.06,1.05v1.52c0,1.06.02,1.73.07,2.01.05.28.14.55.28.81h-1.16c-.12-.24-.19-.51-.22-.83M198.85,102.63c-.4.17-1.01.31-1.81.43-.46.07-.78.14-.97.23-.19.08-.34.21-.44.37-.1.16-.15.34-.15.54,0,.3.11.56.34.76.22.2.55.3.98.3s.81-.1,1.14-.29c.33-.19.58-.45.73-.79.12-.26.18-.64.18-1.14v-.42Z" /><path d="M204.12,104.99l.16,1.01c-.31.07-.59.1-.84.1-.4,0-.72-.07-.94-.2-.22-.13-.38-.3-.47-.52-.09-.21-.14-.66-.14-1.34v-3.87h-.81v-.89h.81v-1.66l1.1-.68v2.35h1.12v.89h-1.12v3.93c0,.32.02.53.06.63.04.09.1.17.19.22.09.05.21.08.38.08.12,0,.29-.01.49-.04" /><path d="M205.21,96.73h1.11v1.31h-1.11v-1.31ZM205.21,99.29h1.11v6.72h-1.11v-6.72Z" /><path d="M207.6,102.65c0-1.24.34-2.17,1.01-2.77.56-.5,1.25-.75,2.06-.75.9,0,1.64.3,2.21.91.57.61.86,1.44.86,2.51,0,.86-.13,1.54-.38,2.04-.25.5-.62.88-1.1,1.16-.48.27-1.01.41-1.58.41-.92,0-1.66-.3-2.22-.9-.57-.6-.85-1.47-.85-2.61M208.74,102.65c0,.86.18,1.5.55,1.93.37.43.83.64,1.38.64s1.01-.22,1.38-.65c.37-.43.55-1.09.55-1.97,0-.83-.18-1.46-.55-1.89-.37-.43-.83-.64-1.37-.64s-1.02.21-1.38.64c-.37.43-.55,1.07-.55,1.93" /><path d="M215.04,106.01v-6.72h1v.96c.48-.74,1.18-1.11,2.08-1.11.39,0,.76.07,1.09.22.33.15.58.34.74.57.16.24.28.52.35.84.04.21.06.58.06,1.11v4.13h-1.11v-4.09c0-.46-.04-.81-.13-1.04-.09-.23-.24-.41-.46-.55-.22-.14-.48-.21-.77-.21-.47,0-.88.15-1.22.46-.34.31-.51.89-.51,1.75v3.67h-1.11Z" /><path d="M229.85,105.18c-.41.36-.81.61-1.19.76-.38.15-.79.22-1.22.22-.72,0-1.27-.18-1.66-.54-.39-.36-.58-.82-.58-1.38,0-.33.07-.63.22-.9.15-.27.34-.49.57-.65.24-.16.5-.29.8-.37.22-.06.55-.12.99-.17.9-.11,1.56-.24,1.98-.39,0-.16,0-.25,0-.3,0-.46-.1-.79-.31-.98-.28-.26-.71-.39-1.26-.39-.52,0-.91.09-1.16.28-.25.19-.43.52-.55,1l-1.09-.15c.1-.48.26-.86.49-1.15.23-.29.55-.52.98-.68.43-.16.92-.24,1.49-.24s1.01.07,1.36.2c.35.14.61.31.77.51.16.2.28.46.35.78.04.19.06.54.06,1.05v1.52c0,1.06.02,1.73.07,2.01.05.28.14.55.28.81h-1.16c-.12-.24-.19-.51-.22-.83M229.75,102.63c-.4.17-1.01.31-1.81.43-.46.07-.78.14-.97.23-.19.08-.34.21-.44.37-.1.16-.15.34-.15.54,0,.3.11.56.34.76.22.2.55.3.98.3s.81-.1,1.14-.29c.33-.19.58-.45.73-.79.12-.26.18-.64.18-1.14v-.42Z" /><path d="M232.6,106.01v-6.72h1v.96c.48-.74,1.18-1.11,2.08-1.11.39,0,.76.07,1.09.22.33.15.58.34.74.57.16.24.28.52.34.84.04.21.06.58.06,1.11v4.13h-1.11v-4.09c0-.46-.04-.81-.13-1.04-.09-.23-.24-.41-.46-.55-.22-.14-.48-.21-.77-.21-.47,0-.88.15-1.22.46-.34.31-.51.89-.51,1.75v3.67h-1.11Z" /><path d="M243.87,106.01v-.85c-.42.67-1.03,1-1.83,1-.52,0-1-.15-1.44-.44-.44-.3-.78-.71-1.02-1.24-.24-.53-.36-1.14-.36-1.83s.11-1.28.33-1.83c.22-.55.55-.97.98-1.26.44-.29.92-.44,1.46-.44.39,0,.75.09,1.05.26.31.17.56.39.75.67v-3.33h1.1v9.28h-1.03ZM240.36,102.65c0,.86.18,1.5.53,1.93.35.43.77.64,1.25.64s.9-.2,1.24-.61c.34-.41.51-1.03.51-1.86,0-.92-.17-1.59-.52-2.02-.35-.43-.77-.65-1.28-.65s-.91.21-1.24.62c-.33.41-.5,1.07-.5,1.96" /><polygon points="252.36 106.01 252.36 97.82 249.38 97.82 249.38 96.73 256.55 96.73 256.55 97.82 253.56 97.82 253.56 106.01 252.36 106.01" /><path d="M257.15,106.01v-6.72h1v1.02c.26-.48.49-.79.71-.94.22-.15.45-.23.71-.23.37,0,.75.12,1.14.37l-.38,1.06c-.27-.16-.54-.25-.81-.25-.24,0-.46.08-.65.22-.19.15-.33.36-.41.62-.12.41-.18.85-.18,1.33v3.52h-1.11Z" /><path d="M265.64,105.18c-.41.36-.81.61-1.19.76-.38.15-.79.22-1.22.22-.72,0-1.27-.18-1.66-.54-.39-.36-.58-.82-.58-1.38,0-.33.07-.63.22-.9.15-.27.34-.49.57-.65.24-.16.5-.29.8-.37.22-.06.55-.12.99-.17.9-.11,1.56-.24,1.98-.39,0-.16,0-.25,0-.3,0-.46-.1-.79-.31-.98-.28-.26-.71-.39-1.26-.39-.52,0-.91.09-1.16.28-.25.19-.43.52-.55,1l-1.09-.15c.1-.48.26-.86.49-1.15.23-.29.55-.52.98-.68.43-.16.92-.24,1.49-.24s1.01.07,1.36.2c.35.14.61.31.77.51.16.2.28.46.35.78.04.19.06.54.06,1.05v1.52c0,1.06.02,1.73.07,2.01.05.28.14.55.28.81h-1.16c-.12-.24-.19-.51-.22-.83M265.55,102.63c-.4.17-1.01.31-1.81.43-.46.07-.78.14-.97.23-.19.08-.34.21-.44.37-.1.16-.15.34-.15.54,0,.3.11.56.34.76.22.2.55.3.98.3s.81-.1,1.14-.29c.33-.19.58-.45.73-.79.12-.26.18-.64.18-1.14v-.42Z" /><path d="M268.4,96.73h1.11v1.31h-1.11v-1.31ZM268.4,99.29h1.11v6.72h-1.11v-6.72Z" /><path d="M271.2,106.01v-6.72h1v.96c.48-.74,1.18-1.11,2.08-1.11.39,0,.76.07,1.09.22.33.15.58.34.74.57.16.24.28.52.34.84.04.21.06.58.06,1.11v4.13h-1.11v-4.09c0-.46-.04-.81-.13-1.04-.09-.23-.24-.41-.46-.55-.22-.14-.48-.21-.77-.21-.47,0-.88.15-1.22.46-.34.31-.51.89-.51,1.75v3.67h-1.11Z" /><path d="M278.23,96.73h1.11v1.31h-1.11v-1.31ZM278.23,99.29h1.11v6.72h-1.11v-6.72Z" /><path d="M281.03,106.01v-6.72h1v.96c.48-.74,1.18-1.11,2.08-1.11.39,0,.76.07,1.09.22.33.15.58.34.74.57.16.24.28.52.34.84.04.21.06.58.06,1.11v4.13h-1.11v-4.09c0-.46-.04-.81-.13-1.04-.09-.23-.24-.41-.46-.55-.22-.14-.48-.21-.77-.21-.47,0-.88.15-1.22.46-.34.31-.51.89-.51,1.75v3.67h-1.11Z" /><path d="M287.85,106.56l1.08.16c.05.34.17.59.38.75.27.21.65.32,1.13.32.51,0,.91-.1,1.19-.32.28-.21.47-.51.57-.89.06-.23.08-.72.08-1.46-.49.59-1.09.88-1.81.88-.9,0-1.6-.33-2.09-1-.49-.67-.74-1.47-.74-2.4,0-.64.11-1.23.34-1.78.23-.54.55-.96.98-1.26.43-.29.93-.44,1.51-.44.77,0,1.41.32,1.91.96v-.81h1.02v5.81c0,1.05-.1,1.79-.31,2.22-.21.44-.54.78-.99,1.04-.45.25-1,.38-1.66.38-.78,0-1.41-.18-1.89-.54-.48-.36-.71-.9-.7-1.63M288.77,102.53c0,.88.17,1.53.51,1.93.34.41.77.61,1.28.61s.94-.2,1.28-.6c.35-.4.52-1.03.52-1.9s-.18-1.44-.53-1.86c-.36-.42-.78-.63-1.29-.63s-.91.21-1.26.62c-.35.41-.52,1.02-.52,1.83" /><path d="M125.34,91.94v-9.28h3.11c.7,0,1.24.04,1.61.13.52.12.96.34,1.33.66.48.41.83.94,1.07,1.58.24.64.35,1.38.35,2.21,0,.7-.08,1.33-.24,1.87-.16.54-.37.99-.62,1.35-.25.36-.52.64-.82.84-.3.2-.66.36-1.08.46-.42.11-.91.16-1.45.16h-3.26ZM126.53,90.84h1.93c.6,0,1.06-.06,1.4-.17.34-.11.61-.27.81-.48.28-.29.5-.68.66-1.17.16-.49.24-1.09.24-1.79,0-.97-.16-1.72-.47-2.24-.31-.52-.69-.87-1.13-1.05-.32-.13-.84-.19-1.55-.19h-1.9v7.09Z" /><path d="M138.8,89.77l1.15.15c-.18.69-.52,1.22-1.01,1.6-.49.38-1.11.57-1.87.57-.96,0-1.72-.3-2.28-.91-.56-.61-.84-1.45-.84-2.55s.28-2.01.85-2.63c.57-.62,1.3-.94,2.21-.94s1.59.31,2.15.92c.56.61.83,1.47.83,2.58,0,.07,0,.17,0,.3h-4.89c.04.74.24,1.3.61,1.7.37.39.82.59,1.37.59.41,0,.75-.11,1.04-.33.29-.22.52-.57.68-1.05M135.16,87.93h3.66c-.05-.57-.19-.99-.42-1.27-.35-.44-.81-.66-1.38-.66-.51,0-.94.18-1.29.53-.35.35-.54.82-.58,1.4" /><path d="M141.34,94.51v-9.3h1.01v.87c.24-.34.51-.6.81-.77.3-.17.66-.26,1.09-.26.56,0,1.05.15,1.48.44.43.3.75.71.97,1.25.22.54.33,1.13.33,1.77,0,.69-.12,1.31-.36,1.86-.24.55-.59.97-1.05,1.27-.46.29-.94.44-1.45.44-.37,0-.7-.08-1-.24-.29-.16-.54-.36-.72-.61v3.27h-1.11ZM142.35,88.61c0,.86.17,1.5.51,1.92.34.41.75.62,1.24.62s.92-.21,1.27-.64c.35-.43.53-1.09.53-1.99s-.17-1.5-.52-1.92c-.34-.43-.75-.64-1.23-.64s-.89.23-1.25.68c-.36.45-.55,1.11-.55,1.98" /><path d="M152.64,91.11c-.41.36-.81.61-1.19.76-.38.15-.79.22-1.22.22-.72,0-1.27-.18-1.66-.54-.39-.36-.58-.82-.58-1.38,0-.33.07-.63.22-.9.15-.27.34-.49.57-.65.24-.16.5-.29.8-.37.22-.06.55-.12.99-.17.9-.11,1.56-.24,1.98-.39,0-.16,0-.25,0-.3,0-.46-.1-.79-.31-.98-.28-.26-.71-.39-1.26-.39-.52,0-.91.09-1.16.28-.25.19-.43.52-.55,1l-1.09-.15c.1-.48.26-.86.49-1.15.23-.29.55-.52.98-.68.43-.16.92-.24,1.49-.24s1.01.07,1.36.2.61.3.77.51c.16.21.28.46.35.78.04.19.06.54.06,1.05v1.52c0,1.06.02,1.73.07,2.01.05.28.14.55.28.81h-1.16c-.12-.24-.19-.51-.22-.83M152.55,88.56c-.4.17-1.01.31-1.81.43-.46.07-.78.14-.97.23-.19.08-.34.21-.44.37-.1.16-.15.34-.15.54,0,.3.11.56.34.76.22.2.55.3.98.3s.81-.1,1.14-.29c.33-.19.58-.45.73-.79.12-.26.18-.64.18-1.14v-.42Z" /><path d="M155.38,91.94v-6.72h1v1.02c.26-.48.49-.79.71-.94.22-.15.45-.23.71-.23.37,0,.75.12,1.14.37l-.38,1.06c-.27-.16-.54-.25-.81-.25-.24,0-.46.07-.65.22-.19.15-.33.36-.41.62-.12.41-.18.85-.18,1.33v3.52h-1.11Z" /><path d="M162.02,90.92l.16,1.01c-.31.07-.59.1-.84.1-.4,0-.72-.07-.94-.2-.22-.13-.38-.3-.47-.52-.09-.21-.14-.66-.14-1.34v-3.87h-.81v-.89h.81v-1.66l1.1-.68v2.35h1.12v.89h-1.12v3.93c0,.32.02.53.06.63.04.09.1.17.19.22.09.05.21.08.38.08.12,0,.29-.01.49-.04" /><path d="M163.11,91.94v-6.72h.99v.94c.21-.33.48-.59.82-.79.34-.2.73-.3,1.17-.3.48,0,.88.1,1.19.31.31.21.53.5.66.87.52-.78,1.19-1.18,2.02-1.18.65,0,1.15.18,1.5.55.35.37.52.94.52,1.7v4.61h-1.1v-4.23c0-.46-.04-.78-.11-.98-.07-.2-.2-.36-.39-.48-.19-.12-.41-.18-.67-.18-.46,0-.84.16-1.15.47-.3.31-.46.82-.46,1.51v3.9h-1.11v-4.37c0-.51-.09-.89-.27-1.14-.18-.25-.48-.38-.89-.38-.31,0-.6.08-.87.25-.27.17-.46.42-.58.74-.12.32-.18.79-.18,1.4v3.49h-1.11Z" /><path d="M178.11,89.77l1.15.15c-.18.69-.52,1.22-1.01,1.6-.49.38-1.11.57-1.87.57-.96,0-1.72-.3-2.28-.91-.56-.61-.84-1.45-.84-2.55s.28-2.01.85-2.63c.57-.62,1.3-.94,2.21-.94s1.59.31,2.15.92c.56.61.83,1.47.83,2.58,0,.07,0,.17,0,.3h-4.89c.04.74.24,1.3.61,1.7.37.39.82.59,1.37.59.41,0,.75-.11,1.04-.33.29-.22.52-.57.68-1.05M174.47,87.93h3.66c-.05-.57-.19-.99-.42-1.27-.35-.44-.81-.66-1.38-.66-.51,0-.94.18-1.29.53-.35.35-.54.82-.58,1.4" /><path d="M180.66,91.94v-6.72h1v.96c.48-.74,1.18-1.11,2.08-1.11.39,0,.76.07,1.09.22.33.15.58.34.74.57.16.24.28.52.34.84.04.21.06.58.06,1.11v4.13h-1.11v-4.09c0-.46-.04-.81-.13-1.04-.09-.23-.24-.41-.46-.55-.22-.14-.48-.21-.77-.21-.47,0-.88.15-1.22.46-.34.31-.51.89-.51,1.75v3.67h-1.11Z" /><path d="M190.11,90.92l.16,1.01c-.31.07-.59.1-.84.1-.4,0-.72-.07-.94-.2-.22-.13-.38-.3-.47-.52-.09-.21-.14-.66-.14-1.34v-3.87h-.81v-.89h.81v-1.66l1.1-.68v2.35h1.12v.89h-1.12v3.93c0,.32.02.53.06.63.04.09.1.17.19.22.09.05.21.08.38.08.12,0,.29-.01.49-.04" /><path d="M191.5,85.22h1.26v1.3h-1.26v-1.3ZM191.5,90.64h1.26v1.3h-1.26v-1.3Z" /><path d="M125.26,120.14v-9.28h3.84c.97,0,1.67.08,2.11.25.44.17.79.46,1.05.89.26.43.39.91.39,1.46,0,.7-.2,1.27-.6,1.72-.4.45-.99.74-1.79.86.39.24.72.5.98.78.26.28.6.78,1.04,1.51l1.1,1.81h-2.18l-1.32-2.02c-.47-.72-.79-1.18-.96-1.36-.17-.19-.36-.32-.55-.39-.19-.07-.5-.1-.92-.1h-.37v3.87h-1.83ZM127.09,114.79h1.35c.88,0,1.42-.04,1.64-.11.22-.08.39-.21.51-.39.12-.18.18-.42.18-.7,0-.31-.08-.56-.24-.76-.16-.19-.39-.31-.69-.36-.15-.02-.59-.03-1.33-.03h-1.42v2.35Z" /><polygon points="134.38 120.14 134.38 110.86 141.08 110.86 141.08 112.43 136.2 112.43 136.2 114.49 140.74 114.49 140.74 116.05 136.2 116.05 136.2 118.58 141.26 118.58 141.26 120.14 134.38 120.14" /><path d="M142.8,120.14v-9.28h2.93c1.11,0,1.83.05,2.17.14.52.14.95.44,1.3.91.35.47.52,1.07.52,1.81,0,.57-.1,1.05-.3,1.44-.2.39-.46.69-.77.91-.31.22-.63.37-.95.44-.44.09-1.07.13-1.89.13h-1.19v3.5h-1.83ZM144.63,112.43v2.63h1c.72,0,1.2-.05,1.44-.15.24-.1.43-.25.57-.46.14-.21.21-.45.21-.72,0-.34-.1-.62-.29-.84-.19-.22-.44-.36-.73-.41-.22-.04-.66-.06-1.31-.06h-.88Z" /><path d="M151.22,110.86h1.83v5.02c0,.8.02,1.31.07,1.55.08.38.26.68.56.91.29.23.7.34,1.21.34s.91-.11,1.17-.33c.26-.22.42-.48.48-.8.05-.32.08-.84.08-1.58v-5.13h1.83v4.87c0,1.11-.05,1.9-.15,2.36-.1.46-.28.85-.55,1.16-.27.32-.62.57-1.06.76-.44.19-1.02.28-1.74.28-.86,0-1.52-.1-1.96-.31-.45-.2-.8-.47-1.06-.8-.26-.33-.43-.67-.51-1.03-.12-.53-.18-1.32-.18-2.35v-4.95Z" /><path d="M160.36,110.86h3.61c.72,0,1.25.03,1.6.09.35.06.67.19.94.38.28.19.51.45.69.78.19.32.28.68.28,1.08,0,.43-.11.83-.34,1.2-.23.36-.54.63-.93.82.55.16.97.44,1.27.84.3.4.44.86.44,1.4,0,.42-.1.83-.29,1.23-.19.4-.45.72-.78.96-.33.24-.74.38-1.22.44-.3.03-1.04.06-2.2.06h-3.08v-9.28ZM162.18,112.41v2.14h1.2c.71,0,1.15-.01,1.33-.03.31-.04.56-.15.74-.33.18-.18.27-.43.27-.72s-.08-.52-.23-.7c-.15-.18-.38-.29-.69-.33-.18-.02-.7-.03-1.56-.03h-1.05ZM162.18,116.1v2.48h1.69c.66,0,1.08-.02,1.25-.06.27-.05.49-.17.66-.37.17-.2.26-.46.26-.79,0-.28-.07-.51-.2-.71-.13-.19-.32-.34-.57-.42-.25-.09-.79-.13-1.62-.13h-1.47Z" /><polygon points="169.52 120.14 169.52 110.94 171.35 110.94 171.35 118.58 175.89 118.58 175.89 120.14 169.52 120.14" /><rect x="177.13" y="110.86" width="1.83" height="9.28" /><path d="M186.48,116.73l1.77.58c-.27,1.01-.72,1.76-1.35,2.26-.63.49-1.43.74-2.4.74-1.2,0-2.19-.42-2.96-1.26-.77-.84-1.16-1.99-1.16-3.45,0-1.54.39-2.74,1.17-3.6.78-.85,1.8-1.28,3.07-1.28,1.11,0,2,.34,2.7,1.01.41.4.72.97.92,1.71l-1.81.44c-.11-.48-.33-.86-.67-1.14-.34-.28-.75-.42-1.24-.42-.67,0-1.21.25-1.63.74-.42.49-.63,1.29-.63,2.4,0,1.17.21,2.01.62,2.51.41.5.95.75,1.6.75.49,0,.9-.16,1.25-.47.35-.32.6-.81.75-1.49" /><path d="M192.96,115.56c0-.95.14-1.74.41-2.38.21-.47.49-.9.84-1.27.36-.38.75-.65,1.17-.83.56-.25,1.21-.37,1.95-.37,1.33,0,2.4.42,3.2,1.27.8.85,1.2,2.03,1.2,3.54s-.4,2.67-1.19,3.51c-.79.85-1.85,1.27-3.18,1.27s-2.41-.42-3.21-1.26c-.79-.84-1.19-2-1.19-3.48M194.84,115.49c0,1.05.24,1.85.71,2.39.47.54,1.07.81,1.8.81s1.32-.27,1.79-.81c.47-.54.7-1.34.7-2.42s-.23-1.86-.68-2.38c-.45-.52-1.06-.78-1.81-.78s-1.36.26-1.82.79c-.46.53-.69,1.33-.69,2.39" /><polygon points="203.17 120.14 203.17 110.86 209.37 110.86 209.37 112.43 204.99 112.43 204.99 114.63 208.77 114.63 208.77 116.2 204.99 116.2 204.99 120.14 203.17 120.14" /><path d="M213.92,117.12l1.78-.18c.11.61.32,1.06.65,1.35.33.29.77.43,1.32.43.59,0,1.03-.13,1.33-.38.3-.26.45-.55.45-.9,0-.22-.06-.41-.19-.56-.13-.15-.34-.29-.66-.4-.21-.08-.7-.21-1.46-.41-.98-.25-1.67-.55-2.06-.92-.55-.51-.83-1.13-.83-1.87,0-.47.13-.91.39-1.33.26-.41.64-.72,1.13-.94.49-.21,1.08-.32,1.78-.32,1.13,0,1.99.25,2.56.77.57.51.87,1.19.9,2.04l-1.83.08c-.08-.48-.25-.82-.5-1.03-.26-.21-.64-.31-1.16-.31s-.95.11-1.25.34c-.19.14-.29.34-.29.58,0,.22.09.41.27.56.23.2.79.41,1.68.62.89.21,1.55.44,1.97.67.43.23.76.54,1,.94.24.4.36.89.36,1.48,0,.53-.14,1.03-.43,1.49-.29.46-.69.81-1.22,1.03-.53.23-1.18.34-1.97.34-1.14,0-2.02-.27-2.63-.81-.61-.54-.98-1.33-1.1-2.37" /><path d="M222.44,115.56c0-.95.14-1.74.41-2.38.21-.47.49-.9.84-1.27.36-.38.75-.65,1.17-.83.56-.25,1.21-.37,1.95-.37,1.33,0,2.4.42,3.2,1.27.8.85,1.2,2.03,1.2,3.54s-.4,2.67-1.19,3.51c-.79.85-1.85,1.27-3.18,1.27s-2.41-.42-3.21-1.26c-.79-.84-1.19-2-1.19-3.48M224.32,115.49c0,1.05.24,1.85.71,2.39.47.54,1.07.81,1.8.81s1.32-.27,1.79-.81c.47-.54.7-1.34.7-2.42s-.23-1.86-.68-2.38c-.45-.52-1.06-.78-1.81-.78s-1.36.26-1.82.79c-.46.53-.69,1.33-.69,2.39" /><path d="M232.62,110.86h1.83v5.02c0,.8.02,1.31.07,1.55.08.38.26.68.56.91.29.23.7.34,1.21.34s.91-.11,1.17-.33.42-.48.48-.8c.05-.32.08-.84.08-1.58v-5.13h1.83v4.87c0,1.11-.05,1.9-.15,2.36-.1.46-.28.85-.55,1.16-.27.32-.62.57-1.06.76-.44.19-1.02.28-1.74.28-.86,0-1.52-.1-1.96-.31-.45-.2-.8-.47-1.06-.8-.26-.33-.43-.67-.51-1.03-.12-.53-.18-1.32-.18-2.35v-4.95Z" /><polygon points="243.79 120.14 243.79 112.43 241.11 112.43 241.11 110.86 248.29 110.86 248.29 112.43 245.62 112.43 245.62 120.14 243.79 120.14" /><polygon points="249.48 120.14 249.48 110.86 251.3 110.86 251.3 114.51 254.88 114.51 254.88 110.86 256.71 110.86 256.71 120.14 254.88 120.14 254.88 116.08 251.3 116.08 251.3 120.14 249.48 120.14" /><path d="M269.79,120.14h-1.99l-.79-2.11h-3.61l-.75,2.11h-1.94l3.52-9.28h1.93l3.62,9.28ZM266.43,116.47l-1.25-3.44-1.22,3.44h2.47Z" /><polygon points="270.78 120.14 270.78 110.86 276.97 110.86 276.97 112.43 272.6 112.43 272.6 114.63 276.38 114.63 276.38 116.2 272.6 116.2 272.6 120.14 270.78 120.14" /><path d="M278.49,120.14v-9.28h3.84c.97,0,1.67.08,2.11.25.44.17.79.46,1.05.89.26.43.39.91.39,1.46,0,.7-.2,1.27-.6,1.72-.4.45-.99.74-1.79.86.39.24.72.5.98.78.26.28.6.78,1.04,1.51l1.1,1.81h-2.18l-1.32-2.02c-.47-.72-.79-1.18-.96-1.36-.17-.19-.36-.32-.55-.39-.19-.07-.5-.1-.92-.1h-.37v3.87h-1.83ZM280.31,114.79h1.35c.88,0,1.42-.04,1.64-.11.22-.08.39-.21.51-.39.12-.18.19-.42.19-.7,0-.31-.08-.56-.24-.76-.16-.19-.39-.31-.69-.36-.15-.02-.59-.03-1.33-.03h-1.42v2.35Z" /><rect x="287.55" y="110.86" width="1.83" height="9.28" /><path d="M296.9,116.73l1.77.58c-.27,1.01-.72,1.76-1.35,2.26-.63.49-1.43.74-2.4.74-1.2,0-2.19-.42-2.96-1.26-.77-.84-1.16-1.99-1.16-3.45,0-1.54.39-2.74,1.17-3.6.78-.85,1.8-1.28,3.07-1.28,1.11,0,2,.34,2.7,1.01.41.4.72.97.92,1.71l-1.81.44c-.11-.48-.33-.86-.67-1.14-.34-.28-.75-.42-1.24-.42-.67,0-1.21.25-1.63.74-.42.49-.63,1.29-.63,2.4,0,1.17.21,2.01.62,2.51.41.5.95.75,1.6.75.49,0,.9-.16,1.25-.47.35-.32.6-.81.75-1.49" /><path d="M308.39,120.14h-1.99l-.79-2.11h-3.61l-.75,2.11h-1.94l3.52-9.28h1.93l3.62,9.28ZM305.03,116.47l-1.25-3.44-1.22,3.44h2.47Z" /><path d="M125.5,18.87h2.59v8.75c1.08-1.36,2.43-2.03,4.03-2.03.87,0,1.66.22,2.35.67.69.45,1.21,1.07,1.55,1.86.34.79.51,1.96.51,3.52v7.66h-2.59v-8.32c0-.98-.24-1.78-.71-2.38-.47-.6-1.09-.9-1.86-.9-.57,0-1.11.15-1.61.45-.5.3-1.06.8-1.67,1.51v9.64h-2.59v-20.43Z" /><path d="M140.45,20.19c.43,0,.79.15,1.1.45.3.3.46.67.46,1.11s-.15.8-.46,1.11c-.3.31-.67.47-1.1.47-.4,0-.75-.16-1.05-.47-.3-.32-.46-.68-.46-1.1s.15-.77.46-1.09c.3-.32.66-.48,1.05-.48M139.17,25.85h2.59v13.45h-2.59v-13.45Z" /><path d="M143.79,30.5c0-1.43.51-2.57,1.53-3.4,1.02-.83,2.42-1.25,4.18-1.25h5.4v2.08h-2.65c.51.54.87,1.02,1.07,1.46.2.44.3.94.3,1.51,0,.7-.19,1.39-.58,2.07-.39.68-.89,1.2-1.5,1.56-.61.36-1.62.65-3.01.86-.98.15-1.47.49-1.47,1.04,0,.31.18.57.55.77.37.2,1.03.41,1.99.62,1.61.36,2.64.64,3.1.85.46.2.88.5,1.25.88.63.64.94,1.45.94,2.43,0,1.28-.55,2.3-1.66,3.06-1.11.76-2.59,1.14-4.44,1.14s-3.37-.38-4.48-1.15c-1.12-.77-1.68-1.79-1.68-3.08,0-1.82,1.1-3,3.29-3.52-.87-.58-1.31-1.15-1.31-1.71,0-.43.19-.82.56-1.17.38-.35.88-.61,1.52-.77-1.93-.88-2.89-2.3-2.89-4.26M148.05,39.93c-.87,0-1.59.19-2.15.57-.56.38-.83.87-.83,1.46,0,1.38,1.22,2.08,3.65,2.08,1.15,0,2.04-.17,2.67-.52.63-.35.95-.84.95-1.47s-.4-1.13-1.2-1.53c-.8-.39-1.83-.59-3.09-.59M148.66,28.16c-.7,0-1.3.24-1.8.73-.49.49-.74,1.07-.74,1.75s.24,1.27.73,1.72c.49.45,1.1.68,1.84.68s1.34-.23,1.83-.69c.49-.46.73-1.04.73-1.73s-.25-1.29-.74-1.76c-.49-.47-1.11-.7-1.85-.7" /><path d="M155.81,18.87h2.59v8.75c1.08-1.36,2.43-2.03,4.03-2.03.87,0,1.66.22,2.35.67.69.45,1.21,1.07,1.55,1.86.34.79.51,1.96.51,3.52v7.66h-2.59v-8.32c0-.98-.24-1.78-.71-2.38-.47-.6-1.09-.9-1.86-.9-.57,0-1.11.15-1.61.45-.5.3-1.06.8-1.67,1.51v9.64h-2.59v-20.43Z" /><path d="M180.59,32.81h-9.22c.07,1.29.49,2.31,1.26,3.07.77.76,1.77,1.14,3,1.14,1.71,0,3.29-.55,4.73-1.64v2.6c-.8.55-1.59.94-2.37,1.17-.78.23-1.7.35-2.76.35-1.44,0-2.61-.31-3.51-.92-.89-.61-1.61-1.44-2.14-2.48-.54-1.04-.81-2.24-.81-3.6,0-2.05.56-3.71,1.7-4.99,1.13-1.28,2.6-1.92,4.4-1.92s3.13.62,4.16,1.87c1.04,1.25,1.55,2.92,1.55,5.02v.34ZM171.42,31.22h6.6c-.07-1.06-.38-1.88-.93-2.46-.55-.57-1.29-.86-2.22-.86s-1.69.29-2.29.86c-.59.58-.98,1.39-1.16,2.46" /><path d="M185.13,25.85v3.09l.14-.23c1.25-2.08,2.51-3.11,3.76-3.11.98,0,2,.51,3.07,1.52l-1.37,2.34c-.9-.88-1.74-1.32-2.51-1.32-.84,0-1.56.41-2.17,1.23-.61.82-.92,1.79-.92,2.91v7.03h-2.61v-13.45h2.61Z" /><path d="M213.19,32.81h-9.22c.07,1.29.49,2.31,1.26,3.07.77.76,1.77,1.14,3,1.14,1.71,0,3.29-.55,4.73-1.64v2.6c-.8.55-1.59.94-2.37,1.17-.78.23-1.7.35-2.76.35-1.44,0-2.61-.31-3.51-.92-.89-.61-1.61-1.44-2.14-2.48-.54-1.04-.81-2.24-.81-3.6,0-2.05.56-3.71,1.7-4.99,1.13-1.28,2.6-1.92,4.4-1.92s3.13.62,4.16,1.87c1.04,1.25,1.55,2.92,1.55,5.02v.34ZM204.03,31.22h6.6c-.07-1.06-.38-1.88-.93-2.46-.55-.57-1.29-.86-2.22-.86s-1.69.29-2.29.86c-.59.58-.98,1.39-1.16,2.46" /><path d="M223.7,18.87h2.61v20.43h-5.54c-1.94,0-3.49-.63-4.64-1.89-1.15-1.26-1.73-2.94-1.73-5.06,0-1.98.61-3.61,1.82-4.88,1.21-1.28,2.76-1.92,4.64-1.92.87,0,1.82.19,2.85.57v-7.25ZM223.7,37.02v-8.53c-.81-.42-1.63-.63-2.45-.63-1.29,0-2.32.43-3.09,1.3-.77.87-1.15,2.04-1.15,3.51,0,1.38.33,2.45,1,3.2.4.45.82.75,1.27.91.45.16,1.25.23,2.41.23h2.01Z" /><path d="M237.14,39.3v-1.71c-.55.61-1.18,1.09-1.89,1.43-.71.34-1.41.51-2.12.51-.83,0-1.59-.21-2.29-.64-.7-.42-1.23-1-1.58-1.73-.36-.73-.53-1.93-.53-3.62v-7.71h2.59v7.68c0,1.41.2,2.4.59,2.96.39.56,1.09.84,2.07.84,1.24,0,2.29-.62,3.15-1.86v-9.62h2.59v13.45h-2.59Z" /><path d="M252.17,36.16v2.63c-1.3.5-2.58.75-3.82.75-2.05,0-3.69-.62-4.91-1.87-1.22-1.25-1.83-2.92-1.83-5.02s.59-3.82,1.78-5.12c1.19-1.3,2.75-1.94,4.69-1.94.67,0,1.28.07,1.82.2s1.2.38,1.99.74v2.84c-1.31-.86-2.53-1.29-3.65-1.29s-2.13.42-2.88,1.26c-.75.84-1.13,1.92-1.13,3.22,0,1.37.41,2.47,1.22,3.28.81.81,1.91,1.21,3.29,1.21,1,0,2.14-.3,3.44-.89" /><path d="M262.3,31.22v5.72c0,.46.15.69.46.69s.8-.24,1.47-.72v1.62c-.59.39-1.06.66-1.42.8-.36.14-.73.21-1.12.21-1.11,0-1.77-.45-1.97-1.35-1.1.88-2.28,1.32-3.52,1.32-.91,0-1.67-.31-2.28-.93-.61-.62-.91-1.4-.91-2.33,0-.85.3-1.61.89-2.27.59-.67,1.44-1.2,2.53-1.59l3.32-1.17v-.72c0-1.62-.79-2.43-2.37-2.43-1.42,0-2.79.75-4.13,2.25v-2.91c1.01-1.22,2.46-1.83,4.35-1.83,1.42,0,2.55.38,3.41,1.14.29.24.54.57.77.97.23.4.37.81.44,1.21.06.4.09,1.17.09,2.3M259.75,36.64v-3.99l-1.74.69c-.88.36-1.51.72-1.87,1.09-.37.37-.55.82-.55,1.37s.17,1.01.52,1.36c.35.35.8.53,1.35.53.83,0,1.59-.35,2.3-1.04" /><path d="M263.64,27.98l4.88-4.91v2.78h4.15v2.4h-4.15v6.6c0,1.54.62,2.31,1.87,2.31.93,0,1.92-.32,2.95-.96v2.49c-1,.58-2.09.86-3.26.86s-2.18-.36-2.96-1.07c-.25-.21-.45-.46-.61-.72-.16-.27-.3-.62-.41-1.05-.11-.43-.16-1.26-.16-2.48v-5.97h-2.28v-.26Z" /><path d="M275.49,20.19c.43,0,.79.15,1.1.45.3.3.46.67.46,1.11s-.15.8-.46,1.11c-.3.31-.67.47-1.1.47-.4,0-.75-.16-1.06-.47s-.46-.68-.46-1.1.15-.77.46-1.09c.3-.32.66-.48,1.06-.48M274.2,25.85h2.59v13.45h-2.59v-13.45Z" /><path d="M285.77,25.82c2,0,3.65.66,4.97,1.98,1.32,1.32,1.98,2.98,1.98,4.98s-.67,3.55-2.01,4.83c-1.34,1.28-3.03,1.92-5.06,1.92s-3.61-.65-4.93-1.95c-1.32-1.3-1.98-2.93-1.98-4.88s.67-3.61,2-4.92c1.34-1.31,3.01-1.97,5.02-1.97M285.62,28.22c-1.25,0-2.27.42-3.06,1.26-.8.84-1.2,1.91-1.2,3.2s.41,2.34,1.23,3.15c.82.81,1.87,1.22,3.15,1.22s2.32-.41,3.13-1.24c.81-.82,1.22-1.88,1.22-3.17s-.42-2.34-1.27-3.17-1.91-1.26-3.19-1.26" /><path d="M297.15,25.85v1.71c1.16-1.32,2.48-1.97,3.95-1.97.82,0,1.58.22,2.28.65.7.43,1.24,1.03,1.6,1.78.36.76.55,1.95.55,3.59v7.69h-2.59v-7.66c0-1.37-.2-2.36-.61-2.95-.41-.59-1.09-.88-2.05-.88-1.23,0-2.27.63-3.12,1.89v9.61h-2.65v-13.45h2.65Z" /><rect x="124.57" y="76.31" width="183.52" height="1.61" /></svg>

