<!-- Generator: Adobe Illustrator 28.3.0, SVG Export Plug-In . SVG Version: 6.00 Build 0)  -->
<svg version="1.1" id="Layer_1" xmlns="http://www.w3.org/2000/svg" x="0px" y="0px"
	 viewBox="0 0 841.9 414.6" style="enable-background:new 0 0 841.9 414.6;" xml:space="preserve">
<style type="text/css">
	.st0{fill:#FFFFFF;}
</style>
<g>
	<path class="st0" d="M721.1,278.5c8.2,0,13.6-6.2,13.6-14.8c0-8.9-6.7-14.1-13.6-14.1c-6.9,0-13.6,5.2-13.6,14.1
		C707.6,272.2,713,278.5,721.1,278.5 M721.1,253.1c6.2,0,8.3,5.6,8.3,10.6c0,5.2-1.8,11.2-8.3,11.2c-6.4,0-8.2-6.1-8.2-11.2
		C712.9,258.7,715,253.1,721.1,253.1"/>
	<path class="st0" d="M751.2,274.9c-5.2,0-7.8-5.6-7.8-11.5c0-5.8,2.4-10.4,8.1-10.4c5.4,0,8.2,4.9,8.2,10
		C759.7,269.3,757.2,274.9,751.2,274.9 M764.7,250.2h-5v3.8h-0.1c-1.5-2.8-5.1-4.5-8.4-4.5c-7.9,0-13.2,6.9-13.2,14.1
		c0,8.8,4.7,14.8,12.3,14.8c4.4,0,7.3-2.3,9.2-5h0.1v3.7c0,7.2-3.5,10.9-9.1,10.9c-3.4,0-6.5-0.6-9.9-2.5l-1.4,3.3
		c3.2,2,7.3,2.8,11.4,2.8c7.4,0,14-4.2,14-14.8V250.2z"/>
	<path class="st0" d="M768,251.1l10.8,25.2c-3.9,10.9-6.3,11.8-9.8,11.8h-1.9v3.5h2.5c4.7,0,8.2-3.1,10.8-8.9l14.2-31.9l-4.4-1
		c-2.9,7-5.8,14.1-8.7,22.4h-0.1c-2.8-8.3-5.6-15.4-8.4-22.4L768,251.1z"/>
	<path class="st0" d="M256.4,190.1c-2.5-2-6.4-3.9-11.9-3.9c-13.8,0-21.4,10.1-21.4,19.8c0,10.6,7,20.1,20.8,20.1
		c5,0,9.5-1.8,12.1-3.5l-2.1-3.2c-2.3,1.5-5.6,2.9-9.8,2.9c-8.4,0-15.2-6.6-15.2-16.3c0-9,5.6-15.9,15.2-15.9
		c4.1,0,8.3,1.9,10.1,3.4L256.4,190.1z"/>
	<path class="st0" d="M275.7,220.7c0,1.8,0.1,3.5,0.8,4.7h5.4c-0.9-2-1.2-4.6-1.2-6.7v-12.1c0-8.1-6.1-9.4-10.2-9.4
		c-3.9,0-6.7,1.1-9.4,3.7l1.9,2.5c2-1.7,4-3,7.2-3c2.7,0,5.3,2.1,5.5,5.5l-6.7,2.1c-5.7,1.7-9.8,4.7-9.8,9.5c0,5.2,3.2,8.5,7.8,8.5
		c2.5,0,5-1.7,6.9-3.6L275.7,220.7z M275.7,209.3c0.7,8.6-3.9,13-7.4,13c-2,0-4-1.8-4-4.7c0-3.5,2.3-5.6,6.6-6.9L275.7,209.3z"/>
	<path class="st0" d="M301.1,222.6c-6.2,0-8.6-5.1-8.6-10.4c0-7.1,3-11.5,8.7-11.5c5.1,0,7.7,5.1,7.7,10.1
		C308.8,215.9,307.1,222.6,301.1,222.6 M292.5,197.9h-5v41.3h5v-17.4h0.1c2,2.6,5,4.3,8.5,4.3c8.1,0,13.1-6.9,13.1-15.3
		c0-4-1.8-13.6-12.5-13.6c-3.1,0-7,1.7-9,5h-0.1V197.9z"/>
	<path class="st0" d="M341.2,212c0.6-7.2-2.3-14.8-10.6-14.8c-6.2,0-13.1,4.4-13.1,13.9c0,9.7,5.7,15,14.3,15c2.9,0,6.3-1.2,9.2-3.2
		l-1.4-2.7c-1.9,1.4-5,2.4-7.6,2.4c-5.5,0-9.4-5.1-9.3-10.6H341.2z M322.9,208.7c0.2-3.5,2.3-7.9,7.6-7.9c4.4,0,6.2,3.6,6.2,7.9
		H322.9z"/>
	<path class="st0" d="M366.8,190.7h3.7c5.7,0,8.1,3.1,8.1,7.3c0,5.7-3.2,8.5-8.4,8.8l-1.8,0.1v3.5h1.7c8.7,0,14.2-5.9,14.2-12.4
		c0-7.5-5-11.1-13.2-11.1h-9.7v38.6h5.3V190.7z"/>
	<path class="st0" d="M411.2,212c0.5-7.2-2.3-14.8-10.6-14.8c-6.2,0-13.1,4.4-13.1,13.9c0,9.7,5.7,15,14.3,15c2.9,0,6.3-1.2,9.2-3.2
		l-1.4-2.7c-1.9,1.4-5,2.4-7.6,2.4c-5.5,0-9.4-5.1-9.3-10.6H411.2z M393,208.7c0.2-3.5,2.3-7.9,7.6-7.9c4.4,0,6.2,3.6,6.2,7.9H393z"
		/>
	<path class="st0" d="M421.1,197.9h-4.9v27.6h5v-16.6c0-5.3,3.6-8,7.5-8c4.5,0,6.7,2.7,6.7,7.9v16.7h5v-17.8
		c0-6.9-3.4-10.5-9.8-10.5c-2.9,0-6.8,1.3-9.4,4.1V197.9z"/>
	<path class="st0" d="M447.4,225.4h5v-27.6h-5V225.4z M449.8,192.1c2.4,0,3.1-1.9,3.1-3.4c0-1.4-1.2-2.9-3.1-2.9
		c-2,0-3.1,1.5-3.1,2.9C446.7,190.3,447.4,192.1,449.8,192.1"/>
	<path class="st0" d="M464.3,197.9h-4.9v27.6h5v-16.6c0-5.3,3.6-8,7.5-8c4.5,0,6.7,2.7,6.7,7.9v16.7h5v-17.8
		c0-6.9-3.4-10.5-9.8-10.5c-2.9,0-6.8,1.3-9.4,4.1V197.9z"/>
	<path class="st0" d="M505.4,199.7c-1.4-1.4-4.1-2.5-6.8-2.5c-4.9,0-9.2,2.8-9.2,7.1c0,3.7,2.8,5.6,5.9,7.9c2.6,1.9,5.5,3.3,5.5,6.5
		c0,2.7-2.4,3.9-4.7,3.9c-2.2,0-4.4-1.3-6-2.8l-2.4,2.8c1.8,2.1,5.3,3.5,8.5,3.5c5.1,0,9.6-3.1,9.6-7.8c0-3.9-2.3-6.1-5.8-8.8
		c-3.1-2.4-5.7-3.5-5.7-5.8c0-2.3,2.3-3.1,4-3.1c1.5,0,3.1,0.4,5.1,1.8L505.4,199.7z"/>
	<path class="st0" d="M529.2,225.4h4.9v-27.6h-5V214c0,5.3-3.1,8.5-6.9,8.5c-4.5,0-6.7-2.8-6.7-7.9v-16.7h-5v17.8
		c0,6.9,3.4,10.5,9.8,10.5c3.6,0,6.1-1.4,8.9-3.9V225.4z"/>
</g>
<g>
	<path class="st0" d="M370.2,345.5H368v-18.8h2.2v2.6c1.7-1.9,3.5-3.1,6.1-3.1c2.3,0,4.4,0.7,5.7,2.7c0.9,1.3,0.9,2.8,0.9,4.3v12.3
		h-2.2v-12.3c0-3.4-1.4-5.1-4.9-5.1c-2.7,0-4.5,1.7-5.2,3.7c-0.4,1.2-0.5,2.3-0.5,3.6V345.5z"/>
	<path class="st0" d="M403.7,328.1c-3.7,0-6.4,2.7-6.4,7.4c-0.2,4.7,1.9,8.6,6.4,8.6c4,0,6.4-3.6,6.4-7.9
		C410.1,331.6,407.8,328.1,403.7,328.1 M410.1,326.7h2.2v17c0,5.1-1.7,9.5-8.8,9.5c-5.5,0-7.8-3.2-8-5.4h2.3
		c0.7,2.8,3.1,3.5,5.6,3.5c6,0,6.8-4.4,6.7-8.8c-1.4,2.3-4.1,3.5-6.7,3.5c-5.7,0-8.4-4.7-8.4-10c0-5.6,2.4-9.9,8.5-9.9
		c2.4,0,5.3,1.3,6.6,3.8h0.1V326.7z"/>
	<path class="st0" d="M440.5,328.5v-1.8h2.8v-3c0-3,1.1-4.9,4-4.9c0.7,0,1.2,0,1.8,0.1v2c-0.4-0.1-0.9-0.2-1.3-0.2
		c-2.3,0-2.3,1.9-2.3,3.6v2.3h3.6v1.8h-3.6v17h-2.2v-17H440.5z"/>
	<path class="st0" d="M472.5,326.7h2.2v18.8h-2.2v-2.6c-1.2,1.3-2.8,3.1-6.1,3.1c-5,0-6.7-3-6.7-7v-12.4h2.2V339c0,3.2,1.4,5,4.8,5
		c3.6,0,5.7-3,5.7-7.1V326.7z"/>
	<path class="st0" d="M493.9,345.6c-0.5,0.1-1.5,0.4-2.5,0.4c-2.1,0-3.3-0.9-3.3-3.7v-13.8h-2.7v-1.8h2.7v-5.2h2.2v5.2h3.5v1.8h-3.5
		v12.9c0,1.9,0.1,2.7,1.9,2.7c0.6,0,1.2-0.1,1.8-0.3V345.6z"/>
	<path class="st0" d="M517.4,326.7h2.2v18.8h-2.2v-2.6c-1.2,1.3-2.8,3.1-6.1,3.1c-5,0-6.7-3-6.7-7v-12.4h2.2V339c0,3.2,1.4,5,4.8,5
		c3.6,0,5.7-3,5.7-7.1V326.7z"/>
	<path class="st0" d="M534.4,345.5h-2.2v-18.8h2.2v3.5h0.1c1.2-3,3-4,6.1-4v2.4c-4.9-0.1-6.2,3.5-6.2,7.7V345.5z"/>
	<path class="st0" d="M564.5,334.8c0-3.7-2-6.7-6-6.7c-3.9,0-5.9,3.1-6.3,6.7H564.5z M552.2,336.6c0,4.1,2.1,7.5,6.3,7.5
		c2.8,0,5.1-1.6,5.7-4.3h2.4c-1.1,3.6-3.3,6.3-8.1,6.3c-6,0-8.7-4.3-8.7-9.9c0-5.5,3.3-10,8.7-10c5.2,0,8.3,3.7,8.3,10.4H552.2z"/>
	<path class="st0" d="M579.6,339.6c0.7,3.2,2.4,4.4,5.6,4.4c3.2,0,4.7-1.7,4.7-3.5c0-5.5-12.1-1.6-12.1-9c0-3.1,2.4-5.4,6.6-5.4
		c4.1,0,6.7,1.7,7.3,5.9h-2.2c-0.4-2.9-2.4-4-5.1-4c-2.8,0-4.3,1.3-4.3,3.2c0,5.1,12.1,1.9,12.1,9.2c0,3.6-3.2,5.5-7.7,5.5
		s-7-2.8-7.2-6.4H579.6z"/>
	<path class="st0" d="M224.5,239.2v23.6c0,9.9,4.4,15.7,15.2,15.7c9.3,0,14.7-6.2,14.7-14.8v-24.4h-5v24.3c0,5.5-2.4,11.3-9.6,11.3
		c-6.9,0-9.9-4.2-9.9-12.2v-23.4H224.5z"/>
	<path class="st0" d="M266.3,250.2h-4.9v27.6h5v-16.6c0-5.3,3.6-8,7.5-8c4.5,0,6.7,2.7,6.7,7.9v16.7h5v-17.8
		c0-6.9-3.4-10.5-9.8-10.5c-2.9,0-6.8,1.3-9.4,4.1V250.2z"/>
	<path class="st0" d="M292.6,277.8h5v-27.6h-5V277.8z M295.1,244.5c2.4,0,3.1-1.9,3.1-3.4c0-1.4-1.2-2.9-3.1-2.9
		c-2,0-3.1,1.5-3.1,2.9C291.9,242.6,292.6,244.5,295.1,244.5"/>
	<path class="st0" d="M315.3,277.8l12-27.1l-4.4-1c-2.9,7-5.8,14.1-8.7,22.4h-0.1c-2.8-8.3-5.6-15.4-8.4-22.4l-5,1.3l11.4,26.8
		H315.3z"/>
	<path class="st0" d="M352.3,264.4c0.6-7.2-2.3-14.8-10.6-14.8c-6.2,0-13.1,4.4-13.1,13.9c0,9.7,5.7,15,14.3,15
		c2.9,0,6.3-1.2,9.2-3.2l-1.4-2.7c-1.9,1.4-5,2.4-7.6,2.4c-5.5,0-9.4-5.1-9.3-10.6H352.3z M334.1,261c0.2-3.5,2.3-7.9,7.6-7.9
		c4.4,0,6.2,3.6,6.2,7.9H334.1z"/>
	<path class="st0" d="M362.2,250.2h-4.8v27.6h5V263c0-6.1,2.1-8.7,4.6-8.7c1.3,0,2.5,0.6,3.7,1.2l2.3-3.2c-1.5-1.8-3.4-2.7-4.6-2.7
		c-1.2,0-3,0.8-4.1,2l-2,2.1V250.2z"/>
	<path class="st0" d="M390.3,252.1c-1.4-1.4-4.1-2.5-6.8-2.5c-4.9,0-9.1,2.8-9.1,7.1c0,3.7,2.8,5.6,5.9,7.9c2.6,1.9,5.5,3.3,5.5,6.5
		c0,2.7-2.4,3.9-4.7,3.9c-2.2,0-4.4-1.3-6-2.8l-2.4,2.8c1.8,2.1,5.3,3.5,8.5,3.5c5.1,0,9.6-3.1,9.6-7.8c0-3.9-2.3-6.1-5.8-8.8
		c-3.1-2.4-5.7-3.5-5.7-5.8c0-2.3,2.3-3.1,4-3.1c1.5,0,3.1,0.4,5.1,1.8L390.3,252.1z"/>
	<path class="st0" d="M395.7,277.8h5v-27.6h-5V277.8z M398.2,244.5c2.4,0,3.1-1.9,3.1-3.4c0-1.4-1.2-2.9-3.1-2.9
		c-2,0-3.1,1.5-3.1,2.9C395,242.6,395.8,244.5,398.2,244.5"/>
	<path class="st0" d="M413.8,242l-5,1.7v6.6H405v2.9h3.9v16.5c0,5.6,2.6,8.8,8.2,8.8c1.9,0,3.9-0.7,5.6-1.8l-1.2-2.8
		c-0.9,0.5-2,0.9-3.8,0.9c-3,0-3.8-2.3-3.8-6.2v-15.6h7.2v-2.9h-7.2V242z"/>
	<path class="st0" d="M422,251.1l10.8,25.2c-3.9,10.9-6.3,11.8-9.8,11.8h-1.9v3.5h2.5c4.7,0,8.2-3.1,10.8-8.9l14.2-31.9l-4.4-1
		c-2.9,7-5.8,14.1-8.7,22.4h-0.1c-2.8-8.3-5.6-15.4-8.4-22.4L422,251.1z"/>
	<path class="st0" d="M478.2,278.5c8.2,0,13.6-6.2,13.6-14.8c0-8.9-6.7-14.1-13.6-14.1c-7,0-13.6,5.2-13.6,14.1
		C464.6,272.2,470.1,278.5,478.2,278.5 M478.2,253.1c6.2,0,8.3,5.6,8.3,10.6c0,5.2-1.8,11.2-8.3,11.2c-6.5,0-8.2-6.1-8.2-11.2
		C470,258.7,472,253.1,478.2,253.1"/>
	<path class="st0" d="M502.2,277.8v-24.7h6.6v-2.9h-6.6v-5c0-4.5,2.8-4.7,3.6-4.7c1.1,0,1.9,0.2,2.7,0.4l1.1-2.5
		c-1.2-0.9-2.9-1.2-4.4-1.2c-3.1,0-8.1,2.2-8.1,9.6v3.4h-4.4v2.9h4.4v24.7H502.2z"/>
</g>
<g>
	<path class="st0" d="M574.3,264.4c0.6-7.2-2.3-14.8-10.6-14.8c-6.2,0-13.1,4.4-13.1,13.9c0,9.7,5.7,15,14.3,15
		c2.9,0,6.3-1.2,9.2-3.2l-1.4-2.7c-1.9,1.4-5,2.4-7.6,2.4c-5.5,0-9.4-5.1-9.3-10.6H574.3z M556,261c0.2-3.5,2.3-7.9,7.6-7.9
		c4.4,0,6.2,3.6,6.2,7.9H556z"/>
	<path class="st0" d="M599.1,272.8c-2.2,1.4-4.4,2-6.7,2c-6.7,0-9.6-5.4-9.6-11.1c0-7.5,5.1-10.5,9.7-10.5c2,0,4.1,0.7,5.7,1.4
		l1.7-2.8c-2-1.5-4.6-2.3-7.4-2.3c-10.4,0-14.9,7.5-14.9,14.4c0,3.8,1.7,14.5,14.7,14.5c2.4,0,5.6-0.9,8.3-2.9L599.1,272.8z"/>
	<path class="st0" d="M609.6,237.3h-4.9v40.5h5v-16.6c0-5.3,3.6-8,7.5-8c4.5,0,6.7,2.7,6.7,7.9v16.7h5v-17.8
		c0-6.9-3.4-10.5-9.8-10.5c-2.9,0-6.8,1.3-9.4,4.1V237.3z"/>
	<path class="st0" d="M640.7,250.2h-4.9v27.6h5v-16.6c0-5.3,3.6-8,7.5-8c4.5,0,6.7,2.7,6.7,7.9v16.7h5v-17.8
		c0-6.9-3.4-10.5-9.8-10.5c-2.9,0-6.8,1.3-9.4,4.1V250.2z"/>
	<path class="st0" d="M678.7,278.5c8.2,0,13.6-6.2,13.6-14.8c0-8.9-6.7-14.1-13.6-14.1s-13.6,5.2-13.6,14.1
		C665.1,272.2,670.5,278.5,678.7,278.5 M678.7,253.1c6.2,0,8.3,5.6,8.3,10.6c0,5.2-1.8,11.2-8.3,11.2c-6.5,0-8.2-6.1-8.2-11.2
		C670.4,258.7,672.5,253.1,678.7,253.1"/>
</g>
<g>
	<g>
		<path class="st0" d="M247.5,332.6c-0.8-2.8-2.7-4.5-5.6-4.5c-4.5,0-6.3,4.1-6.3,8c0,4,1.8,7.9,6.3,7.9c3.2,0,5.3-1.9,5.8-5.1h2.3
			c-0.8,4.2-3.4,7-8.1,7c-6,0-8.7-4.3-8.7-9.9c0-5.2,3-10,8.7-10c4.3,0,7.2,2.1,7.8,6.4H247.5z"/>
		<path class="st0" d="M263.9,345.5h-2.2v-18.8h2.2v3.5h0.1c1.2-3,3-4,6.1-4v2.4c-4.9-0.1-6.2,3.5-6.2,7.7V345.5z"/>
		<path class="st0" d="M294,334.8c0-3.7-2-6.7-6-6.7c-3.9,0-5.9,3.1-6.3,6.7H294z M281.7,336.6c0,4.1,2.1,7.5,6.3,7.5
			c2.8,0,5.1-1.6,5.7-4.3h2.4c-1.1,3.6-3.3,6.3-8.1,6.3c-6,0-8.7-4.3-8.7-9.9c0-5.5,3.3-10,8.7-10c5.2,0,8.3,3.7,8.3,10.4H281.7z"/>
		<path class="st0" d="M320.1,335.6c-1.9,0.8-3.7,0.9-5.6,1.1c-3.3,0.3-5.3,1.5-5.3,4c0,2.3,2,3.4,4.1,3.4c3.5,0,6.9-1.7,6.9-5.5
			V335.6z M316.4,334.5c0.8-0.1,2.1-0.3,2.9-0.6s0.8-1.3,0.8-2c0-2.2-1.3-3.8-4.7-3.8c-3,0-5.1,1-5.5,4.3h-2.2
			c0.3-4.4,3.6-6.2,7.8-6.2c3.8,0,6.8,1.5,6.8,5.9v10.3c0,1.7,0.4,2.1,2.3,1.5v1.7c-0.3,0.1-1.1,0.4-1.7,0.4c-0.4,0-0.7,0-1-0.1
			c-1.5-0.2-1.7-1.5-1.7-2.8c-1.8,2-4.3,3.1-7,3.1c-3.3,0-6.3-1.8-6.3-5.4c0-3.2,2.2-5.1,6.6-5.7L316.4,334.5z"/>
		<path class="st0" d="M341.9,345.6c-0.5,0.1-1.5,0.4-2.5,0.4c-2.1,0-3.3-0.9-3.3-3.7v-13.8h-2.7v-1.8h2.7v-5.2h2.2v5.2h3.5v1.8
			h-3.5v12.9c0,1.9,0.1,2.7,1.9,2.7c0.6,0,1.2-0.1,1.8-0.3V345.6z"/>
	</g>
	<g>
		<path class="st0" d="M196,226.6c-7.3-1.6-13.4-3.7-20.1-6.8c-30.1-14-52.4-44.2-51.9-76.7l0-19.8c33.2,35.4,51.9,33,71.9,25.1
			V226.6z"/>
		<path class="st0" d="M124,67.1c0,0,30.1,1.2,49.2-1.2c8.9-1.1,22.8-3.9,22.8-3.9v32C178.9,67.1,124,67.1,124,67.1"/>
		<path class="st0" d="M196.2,102.5C99.7,46.6,94.6,148.8,25.1,68.2C90.4,122.5,99.1,32.4,196.2,102.5"/>
		<path class="st0" d="M236.9,125.8c-74-39.5-75.1,37.4-129.5-21.4C157.9,143.6,162.1,75.6,236.9,125.8"/>
	</g>
	<g>
		<polygon class="st0" points="540.8,277.8 540.8,243.1 553.2,243.1 553.2,239.2 523.1,239.2 523.1,243.1 535.4,243.1 535.4,277.8 
					"/>
		<rect x="697.4" y="237.3" class="st0" width="5" height="40.5"/>
	</g>
	<path class="st0" d="M567.8,220.7c0,1.8,0.1,3.5,0.8,4.7h5.4c-0.9-2-1.2-4.6-1.2-6.7v-12.1c0-8.1-6.1-9.4-10.2-9.4
		c-3.9,0-6.7,1.1-9.4,3.7l1.9,2.5c2-1.7,4-3,7.2-3c2.7,0,5.3,2.1,5.5,5.5l-6.7,2.1c-5.7,1.7-9.8,4.7-9.8,9.5c0,5.2,3.2,8.5,7.8,8.5
		c2.5,0,5-1.7,6.9-3.6L567.8,220.7z M567.8,209.3c0.7,8.6-3.9,13-7.4,13c-2,0-4-1.8-4-4.7c0-3.5,2.3-5.6,6.6-6.9L567.8,209.3z"/>
	<rect x="541.2" y="184.9" class="st0" width="5" height="40.5"/>
	<path class="st0" d="M353,345.5h2.2v-18.8H353V345.5z M352.9,322.6h2.4v-3.2h-2.4V322.6z"/>
</g>
</svg>


