<?xml version="1.0" encoding="UTF-8"?>
<svg id="Layer_1" xmlns="http://www.w3.org/2000/svg" version="1.1" viewBox="0 0 445 73">
  <!-- Generator: Adobe Illustrator 29.6.1, SVG Export Plug-In . SVG Version: 2.1.1 Build 9)  -->
  <defs>
    <style>
      .st0 {
        isolation: isolate;
      }

      .st1, .st2 {
        fill: #fff;
      }

      .st2 {
        stroke: #fff;
        stroke-miterlimit: 3.86;
        stroke-width: 1.7px;
      }
    </style>
  </defs>
  <g id="Foreground">
    <g>
      <g id="UNISA">
        <path id="U" class="st1" d="M18.9,31.3V14.7c0-.5-.7-1.2-1.7-1.2h-.4l-.1-1h5.2v18.9c0,6.5,3.9,10.2,9.2,10.2s9.3-3.8,9.3-10.2V12.5h2.9v18.9c0,9.2-6.5,12.9-12.3,12.9-5.6-.1-12.1-3.8-12.1-13Z"/>
        <path id="N" class="st1" d="M75.5,12.5h2.8v31.2h-3.2l-19.1-26.5v26.4h-3V12.4h3l19.4,26.9V14.6c0-.5-.7-1.2-1.7-1.2h-.4l-.1-1,2.3.1Z"/>
        <path id="I" class="st1" d="M88.2,43.7V15.9l-.1-1.3c0-.5-.7-1.2-1.7-1.2h-.4l-.1-1h5.2v31.2h-2.9s0,.1,0,.1Z"/>
        <path id="S" class="st1" d="M116.6,35.3c0,5.5-4.7,8.9-9.7,8.9-2.7,0-5.2-.8-7.6-2.1l.4-3.1c2.5,1.6,4.3,2.5,7.2,2.5,3.7,0,6.6-2.5,6.6-6.4,0-2.8-2.3-4.3-4.5-5.4-4.1-2.1-10-3.8-10-9.6,0-5,4.3-8.3,9.5-8.3,2.4,0,4.7.6,6.9,1.6l-.4,2.9c-2.1-1.1-4-1.8-6.3-1.8-3.4,0-6.6,1.9-6.6,5.5,0,2.8,2.4,4.1,4.5,5.2,4.5,2.2,10,3.8,10,10.1Z"/>
        <path id="A" class="st1" d="M149.9,42.6h.5l.1,1h-4.4l-4-9.5h-15.2l-4.1,9.5h-3.1l13.6-31.1h2.6l12.6,29.5c.3.3.9.6,1.4.6ZM134.6,16.2l-6.5,15.3h13l-6.5-15.3Z"/>
      </g>
      <line class="st2" x1="160.8" y1="2.5" x2="160.8" y2="43.7"/>
      <g id="FLAMES">
        <path id="FLAME-BLUE" class="st1" d="M232.6,16.1c-31,7.8-49.1-31.7-64.7-1,16.6-12.5,43.8,11.2,64.7,1Z"/>
        <path id="FLAME-RED" class="st1" d="M232.9,7.3c-27.4,15.2-66.3-15.8-65.7,11.2,11.2-10.2,53,5,65.7-11.2Z"/>
        <path id="FLAME-ORANGE" class="st1" d="M218.5,8c-45.2-11.4-51.5-3.7-51.2,10.4-.1,0,2.7-21.5,51.2-10.4Z"/>
      </g>
      <g id="LONG-NAME-LOWERCASE">
        <g id="LONG-NAME-LOWERCASE-1ST-LINE">
          <path id="u" class="st1" d="M170.8,31h-.8v2.7c-.3.4-.5.9-1.1.9s-.9-.4-.9-1.2v-2.4h-.8v2.6c0,.9.5,1.6,1.5,1.6.7,0,1.1-.3,1.4-.8v.7h.8l-.1-4.1c.1,0,0,0,0,0Z"/>
          <path id="n" class="st1" d="M172,35.1h.8v-2.7c.3-.4.5-.9,1.1-.9s.9.4.9,1.2v2.4h.8v-2.6c0-.9-.5-1.6-1.5-1.6-.7,0-1.1.3-1.4.8v-.7h-.7v4.1h0Z"/>
          <path id="i" class="st1" d="M176.7,29v.9h.8v-.9h-.8ZM177.5,35.1v-4.1h-.8v4.1h.8Z"/>
          <polygon id="v" class="st1" points="178.1 31 179.7 35.1 180.5 35.1 182.2 31 181.3 31 180.2 34.3 178.9 31 178.1 31"/>
          <path id="e" class="st1" d="M186,34.2c-.5.3-.9.4-1.4.4-.8,0-1.3-.6-1.4-1.5h3v-.3c0-1.1-.8-1.9-1.8-1.9-1.2,0-2,.9-2,2.1,0,1.3.7,2.2,2.1,2.2.6,0,1.1-.1,1.6-.4l-.1-.6ZM183.3,32.6c0-.6.4-1.1,1.1-1.1s1,.5,1.1,1.1h-2.2Z"/>
          <path id="r" class="st1" d="M187.8,31.9v-.9h-.7v4.1h.8v-2.3c.1-.7.5-1.2,1.1-1.2.2,0,.4,0,.6.3l.2-.7c-.3-.2-.4-.2-.7-.2-.5-.1-1,.2-1.3.9Z"/>
          <path id="s" class="st1" d="M191.7,30.9c-.8,0-1.6.4-1.6,1.2,0,1.3,2.1,1.1,2.1,1.9,0,.4-.4.6-.8.6-.5,0-.8-.1-1.2-.4v.6c.4.3.8.3,1.3.3.7,0,1.5-.4,1.5-1.2,0-1.4-2.1-1.2-2.1-1.9,0-.4.4-.6.8-.6s.7.1,1.1.3v-.6c-.4-.1-.8-.2-1.1-.2Z"/>
          <path id="i2" class="st1" d="M193.9,29v.9h.8v-.9h-.8ZM194.6,35.1v-4.1h-.8v4.1h.8Z"/>
          <path id="t" class="st1" d="M196.1,30.2v.8h-.7v.5h.7v2.4c0,.8.4,1.2,1.1,1.2.4,0,.5-.1.9-.2v-.6c-.3.1-.4.2-.6.2-.4,0-.5-.3-.5-.8v-2.2h1v-.6h-1v-1.3h-.3l-.6.6Z"/>
          <path id="y" class="st1" d="M199.9,34.9l-.2.4c-.2.5-.4.9-.8.9-.2,0-.4,0-.6-.1v.6c.3.1.6.1.8.1.7,0,1.1-.7,1.4-1.4l1.8-4.5h-.8l-1.2,3.2-1.2-3.2h-.8l1.6,4Z"/>
        </g>
        <g id="LONG-NAME-LOWERCASE-2ND-LINE">
          <path id="o" class="st1" d="M169.2,43.7c1.3,0,2.1-1,2.1-2.1,0-1.2-.8-2.1-2.1-2.1s-2.1,1-2.1,2.1c-.1,1.2.7,2.1,2.1,2.1ZM169.2,43.1c-.8,0-1.3-.7-1.3-1.6,0-.8.5-1.5,1.3-1.5s1.3.7,1.3,1.5c0,.9-.5,1.6-1.3,1.6Z"/>
          <path id="f" class="st1" d="M172.4,43.7h.8v-3.5h.8v-.6h-.8v-.4c0-.6.1-1.1.7-1.1.2,0,.4,0,.5.1v-.6c-.2-.1-.5-.1-.8-.1-1,0-1.3.6-1.3,1.7v.4h-.7v.6h.7l.1,3.5h0Z"/>
          <path id="s2" class="st1" d="M178.6,39.4c-.8,0-1.6.4-1.6,1.2,0,1.3,2.1,1.1,2.1,1.9,0,.4-.4.6-.8.6s-.8-.1-1.2-.4v.6c.4.3.8.3,1.3.3.7,0,1.5-.4,1.5-1.2,0-1.4-2.1-1.2-2.1-1.9,0-.4.4-.6.8-.6s.7.1,1.1.3v-.6c-.3-.1-.7-.2-1.1-.2Z"/>
          <path id="o2" class="st1" d="M182.8,43.7c1.3,0,2.1-1,2.1-2.1,0-1.2-.8-2.1-2.1-2.1s-2.1,1-2.1,2.1c-.1,1.2.7,2.1,2.1,2.1ZM182.8,43.1c-.8,0-1.3-.7-1.3-1.6,0-.8.5-1.5,1.3-1.5s1.3.7,1.3,1.5c0,.9-.5,1.6-1.3,1.6Z"/>
          <path id="u2" class="st1" d="M189.4,39.5h-.8v2.8c-.3.4-.5.9-1.1.9s-.9-.4-.9-1.2v-2.5h-.8v2.6c0,.9.5,1.6,1.5,1.6.7,0,1.1-.3,1.4-.8v.7h.8l-.1-4.1h0Z"/>
          <path id="t2" class="st1" d="M190.9,38.7v.8h-.7v.6h.7v2.4c0,.8.4,1.2,1.1,1.2.4,0,.5-.1.9-.2v-.6c-.3.1-.4.2-.6.2-.4,0-.5-.3-.5-.8v-2.2h1v-.6h-1v-1.3h-.3l-.6.5Z"/>
          <path id="h" class="st1" d="M193.6,43.7h.8v-2.7c.3-.4.5-.9,1.1-.9s.9.4.9,1.2v2.4h.8v-2.6c0-.9-.5-1.6-1.5-1.6-.7,0-1.1.3-1.3.8v-2.7h-.8v6.1Z"/>
          <path id="s3" class="st1" d="M204,43.7c0-.2-.1-.4-.1-.8v-2.1c0-.4-.1-.8-.4-1-.3-.3-.8-.4-1.2-.4-.5,0-.9.1-1.4.4v.7c.5-.4.8-.4,1.3-.4.6,0,.8.2.8.8v.4c-1.3,0-2.5.4-2.5,1.5,0,.5.4,1.1,1.3,1.1.5,0,1-.3,1.3-.7v.6l.9-.1h0ZM203.2,41.6v1c-.3.4-.5.7-1.1.7-.4,0-.7-.3-.7-.7,0-.8.8-1,1.8-1Z"/>
          <path id="f2" class="st1" d="M205.3,43.7h.8v-3.5h.8v-.6h-.8v-.4c0-.6.1-1.1.7-1.1.2,0,.4,0,.5.1v-.6c-.2-.1-.5-.1-.8-.1-1,0-1.3.6-1.3,1.7v.4h-.7v.6h.7l.1,3.5h0Z"/>
          <path id="r2" class="st1" d="M208.3,40.4v-.9h-.7v4.1h.8v-2.2c.1-.7.5-1.2,1.1-1.2.2,0,.4,0,.6.3l.2-.7c-.3-.2-.4-.2-.7-.2-.6-.2-1,.2-1.3.8Z"/>
          <path id="i3" class="st1" d="M210.8,37.5v1h.8v-1h-.8ZM211.6,43.7v-4.2h-.8v4.1h.8v.1Z"/>
          <path id="c" class="st1" d="M214.6,43.7c.4,0,.7,0,1.1-.2v-.6c-.4.1-.7.2-1,.2-.9,0-1.4-.6-1.4-1.5s.5-1.6,1.4-1.6c.4,0,.6,0,1,.2v-.6c-.3-.1-.6-.2-1.1-.2-1.3,0-2.1.9-2.1,2.2,0,1.2.8,2.1,2.1,2.1Z"/>
          <path id="a2" class="st1" d="M219.8,43.7c0-.2-.1-.4-.1-.8v-2.1c0-.4-.1-.8-.4-1-.3-.3-.8-.4-1.2-.4-.5,0-.9.1-1.4.4v.7c.5-.4.8-.4,1.3-.4.6,0,.8.2.8.8v.4c-1.3,0-2.5.4-2.5,1.5,0,.5.4,1.1,1.3,1.1.5,0,1-.3,1.3-.7v.6l.9-.1h0ZM219,41.6v1c-.3.4-.5.7-1.1.7-.4,0-.7-.3-.7-.7,0-.8.8-1,1.8-1Z"/>
        </g>
      </g>
    </g>
  </g>
  <g class="st0">
    <path class="st1" d="M20.4,54.5h5.5c5.3,0,7.3,3,7.3,6.8,0,6.6-4.4,10-9.9,10h-5.2l2.3-16.8ZM23.3,69.3c4.5,0,7.5-2.9,7.5-7.7,0-3.5-2.1-5.1-5.4-5.1h-3l-1.7,12.9,2.6-.1h0Z"/>
    <path class="st1" d="M43.4,70.5c-1.4.7-2.7,1.1-4.2,1.1-3.2,0-4.8-1.9-4.8-4.8,0-3.3,1.8-7,6-7,2.5,0,4.1,1.7,4.1,4.4,0,.3,0,.6-.1.9l-.1.8h-7.8v.6c0,2,1.1,3.5,3.1,3.5,1.3,0,2.4-.4,3.8-1.1v1.6ZM42.5,64.5c0-1.9-.6-3.1-2.3-3.1s-3,1.5-3.3,3.1h5.6Z"/>
    <path class="st1" d="M47.9,61.7h-1.9l.2-1.7h1.9l.2-1.2c.4-2.7,1.4-4.5,3.9-4.5.6,0,1.4.2,1.8.4l-.4,1.6c-.3-.2-.7-.3-1.2-.3-1.5,0-1.9,1.3-2.1,2.9l-.1,1h2.2l-.2,1.7h-2.2l-1.3,9.6h-2.1l1.3-9.5ZM52.5,71.3l1.5-11.3h2.1l-1.5,11.3h-2.1ZM56.7,54.5l-.3,2.5h-2.1l.4-2.5h2Z"/>
    <path class="st1" d="M59,60h2l-.3,1.9c1-1.3,2-2.1,3.9-2.1,2.2,0,3.3,1.3,3.3,3.4,0,.3,0,.6-.1.9l-.9,7.3h-2.1l.9-6.6c0-.3.1-.6.1-.9,0-1.5-.6-2.4-2-2.4-1.5,0-2.4,1.1-3.3,2.4l-1,7.5h-2l1.5-11.4Z"/>
    <path class="st1" d="M78.7,70.5c-1.4.7-2.7,1.1-4.2,1.1-3.2,0-4.8-1.9-4.8-4.8,0-3.3,1.8-7,6-7,2.5,0,4.1,1.7,4.1,4.4,0,.3,0,.6-.1.9l-.1.8h-7.8v.6c0,2,1.1,3.5,3.1,3.5,1.3,0,2.4-.4,3.8-1.1v1.6ZM77.8,64.5c0-1.9-.6-3.1-2.3-3.1s-3,1.5-3.3,3.1h5.6Z"/>
    <path class="st1" d="M92,56.4h.7l-.5,3.6h2.5l-.2,1.7h-2.5l-.8,6.1c0,.3-.1.6-.1.9,0,.8.3,1.2,1.2,1.2.6,0,1-.2,1.7-.4l-.1,1.6c-.8.3-1.4.5-2.3.5-1.5,0-2.5-.9-2.5-2.6v-.7l.9-6.5h-1.9l.2-1.7h1.9l.3-2.2,1.5-1.5Z"/>
    <path class="st1" d="M95.3,66.6c0-5.2,3.9-6.8,6.4-6.8,3.2,0,4.9,2.1,4.9,4.9,0,3.4-2.3,6.9-6.5,6.9-3-.1-4.8-2.2-4.8-5ZM104.5,64.8c0-1.9-1.1-3.4-3-3.4-2,0-4,1.9-4,5,0,2,1.1,3.5,2.9,3.5,2.5,0,4.1-2.5,4.1-5.1Z"/>
    <path class="st1" d="M117.6,71.3h-2.1l.9-6.6c0-.3.1-.6.1-.9,0-1.5-.6-2.4-2-2.4-1.5,0-2.4,1.1-3.3,2.4l-1,7.5h-2l1.5-11.3h2l-.3,1.9c1-1.3,2-2.1,3.9-2.1,1.8,0,2.9.9,3.2,2.4,1-1.3,2.3-2.4,4.2-2.4,2.2,0,3.3,1.3,3.3,3.4,0,.3,0,.6-.1.9l-1,7.3h-2l.9-6.6v-.9c0-1.5-.6-2.4-2-2.4-1.5,0-2.5,1.1-3.3,2.4l-.9,7.4Z"/>
    <path class="st1" d="M127.9,66.6c0-5.2,3.9-6.8,6.4-6.8,3.2,0,4.9,2.1,4.9,4.9,0,3.4-2.3,6.9-6.5,6.9-3.1-.1-4.8-2.2-4.8-5ZM137.1,64.8c0-1.9-1.1-3.4-3-3.4-2,0-4,1.9-4,5,0,2,1.1,3.5,2.9,3.5,2.5,0,4.1-2.5,4.1-5.1Z"/>
    <path class="st1" d="M147.3,59.8c.6,0,1.1.1,1.6.6l-.7,1.9c-.5-.5-1-.7-1.5-.7-1.4,0-2.7,1.5-3.2,3.4l-.8,6.2h-2l1.5-11.3h1.9l-.3,2.4c1.1-1.6,2.3-2.5,3.5-2.5Z"/>
    <path class="st1" d="M155.6,59.8c.6,0,1.1.1,1.6.6l-.7,1.9c-.5-.5-1-.7-1.5-.7-1.4,0-2.7,1.5-3.2,3.4l-.8,6.2h-2l1.5-11.3h1.9l-.3,2.4c1.1-1.6,2.3-2.5,3.5-2.5Z"/>
    <path class="st1" d="M156.9,66.6c0-5.2,3.9-6.8,6.4-6.8,3.2,0,4.9,2.1,4.9,4.9,0,3.4-2.3,6.9-6.5,6.9-3.1-.1-4.8-2.2-4.8-5ZM166.1,64.8c0-1.9-1.1-3.4-3-3.4-2,0-4,1.9-4,5,0,2,1.1,3.5,2.9,3.5,2.5,0,4.1-2.5,4.1-5.1Z"/>
    <path class="st1" d="M171.6,60l1.6,8.8,4-8.8h1.9l1.6,8.9,4.2-8.9h2.1l-5.6,11.3h-1.9l-1.6-8.9-4.1,8.9h-1.9l-2.3-11.3h2Z"/>
    <path class="st1" d="M188,71.3h-2.6l.4-2.7h2.6l-.4,2.7Z"/>
  </g>
</svg>
