<?xml version="1.0" encoding="UTF-8"?>
<svg id="uuid-1184be23-2081-441a-8406-a4d216a171d6" xmlns="http://www.w3.org/2000/svg" viewBox="0 0 275.98 82.49">
  <defs>
    <style>
      .uuid-8a07e9b0-f555-4248-887f-fff7e62f0945 {
        fill-rule: evenodd;
      }

      .uuid-8a07e9b0-f555-4248-887f-fff7e62f0945, .uuid-e58822c2-9fee-41ea-93b5-71931b262fa4 {
        fill: #fff;
      }
    </style>
  </defs>
  <path class="uuid-8a07e9b0-f555-4248-887f-fff7e62f0945" d="M33.51,8.19c-.29-.02-.43-.02-.57-.02h-.47s-.11-7.59-.11-7.59c0-.32.26-.59.57-.59s.57.26.57.57M24.5,15.51l-6.09-.77c.33-.39.53-.65.71-.93l5.53.86c-.08.37-.13.61-.16.84ZM24.84,14.06l-5.01-1.51c.16-.38.26-.64.34-.89l4.98,1.6c-.15.35-.23.58-.3.8ZM25.85,11.96c-.21.32-.33.53-.44.73l-4.93-2.54c.05-.42.07-.74.07-1.05l5.3,2.86ZM27.9,9.82c-.3.23-.49.39-.66.54l-3.62-3.85h.62c.26.01.53.01.78,0l2.88,3.32ZM28.42,9.47l-2.19-3.18c.42-.11.7-.2.97-.3l1.96,3.06c-.34.18-.55.3-.75.42ZM29.75,8.79l-1.48-3.29c.34-.19.57-.34.79-.49l1.49,3.49c-.36.11-.59.19-.81.28ZM30.16,4.12c.33-.33.57-.6.8-.9l1.06,5c-.38.05-.62.09-.85.14l-1.01-4.24ZM34.76,3.04c.38.49.63.77.9,1.03l-.69,4.34c-.37-.08-.61-.13-.84-.16l.63-5.22ZM35.58,8.59l1.04-3.7c.38.26.62.41.85.55l-1.09,3.46c-.35-.15-.58-.23-.8-.31ZM37.69,9.62c-.32-.21-.53-.33-.74-.44l1.55-3.25c.4.15.68.24.97.32l-1.79,3.38ZM38.84,10.56c-.28-.26-.46-.42-.65-.56l2.59-3.5c.32.03.59.03.85.03h.59s-3.38,4.04-3.38,4.04ZM44.93,5.9c.24-.2.6-.17.8.07.2.24.17.6-.07.8l-5.84,4.9c-.23-.3-.38-.49-.54-.66l5.65-5.12ZM45.37,10.06l-4.79,2.89c-.17-.34-.29-.55-.41-.75l5.15-3.31c0,.53.02.85.05,1.17ZM40.84,13.53l4.81-2.06c.12.4.22.66.32.9l-4.85,1.97c-.11-.36-.19-.59-.28-.81ZM41.4,15.8c-.04-.38-.08-.62-.13-.84l5.41-1.24c.24.36.44.62.65.87l-5.92,1.21ZM26.78,10.8c-.26.28-.41.46-.56.65l-6.02-4.67c-.24-.2-.27-.57-.07-.81.2-.24.56-.27.8-.07l5.84,4.9ZM41.41,17.15c.01-.25.02-.39.02-.54v-.39s7.41-.1,7.41-.1c.3,0,.53.23.53.51s-.23.51-.52.51h-7.43ZM16.51,16.64c0-.28.23-.51.53-.51l7.41.1v.39c0,.15,0,.29,0,.53h-7.44c-.28,0-.51-.22-.51-.5ZM10.03,63.26l-2.48,1.55-.28-.45,2.48-1.55.28.45ZM9.3,67.33l-.35-.48.94-1.97-1.56,1.13-.31-.43,2.37-1.72.35.48-.95,1.97,1.56-1.13.31.43-2.37,1.72ZM11.44,69.78l-.47-.48,1.52-2.67.4.42-1.2,2.04,2.05-1.15.4.42-2.71,1.43ZM15.87,69.81l-.28.34-.92-.77-.49.59.79.66-.28.34-.79-.66-.54.64.96.8-.28.34-1.36-1.14,1.88-2.24,1.33,1.11ZM17.59,72.18c-.23.32-.56.49-.95.35l-.12,1.4-.53-.37.17-1.3-.26-.18-.67.95-.43-.3,1.68-2.4.89.62c.52.36.48.85.22,1.23ZM16.66,70.99l-.5.71.35.24c.2.14.42.21.63-.09.2-.28.1-.46-.11-.62l-.36-.25ZM19.17,72.1l-1.51,2.51-.45-.27,1.51-2.51.45.27ZM20.06,73.1l-.62-.33.21-.39,1.71.91-.21.39-.62-.33-1.17,2.19-.47-.25,1.17-2.19ZM22.28,73.64l.62.25-.31,3.05-.54-.22.09-.73-.78-.31-.45.58-.54-.22,1.91-2.41ZM22.34,74.4l-.71.91.57.23.13-1.15ZM24.32,74.89l-.67-.22.14-.42,1.84.6-.14.42-.67-.22-.76,2.36-.5-.16.77-2.36ZM27.88,75.35l-.09.43-1.18-.25-.16.75,1.01.22-.09.43-1.01-.21-.17.81,1.22.26-.09.43-1.74-.37.61-2.86,1.7.36ZM29.99,78.18c.27.02.45-.07.47-.3.02-.28-.18-.44-.46-.61-.41-.24-.65-.52-.61-.96.05-.55.59-.7,1-.67.24.02.54.09.75.19l-.04.44c-.24-.1-.51-.17-.74-.19-.19-.02-.42.06-.44.3-.02.23.15.35.46.53.51.29.69.59.66.96-.05.58-.52.79-1.07.74-.24-.02-.59-.1-.8-.19l.04-.44c.25.11.55.17.79.2ZM32.42,75.77h.67s.8,2.97.8,2.97h-.58s-.18-.72-.18-.72h-.84s-.21.69-.21.69h-.58s.91-2.94.91-2.94ZM32.75,76.46l-.33,1.1h.62s-.28-1.1-.28-1.1ZM35.68,77.4l-.54.05.1,1.16-.53.05-.26-2.91,1.08-.09c.63-.06.92.34.96.8.04.48-.17.9-.82.95ZM35.03,76.14l.08.87.42-.04c.24-.02.46-.11.43-.48-.03-.34-.22-.42-.48-.4l-.44.04ZM37.56,75.37l.46,2.89-.52.08-.46-2.89.52-.08ZM40.19,74.77l.11.43-1.17.29.19.75,1-.25.11.43-1,.25.2.81,1.21-.3.11.43-1.73.43-.71-2.84,1.68-.42ZM43.95,76.6l-.56.19-1.61-1.48.63,1.82-.5.17-.95-2.77.56-.19,1.61,1.48-.63-1.82.5-.17.95,2.77ZM44.38,73.66l-.64.3-.19-.4,1.76-.82.19.4-.64.3,1.05,2.25-.48.22-1.05-2.25ZM46.33,72.14l1.42,2.56-.46.26-1.42-2.56.46-.26ZM47.6,71.32l.55-.38,2.39,1.92-.48.33-.56-.47-.69.48.24.69-.48.33-.98-2.91ZM48.27,71.69l.38,1.09.51-.35-.89-.73ZM50.57,69.1l.28.34-.94.76.48.6.8-.65.28.34-.8.65.52.64.97-.79.28.34-1.38,1.12-1.84-2.27,1.35-1.09ZM51.89,67.85l.36-.39,1.82,1.7.85-.91.32.3-1.21,1.3-2.14-2ZM54.86,67.52l-1.56-1.17.32-.42,1.56,1.17c.29.22.55.23.8-.1.24-.31.17-.58-.12-.8l-1.56-1.17.32-.42,1.56,1.17c.51.39.59.91.15,1.48-.44.58-.96.65-1.47.26ZM58.28,64.39l-1.14-.15.63.97-.33.52-.88-1.43-1.58-.16.33-.53,1.09.15-.62-.9.33-.52.83,1.35,1.68.17-.33.53ZM40.14,52.58c-.93.47-1.67,1.14-2.26,1.94-1.24-.12-2.46.42-3.14,1.32,1-2.2,3.17-3.23,5.24-3.27h.15ZM25.73,52.58h.15c2.07.03,4.24,1.07,5.24,3.27-.68-.9-1.89-1.44-3.14-1.32-.59-.8-1.33-1.48-2.26-1.94ZM32.93,51.66s.95,2.11,1.65,4.75c.35-.46.77-.79,1.28-.93.82-.22,1.77-.06,2.7.28,2.06-2.64,4.21,2.49,4.21,2.49,0,0-2.05-1.71-4.21-2.49-.29.37-1.23,1.71-2.58,4.43-2.08,4.19-3.05,6.95-3.05,6.95,0,0-.97-2.75-3.05-6.95-1.35-2.72-2.3-4.07-2.58-4.43-2.16.78-4.21,2.49-4.21,2.49,0,0,2.15-5.13,4.21-2.49.93-.34,1.89-.5,2.7-.28.51.14.93.47,1.28.93.7-2.63,1.65-4.75,1.65-4.75ZM32.92,64.16s2.71-3.28,1.66-7.75c-1.66,2.52-1.65,5.24-1.65,5.24,0,0,0-2.73-1.65-5.24-1.06,4.46,1.64,7.75,1.64,7.75ZM53.11,47.47c-.17.42-.34.83-.52,1.24-5.43-.57-6.19-4.44-8.86-4.44-3.03,0-4.22,4.51-10.79,4.51s-7.77-4.51-10.8-4.51c-2.68,0-3.43,3.88-8.86,4.44-.18-.4-.35-.8-.51-1.22h.3c2.33-.23,3.65-1.12,4.71-2.02.31-.26.6-.53.88-.78.32-.28.62-.54.93-.76.68-.49,1.5-.9,2.55-.9s1.97.42,2.72.91c.66.44,1.32,1.01,2.09,1.6,1.36,1.02,3.05,2.01,5.99,2.01s4.63-.99,5.99-2.01c.77-.58,1.43-1.16,2.09-1.6.75-.49,1.63-.91,2.72-.91,1.03,0,1.84.4,2.51.87.3.22.61.47.92.75.27.24.56.5.87.76,1.05.9,2.34,1.79,4.59,2.05h.49ZM23.17,28.19c2.87-.32,6.37.3,9.12,2.4v-1.16c-2.72-2.15-6.13-2.57-8.68-2.17l-.44.94ZM22.44,29.51l-.38,1.04c3.6-.26,7.41.8,10.3,3.05l-.02-1.34c-2.8-2.24-6.57-3.09-9.89-2.75ZM22.77,26.39c2.24-.87,6.28-.99,9.53,1.54l.64.5.64-.5c3.24-2.53,7.28-2.41,9.53-1.54l2.35,5.04c.41.06.83.13,1.25.22l-2.83-6.06c-2.45-1.13-7.18-1.42-10.94,1.51-3.77-2.93-8.49-2.65-10.94-1.51l-2.83,6.06c.42-.09.85-.16,1.26-.22l2.35-5.04ZM17.44,33l3.03-5.81c-.41.17-.68.28-1.11.49l-3.26,6.33.64.64c5.49-2.54,12.27-1.12,16.18,3.01,3.92-4.12,10.69-5.55,16.18-3.01l.64-.64-3.26-6.33c-.43-.21-.7-.32-1.11-.49l3.03,5.81c-5.53-1.94-11.81-.29-15.49,3.07-3.68-3.36-9.96-5.01-15.49-3.07ZM10.82,40.31c-.26-1.66-.39-3.4-.39-5.21v-10.74c0-2.1,1.7-3.8,3.8-3.8h37.43c2.09,0,3.8,1.7,3.8,3.8v10.74c0,1.81-.14,3.55-.39,5.21-.14.01-.29.02-.47.02-3.03,0-4.29-4.5-10.87-4.5s-7.76,4.5-10.79,4.5-4.31-4.5-10.89-4.5-7.84,4.5-10.87,4.5c-.12,0-.24,0-.35-.02ZM53.98,58.49l.44-.95,4.5,2.09.26.11c2.09-3.21,3.93-6.85,5.25-10.96h-9.18c-2.22,5.42-5.57,9.83-8.94,13.23-5.21,5.25,2.01,5.27,6.94-2.07.26-.47.51-.96.74-1.45ZM60.14,60.2l3.85,1.78-.44.95c-5.35,11.55-17.05,19.56-30.62,19.56S7.66,74.47,2.32,62.93l-.44-.95,3.85-1.78c-2.1-3.25-3.96-6.93-5.29-11.1l-.44-1.36h10.41c-1.4-3.74-2.27-7.94-2.27-12.64v-10.74c0-3.35,2.72-6.07,6.07-6.07h37.43c3.35,0,6.07,2.72,6.07,6.07v10.74c0,4.69-.87,8.9-2.27,12.64h10.41l-.44,1.36c-1.33,4.17-3.19,7.85-5.29,11.1ZM6.94,59.63l4.5-2.09.44.95c.23.49.47.98.73,1.45,4.93,7.34,12.15,7.32,6.94,2.07-3.38-3.41-6.72-7.81-8.94-13.23H1.43c1.32,4.12,3.16,7.75,5.25,10.96l.26-.11ZM17.2,65.79c4.13,3.82,9.66,6.15,15.73,6.15s11.59-2.33,15.73-6.15c-.68.38-1.32.65-1.91.81-.63.17-1.28.24-1.87.1-.64-.16-1.23-.6-1.4-1.39-.06-.3-.05-.62.02-.94-5.31,4.62-10.1,6.83-10.14,6.85l-.44.2-.44-.2s-4.83-2.23-10.14-6.85c.07.32.08.64.02.94-.16.78-.76,1.23-1.4,1.39-.58.14-1.24.07-1.87-.1-.58-.16-1.23-.43-1.91-.81ZM32.93,72.99c-9.12,0-17.08-5.04-21.2-12.5-.29-.43-.57-.89-.84-1.37l-3.52,1.47-4.1,1.9c5.18,11.19,16.53,18.95,29.67,18.95s24.49-7.76,29.67-18.95l-4.1-1.9-3.52-1.47c-.27.48-.55.94-.84,1.37-4.13,7.45-12.08,12.5-21.21,12.5ZM32.93,70.28s23.74-10.95,23.74-35.18v-10.74c0-2.78-2.25-5.03-5.03-5.03H14.22c-2.78,0-5.03,2.25-5.03,5.03v10.74c0,24.23,23.74,35.18,23.74,35.18Z" />
  <path class="uuid-e58822c2-9fee-41ea-93b5-71931b262fa4" d="M73.52,24.81c0,.98.26,1.73.77,2.23.51.51,1.25.76,2.23.77.98,0,1.72-.26,2.23-.77.51-.51.77-1.25.77-2.23v-6.02h-1.11v6.02c0,.43-.07.8-.2,1.1-.13.3-.34.54-.62.7-.28.16-.64.24-1.08.25-.34,0-.63-.06-.87-.17-.24-.11-.44-.25-.59-.44-.15-.19-.26-.41-.33-.65-.07-.25-.1-.51-.1-.79v-6.02h-1.11v6.02Z" />
  <polygon class="uuid-e58822c2-9fee-41ea-93b5-71931b262fa4" points="88.6 27.69 88.6 18.79 87.5 18.79 87.5 25.61 87.47 25.61 83.97 18.79 82.67 18.79 82.67 27.69 83.78 27.69 83.78 20.87 83.8 20.87 87.31 27.69 88.6 27.69" />
  <rect class="uuid-e58822c2-9fee-41ea-93b5-71931b262fa4" x="91.88" y="18.79" width="1.11" height="8.89" />
  <polygon class="uuid-e58822c2-9fee-41ea-93b5-71931b262fa4" points="99.81 27.75 102.44 18.79 101.22 18.79 99.15 26.29 99.13 26.29 97 18.79 95.78 18.79 98.44 27.75 99.81 27.75" />
  <polygon class="uuid-e58822c2-9fee-41ea-93b5-71931b262fa4" points="109.95 18.79 105.22 18.79 105.22 27.69 110.08 27.69 110.08 26.73 106.33 26.73 106.33 23.63 109.44 23.63 109.44 22.67 106.33 22.67 106.33 19.76 109.95 19.76 109.95 18.79" />
  <path class="uuid-e58822c2-9fee-41ea-93b5-71931b262fa4" d="M114.14,19.76h1.66c.5,0,.87.13,1.12.4.25.27.37.66.37,1.19,0,.37-.07.67-.19.9-.13.23-.31.4-.54.51-.23.11-.5.16-.82.16h-1.6v-3.16ZM118.46,21.35c0-.36-.05-.69-.15-.99-.1-.31-.25-.58-.45-.81-.2-.23-.46-.42-.77-.55-.31-.13-.68-.2-1.11-.2h-2.95v8.89h1.11v-3.8h1.26l1.99,3.8h1.35l-2.19-3.88c.43-.08.78-.23,1.07-.46.28-.22.49-.51.63-.85.14-.34.21-.73.21-1.16Z" />
  <path class="uuid-e58822c2-9fee-41ea-93b5-71931b262fa4" d="M123.59,26.86c-.24,0-.49-.01-.75-.04-.26-.03-.52-.07-.78-.12-.26-.06-.51-.13-.76-.22v.95c.22.08.46.15.72.21.26.06.52.1.79.13.27.03.53.04.78.04.38,0,.73-.05,1.06-.15.33-.1.62-.25.88-.45.25-.2.45-.45.6-.75.14-.3.22-.66.22-1.07,0-.39-.07-.75-.21-1.08-.14-.33-.38-.63-.7-.9-.32-.28-.76-.53-1.3-.77-.33-.16-.62-.32-.86-.48-.23-.16-.41-.34-.53-.54-.12-.2-.19-.44-.19-.72,0-.24.07-.46.19-.65.12-.19.29-.34.5-.45.21-.11.44-.17.7-.17.36,0,.73.03,1.1.1.37.06.74.16,1.09.29v-.97c-.22-.08-.45-.15-.69-.21-.24-.06-.49-.1-.74-.13-.25-.03-.5-.04-.75-.04s-.48.03-.72.08c-.24.05-.47.14-.69.25-.22.11-.42.25-.59.43-.17.17-.31.38-.41.62-.1.24-.15.52-.15.83,0,.43.08.81.25,1.14.17.33.4.62.71.86.3.25.67.47,1.09.65.22.1.43.21.62.32.2.12.37.25.53.4.16.15.28.32.37.52.09.19.14.41.14.66,0,.29-.07.54-.19.76-.13.22-.3.39-.53.5-.23.12-.49.17-.8.16" />
  <rect class="uuid-e58822c2-9fee-41ea-93b5-71931b262fa4" x="129.3" y="18.79" width="1.11" height="8.89" />
  <polygon class="uuid-e58822c2-9fee-41ea-93b5-71931b262fa4" points="135.34 19.76 135.34 27.69 136.44 27.69 136.44 19.76 138.63 19.76 138.63 18.79 133.15 18.79 133.15 19.76 135.34 19.76" />
  <polygon class="uuid-e58822c2-9fee-41ea-93b5-71931b262fa4" points="144.51 24.45 147.04 18.79 145.75 18.79 143.98 23.2 143.95 23.2 142.19 18.79 140.89 18.79 143.41 24.45 143.41 27.69 144.51 27.69 144.51 24.45" />
  <path class="uuid-e58822c2-9fee-41ea-93b5-71931b262fa4" d="M157.24,18.66c-.48,0-.91.08-1.28.24-.37.15-.68.37-.95.66-.26.28-.48.61-.64,1-.17.38-.29.8-.37,1.25-.08.45-.12.93-.12,1.43s.04.99.12,1.45.2.88.37,1.26c.17.38.38.71.64.99.26.28.58.49.95.65.37.15.8.23,1.28.23.48,0,.91-.08,1.27-.23.37-.15.68-.37.94-.65.26-.28.48-.61.64-.99.17-.38.29-.8.36-1.26.08-.46.12-.94.12-1.45s-.04-.98-.12-1.43c-.08-.46-.2-.87-.36-1.25-.17-.38-.38-.71-.64-1-.26-.28-.58-.5-.94-.66-.37-.16-.79-.24-1.27-.24M157.24,19.63c.44,0,.8.1,1.08.29.28.19.51.45.66.78.16.33.27.71.33,1.15.06.43.09.9.09,1.4,0,.51-.03.98-.09,1.42-.06.44-.17.82-.33,1.15-.16.33-.38.59-.66.77-.28.18-.65.28-1.08.28-.44,0-.81-.1-1.09-.28-.29-.18-.51-.44-.67-.77-.16-.33-.27-.71-.33-1.15-.06-.44-.09-.91-.09-1.42,0-.5.03-.96.09-1.4.06-.43.18-.82.33-1.15.16-.33.38-.59.67-.78.29-.19.65-.28,1.09-.29Z" />
  <polygon class="uuid-e58822c2-9fee-41ea-93b5-71931b262fa4" points="168.27 18.79 163.55 18.79 163.55 27.69 164.65 27.69 164.65 23.76 167.77 23.76 167.77 22.79 164.65 22.79 164.65 19.76 168.27 19.76 168.27 18.79" />
  <polygon class="uuid-e58822c2-9fee-41ea-93b5-71931b262fa4" points="177.02 19.76 177.02 27.69 178.12 27.69 178.12 19.76 180.31 19.76 180.31 18.79 174.83 18.79 174.83 19.76 177.02 19.76" />
  <polygon class="uuid-e58822c2-9fee-41ea-93b5-71931b262fa4" points="184.16 23.63 187.82 23.63 187.82 27.69 188.92 27.69 188.92 18.79 187.82 18.79 187.82 22.67 184.16 22.67 184.16 18.79 183.05 18.79 183.05 27.69 184.16 27.69 184.16 23.63" />
  <polygon class="uuid-e58822c2-9fee-41ea-93b5-71931b262fa4" points="196.93 18.79 192.2 18.79 192.2 27.69 197.05 27.69 197.05 26.73 193.31 26.73 193.31 23.63 196.42 23.63 196.42 22.67 193.31 22.67 193.31 19.76 196.93 19.76 196.93 18.79" />
  <polygon class="uuid-e58822c2-9fee-41ea-93b5-71931b262fa4" points="209.29 18.79 204.17 18.79 204.17 27.69 205.73 27.69 205.73 23.95 208.78 23.95 208.78 22.6 205.73 22.6 205.73 20.14 209.29 20.14 209.29 18.79" />
  <path class="uuid-e58822c2-9fee-41ea-93b5-71931b262fa4" d="M213.17,20.14h1.31c.26,0,.5.03.69.11.2.08.35.21.46.41.11.19.17.47.17.82,0,.28-.04.5-.11.68-.07.18-.18.31-.31.4-.13.09-.28.16-.44.19-.17.03-.34.05-.52.05h-1.25v-2.66ZM217.42,21.47c0-.36-.05-.69-.14-1.01-.1-.32-.25-.61-.46-.86-.21-.25-.48-.45-.81-.59-.33-.14-.73-.22-1.19-.22h-3.21v8.89h1.56v-3.55h.94l1.79,3.55h1.89l-2.08-3.68c.4-.11.73-.29.98-.53.25-.24.44-.54.56-.88.12-.34.18-.71.18-1.12Z" />
  <polygon class="uuid-e58822c2-9fee-41ea-93b5-71931b262fa4" points="225.3 18.79 220.18 18.79 220.18 27.69 225.43 27.69 225.43 26.35 221.74 26.35 221.74 23.82 224.79 23.82 224.79 22.48 221.74 22.48 221.74 20.14 225.3 20.14 225.3 18.79" />
  <polygon class="uuid-e58822c2-9fee-41ea-93b5-71931b262fa4" points="233.11 18.79 227.99 18.79 227.99 27.69 233.24 27.69 233.24 26.35 229.56 26.35 229.56 23.82 232.61 23.82 232.61 22.48 229.56 22.48 229.56 20.14 233.11 20.14 233.11 18.79" />
  <path class="uuid-e58822c2-9fee-41ea-93b5-71931b262fa4" d="M242.31,26.48c-.24,0-.49-.01-.75-.04-.27-.03-.54-.07-.82-.12-.28-.06-.54-.13-.8-.22v1.33c.16.06.35.11.55.16.2.05.41.09.63.12.22.03.43.06.64.07.21.02.41.03.59.03.41,0,.8-.05,1.15-.15.36-.1.67-.25.94-.46.27-.21.48-.47.63-.79.15-.32.23-.7.23-1.15,0-.38-.07-.74-.21-1.06-.14-.32-.38-.62-.7-.9-.32-.28-.75-.54-1.27-.79-.32-.15-.59-.3-.82-.44-.22-.14-.39-.29-.5-.46-.11-.17-.17-.37-.17-.6,0-.18.04-.33.11-.46.07-.13.17-.23.28-.32.12-.08.25-.14.39-.18.14-.04.28-.06.42-.06.23,0,.46.01.72.04.25.03.5.07.76.13.26.06.51.13.75.21v-1.35c-.22-.08-.46-.15-.71-.21-.26-.06-.51-.1-.78-.13-.26-.03-.52-.04-.76-.04s-.5.03-.76.08c-.26.05-.51.13-.75.25-.24.11-.46.26-.64.44-.19.18-.34.39-.45.65-.11.25-.17.55-.17.88,0,.45.08.84.25,1.17.16.34.4.63.7.89.3.26.66.49,1.09.7.29.14.56.29.79.45.23.16.41.34.54.55.13.21.2.45.2.73,0,.24-.06.44-.16.59-.11.15-.26.27-.45.34-.19.07-.42.11-.69.11" />
  <polygon class="uuid-e58822c2-9fee-41ea-93b5-71931b262fa4" points="249.53 20.14 249.53 27.69 251.09 27.69 251.09 20.14 253.18 20.14 253.18 18.79 247.45 18.79 247.45 20.14 249.53 20.14" />
  <path class="uuid-e58822c2-9fee-41ea-93b5-71931b262fa4" d="M257.9,20.81h.03l.88,3.38h-1.83l.93-3.38ZM256.9,18.73l-2.55,8.96h1.72l.58-2.15h2.48l.57,2.15h1.72l-2.53-8.96h-1.98Z" />
  <polygon class="uuid-e58822c2-9fee-41ea-93b5-71931b262fa4" points="264.65 20.14 264.65 27.69 266.21 27.69 266.21 20.14 268.3 20.14 268.3 18.79 262.57 18.79 262.57 20.14 264.65 20.14" />
  <polygon class="uuid-e58822c2-9fee-41ea-93b5-71931b262fa4" points="275.81 18.79 270.69 18.79 270.69 27.69 275.94 27.69 275.94 26.35 272.25 26.35 272.25 23.82 275.3 23.82 275.3 22.48 272.25 22.48 272.25 20.14 275.81 20.14 275.81 18.79" />
  <path class="uuid-e58822c2-9fee-41ea-93b5-71931b262fa4" d="M73.52,40.38c0,.98.26,1.73.77,2.23.51.51,1.25.76,2.23.77.98,0,1.72-.26,2.23-.77.51-.51.77-1.25.77-2.23v-6.02h-1.11v6.02c0,.43-.07.8-.2,1.1-.13.3-.34.54-.62.7-.28.16-.64.24-1.08.25-.34,0-.63-.06-.87-.17-.24-.11-.44-.25-.59-.44-.15-.19-.26-.41-.33-.65-.07-.25-.1-.51-.1-.79v-6.02h-1.11v6.02Z" />
  <polygon class="uuid-e58822c2-9fee-41ea-93b5-71931b262fa4" points="88.24 43.25 88.24 34.36 87.13 34.36 87.13 41.18 87.11 41.18 83.6 34.36 82.3 34.36 82.3 43.25 83.41 43.25 83.41 36.44 83.43 36.44 86.94 43.25 88.24 43.25" />
  <rect class="uuid-e58822c2-9fee-41ea-93b5-71931b262fa4" x="91.15" y="34.36" width="1.11" height="8.89" />
  <polygon class="uuid-e58822c2-9fee-41ea-93b5-71931b262fa4" points="98.71 43.31 101.34 34.36 100.12 34.36 98.05 41.85 98.03 41.85 95.9 34.36 94.68 34.36 97.34 43.31 98.71 43.31" />
  <polygon class="uuid-e58822c2-9fee-41ea-93b5-71931b262fa4" points="108.49 34.36 103.76 34.36 103.76 43.25 108.61 43.25 108.61 42.3 104.86 42.3 104.86 39.2 107.98 39.2 107.98 38.23 104.86 38.23 104.86 35.32 108.49 35.32 108.49 34.36" />
  <path class="uuid-e58822c2-9fee-41ea-93b5-71931b262fa4" d="M112.31,35.32h1.66c.5,0,.87.13,1.12.4.25.27.37.66.37,1.19,0,.37-.07.67-.19.9-.13.23-.31.4-.54.51-.23.11-.5.16-.82.16h-1.6v-3.16ZM116.63,36.91c0-.36-.05-.69-.15-.99-.1-.31-.25-.58-.45-.81-.2-.23-.46-.42-.77-.55-.31-.13-.68-.2-1.11-.2h-2.95v8.89h1.11v-3.8h1.26l1.99,3.8h1.35l-2.19-3.88c.43-.08.78-.23,1.07-.46.28-.22.49-.51.63-.85.14-.34.21-.73.21-1.16Z" />
  <path class="uuid-e58822c2-9fee-41ea-93b5-71931b262fa4" d="M121.39,42.43c-.24,0-.49-.01-.75-.04-.26-.03-.52-.07-.78-.12-.26-.06-.51-.13-.76-.22v.95c.22.08.46.15.72.21.26.06.52.1.79.13.27.03.53.04.78.04.38,0,.73-.05,1.06-.15.33-.1.62-.25.88-.45.25-.2.45-.45.6-.75.14-.3.22-.66.22-1.07,0-.39-.07-.75-.21-1.08-.14-.33-.38-.63-.7-.9-.32-.28-.76-.53-1.3-.77-.33-.16-.62-.32-.86-.48-.23-.16-.41-.34-.53-.54-.12-.2-.19-.44-.19-.72,0-.24.07-.46.19-.65.12-.19.29-.34.5-.45.21-.11.44-.17.7-.17.36,0,.73.03,1.1.1.37.06.74.16,1.09.29v-.97c-.22-.08-.45-.15-.69-.21-.24-.06-.49-.1-.74-.13-.25-.03-.5-.04-.75-.04s-.48.03-.72.08c-.24.05-.47.14-.69.25-.22.11-.42.25-.59.43-.17.17-.31.38-.41.62-.1.24-.15.52-.15.83,0,.43.08.81.25,1.14.17.33.4.62.71.86.3.25.67.47,1.09.65.22.1.43.21.62.32.2.12.37.25.53.4.16.15.28.32.37.52.09.19.14.41.14.66,0,.29-.07.54-.19.76-.13.22-.3.39-.53.5-.23.12-.49.17-.8.16" />
  <rect class="uuid-e58822c2-9fee-41ea-93b5-71931b262fa4" x="126.74" y="34.36" width="1.11" height="8.89" />
  <polygon class="uuid-e58822c2-9fee-41ea-93b5-71931b262fa4" points="132.41 35.32 132.41 43.25 133.51 43.25 133.51 35.32 135.7 35.32 135.7 34.36 130.22 34.36 130.22 35.32 132.41 35.32" />
  <polygon class="uuid-e58822c2-9fee-41ea-93b5-71931b262fa4" points="142.8 34.36 138.08 34.36 138.08 43.25 142.93 43.25 142.93 42.3 139.18 42.3 139.18 39.2 142.3 39.2 142.3 38.23 139.18 38.23 139.18 35.32 142.8 35.32 142.8 34.36" />
  <rect class="uuid-e58822c2-9fee-41ea-93b5-71931b262fa4" x="145.52" y="34.36" width="1.11" height="8.89" />
  <polygon class="uuid-e58822c2-9fee-41ea-93b5-71931b262fa4" points="151.19 35.32 151.19 43.25 152.3 43.25 152.3 35.32 154.48 35.32 154.48 34.36 149.01 34.36 149.01 35.32 151.19 35.32" />
  <polygon class="uuid-e58822c2-9fee-41ea-93b5-71931b262fa4" points="164.79 43.31 167.42 34.36 166.2 34.36 164.13 41.85 164.11 41.85 161.98 34.36 160.76 34.36 163.42 43.31 164.79 43.31" />
  <path class="uuid-e58822c2-9fee-41ea-93b5-71931b262fa4" d="M172.19,35.79h.03l1.11,3.96h-2.27l1.14-3.96ZM171.5,34.29l-2.66,8.96h1.22l.72-2.53h2.78l.71,2.53h1.22l-2.63-8.96h-1.37Z" />
  <polygon class="uuid-e58822c2-9fee-41ea-93b5-71931b262fa4" points="183.86 43.25 183.86 34.36 182.75 34.36 182.75 41.18 182.72 41.18 179.22 34.36 177.92 34.36 177.92 43.25 179.03 43.25 179.03 36.44 179.05 36.44 182.56 43.25 183.86 43.25" />
  <path class="uuid-e58822c2-9fee-41ea-93b5-71931b262fa4" d="M193.65,35.32c.42,0,.79.09,1.1.26.31.17.56.41.76.72.2.31.35.68.45,1.1.1.42.15.89.15,1.4s-.05.98-.15,1.4c-.1.43-.25.79-.45,1.11-.2.31-.46.55-.76.72-.31.17-.68.26-1.1.26h-1.4v-6.98h1.4ZM191.15,34.36v8.89h2.53c.51,0,.97-.08,1.36-.23.4-.15.73-.36,1.02-.64.28-.28.51-.6.69-.97.18-.37.31-.78.4-1.22.08-.44.13-.9.13-1.39s-.04-.95-.13-1.39c-.08-.44-.22-.85-.4-1.22-.18-.37-.41-.69-.69-.97-.28-.28-.62-.49-1.02-.64-.39-.15-.85-.23-1.36-.23h-2.53Z" />
  <rect class="uuid-e58822c2-9fee-41ea-93b5-71931b262fa4" x="199.87" y="34.36" width="1.11" height="8.89" />
  <polygon class="uuid-e58822c2-9fee-41ea-93b5-71931b262fa4" points="208.61 34.36 203.89 34.36 203.89 43.25 208.74 43.25 208.74 42.3 204.99 42.3 204.99 39.2 208.11 39.2 208.11 38.23 204.99 38.23 204.99 35.32 208.61 35.32 208.61 34.36" />
  <polygon class="uuid-e58822c2-9fee-41ea-93b5-71931b262fa4" points="219.57 43.31 222.1 34.36 220.38 34.36 218.62 41.28 218.59 41.28 216.75 34.36 215.03 34.36 217.59 43.31 219.57 43.31" />
  <path class="uuid-e58822c2-9fee-41ea-93b5-71931b262fa4" d="M225.65,35.7h1.31c.26,0,.5.03.69.11.2.08.35.21.46.41.11.19.17.47.17.82,0,.28-.04.5-.11.68-.07.18-.18.31-.31.4-.13.09-.28.16-.44.19-.17.03-.34.05-.52.05h-1.25v-2.66ZM229.9,37.04c0-.36-.05-.69-.14-1.01-.1-.32-.25-.61-.46-.86-.21-.25-.48-.45-.81-.59-.33-.14-.73-.22-1.19-.22h-3.21v8.89h1.56v-3.55h.94l1.79,3.55h1.89l-2.08-3.68c.4-.11.73-.29.98-.53.25-.24.44-.54.56-.88.12-.34.18-.71.18-1.12Z" />
  <polygon class="uuid-e58822c2-9fee-41ea-93b5-71931b262fa4" points="235.89 40.2 238.39 34.36 236.57 34.36 235.11 38.47 235.09 38.47 233.65 34.36 231.84 34.36 234.33 40.2 234.33 43.25 235.89 43.25 235.89 40.2" />
  <path class="uuid-e58822c2-9fee-41ea-93b5-71931b262fa4" d="M242.5,42.04c-.24,0-.49-.01-.75-.04-.27-.03-.54-.07-.82-.12-.28-.06-.54-.13-.8-.22v1.33c.16.06.35.11.55.16.2.05.41.09.63.12.22.03.43.06.64.07.21.02.41.03.59.03.41,0,.8-.05,1.15-.15.36-.1.67-.25.94-.46.27-.21.48-.47.63-.79.15-.32.23-.7.23-1.15,0-.38-.07-.74-.21-1.06-.14-.32-.38-.62-.7-.9-.32-.28-.75-.54-1.27-.79-.32-.15-.59-.3-.82-.44-.22-.14-.39-.29-.5-.46-.11-.17-.17-.37-.17-.6,0-.18.04-.33.11-.46.07-.13.17-.23.28-.32.12-.08.25-.14.39-.18.14-.04.28-.06.42-.06.23,0,.46.01.72.04.25.03.5.07.76.13.26.06.51.13.75.21v-1.35c-.22-.08-.46-.15-.71-.21-.26-.06-.51-.1-.78-.13-.26-.03-.52-.04-.76-.04s-.5.03-.76.08c-.26.05-.51.13-.75.25-.24.11-.46.26-.64.44-.19.18-.34.39-.45.65-.11.25-.17.55-.17.88,0,.45.08.84.25,1.17.16.34.4.63.7.89.3.26.66.49,1.09.7.29.14.56.29.79.45.23.16.41.34.54.55.13.21.2.45.2.73,0,.24-.06.44-.16.59-.11.15-.26.27-.45.34-.19.07-.42.11-.69.11" />
  <polygon class="uuid-e58822c2-9fee-41ea-93b5-71931b262fa4" points="249.35 35.7 249.35 43.25 250.91 43.25 250.91 35.7 253 35.7 253 34.36 247.27 34.36 247.27 35.7 249.35 35.7" />
  <path class="uuid-e58822c2-9fee-41ea-93b5-71931b262fa4" d="M257.36,36.38h.03l.88,3.38h-1.83l.93-3.38ZM256.35,34.29l-2.55,8.96h1.72l.58-2.15h2.48l.57,2.15h1.72l-2.53-8.96h-1.98Z" />
  <path class="uuid-e58822c2-9fee-41ea-93b5-71931b262fa4" d="M265.95,36.38h.03l.88,3.38h-1.83l.93-3.38ZM264.94,34.29l-2.55,8.96h1.72l.58-2.15h2.48l.57,2.15h1.72l-2.53-8.96h-1.98Z" />
  <polygon class="uuid-e58822c2-9fee-41ea-93b5-71931b262fa4" points="272.33 35.7 272.33 43.25 273.89 43.25 273.89 35.7 275.98 35.7 275.98 34.36 270.24 34.36 270.24 35.7 272.33 35.7" />
  <polygon class="uuid-e58822c2-9fee-41ea-93b5-71931b262fa4" points="76.79 55.58 79.32 49.92 78.02 49.92 76.25 54.33 76.23 54.33 74.46 49.92 73.17 49.92 75.68 55.58 75.68 58.82 76.79 58.82 76.79 55.58" />
  <path class="uuid-e58822c2-9fee-41ea-93b5-71931b262fa4" d="M81.97,55.94c0,.98.26,1.73.77,2.23.51.51,1.25.76,2.23.77.98,0,1.72-.26,2.23-.77.51-.51.77-1.25.77-2.23v-6.02h-1.11v6.02c0,.43-.07.8-.2,1.1-.13.3-.34.54-.62.7-.28.16-.64.24-1.08.25-.34,0-.63-.06-.87-.17-.24-.11-.44-.25-.59-.44-.15-.19-.26-.41-.33-.65-.07-.25-.1-.51-.1-.79v-6.02h-1.11v6.02Z" />
  <polygon class="uuid-e58822c2-9fee-41ea-93b5-71931b262fa4" points="97.05 58.82 97.05 49.92 95.95 49.92 95.95 56.75 95.92 56.75 92.42 49.92 91.12 49.92 91.12 58.82 92.23 58.82 92.23 52.01 92.25 52.01 95.76 58.82 97.05 58.82" />
  <rect class="uuid-e58822c2-9fee-41ea-93b5-71931b262fa4" x="100.33" y="49.92" width="1.11" height="8.89" />
  <polygon class="uuid-e58822c2-9fee-41ea-93b5-71931b262fa4" points="108.26 58.88 110.89 49.92 109.67 49.92 107.6 57.42 107.58 57.42 105.45 49.92 104.23 49.92 106.89 58.88 108.26 58.88" />
  <polygon class="uuid-e58822c2-9fee-41ea-93b5-71931b262fa4" points="118.4 49.92 113.67 49.92 113.67 58.82 118.53 58.82 118.53 57.86 114.78 57.86 114.78 54.76 117.89 54.76 117.89 53.8 114.78 53.8 114.78 50.89 118.4 50.89 118.4 49.92" />
  <path class="uuid-e58822c2-9fee-41ea-93b5-71931b262fa4" d="M123.46,57.99c-.24,0-.49-.01-.75-.04-.26-.03-.52-.07-.78-.12-.26-.06-.51-.13-.76-.22v.95c.22.08.46.15.72.21.26.06.52.1.79.13.27.03.53.04.78.04.38,0,.73-.05,1.06-.15.33-.1.62-.25.88-.45.25-.2.45-.45.6-.75.14-.3.22-.66.22-1.07,0-.39-.07-.75-.21-1.08-.14-.33-.38-.63-.7-.9-.32-.28-.76-.53-1.3-.77-.33-.16-.62-.32-.86-.48-.23-.16-.41-.34-.53-.54-.12-.2-.19-.44-.19-.72,0-.24.07-.46.19-.65.12-.19.29-.34.5-.45.21-.11.44-.17.7-.17.36,0,.73.03,1.1.1.37.06.74.16,1.09.29v-.97c-.22-.08-.45-.15-.69-.21-.24-.06-.49-.1-.74-.13-.25-.03-.5-.04-.75-.04s-.48.03-.72.08c-.24.05-.47.14-.69.25-.22.11-.42.25-.59.43-.17.17-.31.38-.41.62-.1.24-.15.52-.15.83,0,.43.08.81.25,1.14.17.33.4.62.71.86.3.25.67.47,1.09.65.22.1.43.21.62.32.2.12.37.25.53.4.16.15.28.32.37.52.09.19.14.41.14.66,0,.29-.07.54-.19.76-.13.22-.3.39-.53.5s-.49.17-.8.16" />
  <rect class="uuid-e58822c2-9fee-41ea-93b5-71931b262fa4" x="129.18" y="49.92" width="1.11" height="8.89" />
  <polygon class="uuid-e58822c2-9fee-41ea-93b5-71931b262fa4" points="135.21 50.89 135.21 58.82 136.32 58.82 136.32 50.89 138.5 50.89 138.5 49.92 133.03 49.92 133.03 50.89 135.21 50.89" />
  <polygon class="uuid-e58822c2-9fee-41ea-93b5-71931b262fa4" points="142.35 54.76 146.01 54.76 146.01 58.82 147.12 58.82 147.12 49.92 146.01 49.92 146.01 53.8 142.35 53.8 142.35 49.92 141.25 49.92 141.25 58.82 142.35 58.82 142.35 54.76" />
  <rect class="uuid-e58822c2-9fee-41ea-93b5-71931b262fa4" x="150.4" y="49.92" width="1.11" height="8.89" />
  <polygon class="uuid-e58822c2-9fee-41ea-93b5-71931b262fa4" points="162.3 55.58 164.83 49.92 163.53 49.92 161.77 54.33 161.74 54.33 159.98 49.92 158.68 49.92 161.2 55.58 161.2 58.82 162.3 58.82 162.3 55.58" />
  <path class="uuid-e58822c2-9fee-41ea-93b5-71931b262fa4" d="M169.71,51.36h.03l1.11,3.96h-2.27l1.14-3.96ZM169.02,49.86l-2.66,8.96h1.22l.72-2.53h2.78l.71,2.53h1.22l-2.63-8.96h-1.37Z" />
  <polygon class="uuid-e58822c2-9fee-41ea-93b5-71931b262fa4" points="185.08 49.92 179.96 49.92 179.96 58.82 181.53 58.82 181.53 55.08 184.58 55.08 184.58 53.73 181.53 53.73 181.53 51.27 185.08 51.27 185.08 49.92" />
  <path class="uuid-e58822c2-9fee-41ea-93b5-71931b262fa4" d="M188.96,51.27h1.31c.26,0,.5.03.69.11.2.08.35.21.46.41.11.19.17.47.17.82,0,.28-.04.5-.11.68-.07.18-.18.31-.31.4-.13.09-.28.16-.44.19-.17.03-.34.05-.52.05h-1.25v-2.66ZM193.22,52.6c0-.36-.05-.69-.14-1.01-.1-.32-.25-.61-.46-.86-.21-.25-.48-.45-.81-.59-.33-.14-.73-.22-1.19-.22h-3.21v8.89h1.56v-3.55h.94l1.79,3.55h1.89l-2.08-3.68c.4-.11.73-.29.98-.53.25-.24.44-.54.56-.88.12-.34.18-.71.18-1.12Z" />
  <polygon class="uuid-e58822c2-9fee-41ea-93b5-71931b262fa4" points="201.09 49.92 195.97 49.92 195.97 58.82 201.22 58.82 201.22 57.48 197.54 57.48 197.54 54.95 200.59 54.95 200.59 53.61 197.54 53.61 197.54 51.27 201.09 51.27 201.09 49.92" />
  <rect class="uuid-e58822c2-9fee-41ea-93b5-71931b262fa4" x="203.79" y="49.92" width="1.56" height="8.89" />
  <path class="uuid-e58822c2-9fee-41ea-93b5-71931b262fa4" d="M210.29,57.61c-.23,0-.49-.01-.75-.04-.27-.03-.54-.07-.82-.12-.28-.06-.54-.13-.8-.22v1.33c.16.06.35.11.55.16.2.05.41.09.63.12.22.03.43.06.64.07.21.02.41.03.59.03.41,0,.8-.05,1.15-.15.36-.1.67-.25.94-.46.27-.21.48-.47.63-.79.15-.32.23-.7.23-1.15,0-.38-.07-.74-.21-1.06-.14-.32-.38-.62-.7-.9-.32-.28-.75-.54-1.27-.79-.32-.15-.59-.3-.82-.44-.22-.14-.39-.29-.5-.46-.11-.17-.17-.37-.17-.6,0-.18.04-.33.11-.46.07-.13.17-.23.28-.32.12-.08.25-.14.39-.18.14-.04.28-.06.42-.06.23,0,.46.01.72.04.25.03.5.07.76.13.26.06.51.13.75.21v-1.35c-.22-.08-.46-.15-.71-.21-.26-.06-.51-.1-.78-.13-.26-.03-.52-.04-.76-.04s-.5.03-.76.08c-.26.05-.51.13-.75.25-.24.11-.46.26-.64.44-.19.18-.34.39-.45.65-.11.25-.17.55-.17.88,0,.45.08.84.25,1.17.16.34.4.63.7.89.3.26.66.49,1.09.7.29.14.56.29.79.45.23.16.41.34.54.55.13.21.2.45.2.73,0,.24-.06.44-.16.59-.11.15-.26.27-.45.34-.19.07-.42.11-.69.11" />
  <polygon class="uuid-e58822c2-9fee-41ea-93b5-71931b262fa4" points="217.51 51.27 217.51 58.82 219.07 58.82 219.07 51.27 221.16 51.27 221.16 49.92 215.43 49.92 215.43 51.27 217.51 51.27" />
  <path class="uuid-e58822c2-9fee-41ea-93b5-71931b262fa4" d="M225.88,51.94h.03l.88,3.38h-1.83l.93-3.38ZM224.88,49.86l-2.55,8.96h1.72l.58-2.15h2.48l.57,2.15h1.72l-2.53-8.96h-1.98Z" />
  <polygon class="uuid-e58822c2-9fee-41ea-93b5-71931b262fa4" points="232.63 51.27 232.63 58.82 234.19 58.82 234.19 51.27 236.28 51.27 236.28 49.92 230.55 49.92 230.55 51.27 232.63 51.27" />
  <path class="uuid-e58822c2-9fee-41ea-93b5-71931b262fa4" d="M241.01,51.94h.03l.88,3.38h-1.83l.93-3.38ZM240,49.86l-2.55,8.96h1.72l.58-2.15h2.48l.57,2.15h1.72l-2.53-8.96h-1.98Z" />
</svg>
